<svg width="225" height="28" viewBox="0 0 225 28" fill="none" xmlns="http://www.w3.org/2000/svg">
<path fill-rule="evenodd" clip-rule="evenodd" d="M195.004 10.6282C196.802 3.84157 205.331 -0.928731 213.396 0.15319C218.038 0.546616 222.215 2.85801 225 6.00541C224.072 6.54637 223.143 7.03814 222.215 7.52993C219.662 4.62841 215.485 2.66129 211.191 2.80883C206.55 2.71047 202.082 4.92348 199.645 8.2676C197.905 10.7757 197.383 13.8739 198.369 16.6279C199.587 20.513 203.591 23.6112 208.232 24.4473C213.28 25.5292 218.966 23.7096 222.041 20.2179C222.969 20.7097 223.898 21.2507 224.768 21.7425C221.693 25.3816 216.413 27.4963 211.133 27.4963C206.956 27.4963 202.895 26.1193 199.761 23.7587C195.584 20.513 193.495 15.3001 194.946 10.6282H195.004ZM0 0.546625C8.00671 0.546625 15.9554 0.546625 23.9621 0.546625C23.9621 1.38266 23.9621 2.26785 23.9621 3.10389C17.1738 3.15306 10.3855 3.05471 3.53919 3.15307C3.53919 6.34965 3.53919 9.54624 3.53919 12.7428C8.52888 12.8412 13.5186 12.7428 18.4502 12.792C18.4502 13.628 18.4502 14.5132 18.4502 15.3493C13.4605 15.3985 8.52888 15.3493 3.53919 15.3984C3.53919 19.2835 3.53919 23.1194 3.53919 26.9553C2.3788 26.9553 1.16039 26.9553 0 26.9553C0 18.1032 0 9.30035 0 0.448263V0.546625ZM36.7264 0.497444C32.0268 9.34953 27.3272 18.2508 22.7437 27.1029C23.9621 27.1029 25.2385 27.1029 26.4569 27.0045C27.6173 24.644 28.8938 22.3326 30.2282 20.0704C35.6821 20.1196 41.1939 20.0704 46.6478 20.1196C47.8082 22.4801 49.1426 24.7423 50.361 27.1029C51.6374 27.1029 52.8559 27.1029 54.1323 27.1029C49.4907 18.3 44.9072 9.44788 40.1496 0.644973C39.0472 0.44826 37.8288 0.546622 36.7264 0.497444ZM31.5627 17.5131C33.7674 12.8904 36.0302 8.31679 38.409 3.74321C40.6717 8.31679 42.9345 12.8904 45.1973 17.5131C40.6717 17.5131 36.0882 17.5131 31.5627 17.5131ZM60.5725 0.546625C64.7499 0.546625 68.9273 0.546625 73.1047 0.546625C75.8896 0.546625 78.9067 0.890864 81.1694 2.36621C84.4765 4.28416 84.9407 8.75938 82.2718 11.2183C81.3435 12.1527 80.0671 12.7428 78.9067 13.3821C80.7053 13.8739 82.6199 14.4641 83.8383 15.7919C86.3912 18.6442 85.5209 23.1194 82.0977 25.1849C79.951 26.4636 77.2821 27.0045 74.7292 27.0045C69.9716 27.152 65.272 27.0045 60.5144 27.0537C60.5144 18.2016 60.5144 9.39871 60.5144 0.546625H60.5725ZM63.9956 3.20225C63.9956 6.2513 63.9956 9.25117 63.9956 12.251C66.8386 12.3494 69.6815 12.3002 72.5825 12.3002C74.4391 12.3002 76.4118 12.2019 78.0364 11.2675C80.4732 10.0872 81.4015 7.08733 79.6609 5.1202C78.3265 3.49731 75.8896 3.1039 73.7429 3.05472C70.4938 3.05472 67.2447 3.00553 64.0536 3.10389L63.9956 3.20225ZM63.9956 15.005C63.9956 18.1524 63.9956 21.2998 63.9956 24.4473C67.8249 24.4473 71.6542 24.4964 75.4835 24.4473C78.0364 24.3489 80.9374 23.3653 81.9237 21.2015C82.852 19.4311 82.0397 17.1689 80.0671 16.1853C78.0364 15.0542 75.4835 15.005 73.1627 14.9558C70.0877 14.9558 67.0707 14.9558 63.9956 14.9558V15.005ZM92.8314 0.546625C100.548 0.546625 108.265 0.546625 115.981 0.546625V3.10389C109.425 3.10389 102.869 3.10389 96.3706 3.10389V12.3002H113.834C113.834 13.1854 113.834 14.0215 113.834 14.9067H96.3706V24.3981H116.155V26.9553H92.8894C92.8894 18.1524 92.8894 9.34953 92.8894 0.546625H92.8314ZM124.742 0.546625C129.384 0.546625 134.083 0.546625 138.725 0.546625C142.206 0.743338 146.035 1.57936 148.124 4.13663C149.749 6.2513 150.213 9.10364 148.82 11.415C147.718 13.4805 145.513 14.8083 143.308 15.8902C145.397 19.6278 147.428 23.3653 149.458 27.1029C148.24 27.1029 146.964 27.1029 145.745 27.1029C143.773 23.7096 142.032 20.2179 140.059 16.8246C136.288 16.382 132.285 16.7263 128.455 16.6279C128.455 20.1196 128.455 23.562 128.455 27.0537H124.8C124.8 18.2016 124.8 9.34953 124.8 0.497444L124.742 0.546625ZM128.513 3.39896C128.397 6.93979 128.513 10.5298 128.513 14.0706C132.923 13.8248 137.564 14.71 141.858 13.333C144.817 12.4969 147.022 9.64459 145.861 7.03814C144.991 4.72677 142.032 3.5465 139.363 3.30061C135.824 3.00554 132.285 3.10389 128.745 3.15307L128.571 3.34978L128.513 3.39896ZM184.56 0.546625C185.721 0.546625 186.939 0.546625 188.1 0.546625V27.0045C186.939 27.0045 185.721 27.0045 184.56 27.0045C184.56 18.2016 184.56 9.34953 184.56 0.546625ZM158.161 0.546625C159.264 0.546625 160.424 0.546625 161.527 0.546625C161.527 8.5135 161.527 16.4312 161.527 24.3981C166.806 24.5456 172.028 24.3981 177.308 24.4473C177.308 25.2833 177.308 26.1193 177.308 26.9553C170.926 26.9553 164.486 26.9553 158.103 26.9553C158.103 18.1524 158.103 9.34953 158.103 0.546625H158.161Z" fill="#231F20"/>
</svg>
