<svg width="457" height="396" viewBox="0 0 457 396" fill="none" xmlns="http://www.w3.org/2000/svg">
<path d="M423.169 264.026H273.873V177.631H423.169V264.026ZM274.784 263.115H422.258V178.542H274.784V263.115Z" fill="#FFD651"/>
<path d="M392.37 223.698H293.868V226.585H392.37V223.698Z" fill="#FFEEF3"/>
<path d="M399.156 234.466H293.868V237.617H399.156V234.466Z" fill="#FFEEF3"/>
<path d="M399.156 245.361H293.868V248.512H399.156V245.361Z" fill="#FFEEF3"/>
<path d="M328.293 208.057H293.868V215.554H328.293V208.057Z" fill="#FFEEF3"/>
<path d="M422.714 178.086H274.355V191.842H422.714V178.086Z" fill="#FFD651"/>
<path d="M411.299 189.783C411.108 189.601 413.021 187.296 415.563 184.636C418.104 181.976 420.336 179.963 420.518 180.136C420.7 180.309 418.796 182.623 416.255 185.292C413.713 187.961 411.482 189.965 411.299 189.783Z" fill="#E698B0"/>
<path d="M420.537 189.783C420.355 189.965 418.132 187.961 415.581 185.292C413.031 182.623 411.127 180.318 411.318 180.136C411.509 179.954 413.723 181.958 416.274 184.636C418.824 187.314 420.71 189.601 420.537 189.783Z" fill="#E698B0"/>
<path d="M239.457 7H91.0986V92.4931H239.457V7Z" fill="#FFCFDE"/>
<path d="M209.122 52.6207H110.62V55.5084H209.122V52.6207Z" fill="#FFEEF3"/>
<path d="M215.908 63.388H110.62V66.5399H215.908V63.388Z" fill="#FFEEF3"/>
<path d="M215.908 74.283H110.62V77.4349H215.908V74.283Z" fill="#FFEEF3"/>
<path d="M145.045 36.9796H110.62V44.4768H145.045V36.9796Z" fill="#FFEEF3"/>
<path d="M239.457 7H91.0986V20.7554H239.457V7Z" fill="#FFD651"/>
<path d="M227.542 18.6329C227.35 18.4599 229.263 16.146 231.805 13.486C234.346 10.826 236.578 8.81284 236.76 8.99503C236.943 9.17723 235.039 11.4819 232.497 14.1419C229.956 16.8019 227.724 18.7969 227.542 18.6329Z" fill="#E698B0"/>
<path d="M236.76 18.633C236.578 18.8152 234.356 16.8111 231.805 14.142C229.254 11.4729 227.35 9.17727 227.542 8.99508C227.733 8.81289 229.946 10.817 232.497 13.4861C235.048 16.1552 236.952 18.4599 236.76 18.633Z" fill="#E698B0"/>
<path d="M183.269 165.816H34V79.412H183.269V165.816ZM34.911 164.905H182.358V80.3229H34.911V164.905Z" fill="#FFD651"/>
<path d="M152.479 125.488H53.9775V128.375H152.479V125.488Z" fill="#FFEEF3"/>
<path d="M159.266 136.255H53.9775V139.407H159.266V136.255Z" fill="#FFEEF3"/>
<path d="M159.266 147.15H53.9775V150.302H159.266V147.15Z" fill="#FFEEF3"/>
<path d="M88.4025 109.847H53.9775V117.344H88.4025V109.847Z" fill="#FFEEF3"/>
<path d="M182.813 79.8675H34.4551V93.6229H182.813V79.8675Z" fill="#FFD651"/>
<path d="M355.54 185.611H180.363V342.441H355.54V185.611Z" fill="#FFCFDE"/>
<path d="M189.172 136.21H51.9463V278.783H189.172V136.21Z" fill="#FFEEF3"/>
<path d="M189.172 136.21H51.9463V151.741H189.172V136.21Z" fill="#FFD651"/>
<path d="M63.2778 143.816C63.2529 144.38 63.063 144.923 62.7319 145.379C62.4008 145.836 61.943 146.185 61.4153 146.383C60.8876 146.582 60.3133 146.621 59.7635 146.496C59.2138 146.371 58.7129 146.087 58.3229 145.68C57.933 145.273 57.6712 144.76 57.5701 144.205C57.469 143.651 57.533 143.078 57.7541 142.56C57.9752 142.041 58.3438 141.599 58.814 141.288C59.2842 140.977 59.8354 140.811 60.3992 140.81C61.1789 140.829 61.9192 141.156 62.4586 141.72C62.998 142.283 63.2925 143.037 63.2778 143.816Z" fill="#E698B0"/>
<path d="M74.9654 143.816C74.9422 144.382 74.753 144.929 74.4216 145.388C74.0901 145.847 73.6308 146.199 73.101 146.399C72.5712 146.599 71.9942 146.639 71.4419 146.514C70.8895 146.389 70.3861 146.104 69.9944 145.695C69.6027 145.286 69.3399 144.771 69.2388 144.214C69.1377 143.656 69.2026 143.082 69.4256 142.561C69.6486 142.04 70.0198 141.597 70.493 141.285C70.9662 140.974 71.5204 140.809 72.0868 140.81C72.8664 140.829 73.6068 141.156 74.1462 141.72C74.6856 142.283 74.9801 143.037 74.9654 143.816Z" fill="#E698B0"/>
<path d="M86.6529 143.816C86.6297 144.382 86.4405 144.929 86.1091 145.388C85.7776 145.847 85.3183 146.199 84.7885 146.399C84.2587 146.599 83.6817 146.639 83.1294 146.514C82.577 146.389 82.0736 146.104 81.6819 145.695C81.2902 145.286 81.0274 144.771 80.9263 144.214C80.8252 143.656 80.8901 143.082 81.1131 142.561C81.3361 142.04 81.7073 141.597 82.1805 141.285C82.6537 140.974 83.2079 140.809 83.7743 140.81C84.5539 140.829 85.2943 141.156 85.8337 141.72C86.3731 142.283 86.6676 143.037 86.6529 143.816Z" fill="#E698B0"/>
<path d="M403.574 38.1819H228.397V212.776H403.574V38.1819Z" fill="#FFEEF3"/>
<path d="M403.574 38.1819H228.397V58.6329H403.574V38.1819Z" fill="#FFD651"/>
<path d="M243.319 48.2024C243.287 48.9458 243.038 49.6635 242.601 50.2663C242.165 50.869 241.561 51.3303 240.864 51.5928C240.168 51.8554 239.41 51.9076 238.684 51.743C237.958 51.5785 237.297 51.2043 236.782 50.6671C236.267 50.1299 235.921 49.4533 235.787 48.7212C235.654 47.9892 235.738 47.234 236.03 46.5493C236.321 45.8647 236.808 45.2809 237.428 44.8703C238.049 44.4597 238.777 44.2404 239.521 44.2397C240.549 44.2636 241.526 44.694 242.238 45.4367C242.95 46.1793 243.339 47.1738 243.319 48.2024Z" fill="#E698B0"/>
<path d="M257.594 45.5245C258.099 46.0729 258.432 46.7578 258.55 47.4939C258.669 48.2299 258.568 48.9846 258.26 49.6638C257.953 50.343 257.453 50.9168 256.821 51.3136C256.19 51.7104 255.456 51.9127 254.711 51.8953C253.966 51.8779 253.242 51.6416 252.63 51.2158C252.018 50.79 251.545 50.1935 251.27 49.5007C250.994 48.8079 250.929 48.0493 251.082 47.3196C251.234 46.5899 251.598 45.9212 252.128 45.397C252.871 44.6905 253.863 44.3072 254.888 44.3311C255.912 44.355 256.885 44.7841 257.594 45.5245Z" fill="#E698B0"/>
<path d="M274.091 48.2024C274.059 48.9458 273.809 49.6635 273.373 50.2663C272.936 50.869 272.332 51.3303 271.636 51.5928C270.94 51.8554 270.181 51.9076 269.456 51.743C268.73 51.5785 268.069 51.2043 267.554 50.6671C267.039 50.1299 266.693 49.4533 266.559 48.7212C266.425 47.9892 266.509 47.234 266.801 46.5493C267.093 45.8647 267.579 45.2809 268.2 44.8703C268.82 44.4597 269.548 44.2404 270.292 44.2397C271.321 44.2636 272.298 44.694 273.01 45.4367C273.722 46.1793 274.11 47.1738 274.091 48.2024Z" fill="#E698B0"/>
<path d="M365.733 388.763C365.733 388.891 302.477 389 224.472 389C146.467 389 83.1826 388.891 83.1826 388.763C83.1826 388.636 146.43 388.526 224.472 388.526C302.513 388.526 365.733 388.645 365.733 388.763Z" fill="#263238"/>
<path d="M304.098 277.244C290.024 267.415 286.836 249.168 287.391 232.762C287.482 230.029 287.182 227.132 288.484 224.737C289.787 222.341 292.83 220.692 295.28 221.84C297.312 222.796 298.195 225.165 299.334 227.123C300.853 229.732 303.08 231.857 305.756 233.254C307.496 234.165 309.655 234.712 311.377 233.764C313.745 232.461 314.018 229.209 314 226.477C314 221.393 313.97 216.316 313.909 211.245C313.745 208.522 314.022 205.791 314.729 203.156C315.576 200.569 317.462 198.173 320.04 197.444C322.618 196.716 325.834 198.219 326.417 200.879C326.517 202.005 326.544 203.137 326.499 204.267C326.571 205.406 327.1 206.654 328.166 207C329.231 207.346 330.343 206.554 331.163 205.752C333.968 203.019 335.881 199.458 337.658 195.941C339.434 192.425 341.174 188.809 343.725 185.811C346.275 182.814 349.801 180.437 353.745 180.209C357.69 179.981 361.798 182.405 362.782 186.231C363.766 190.057 361.534 193.965 359.138 197.071C355.523 201.682 351.261 205.747 346.485 209.141C345.553 209.65 344.808 210.445 344.362 211.409C343.77 213.231 345.492 215.053 347.286 215.627C349.318 216.301 351.522 216.092 353.663 216.347C355.804 216.602 358.081 217.531 358.892 219.535C360.003 222.323 357.671 225.238 355.385 227.151C350.794 230.977 345.58 233.987 339.972 236.051C337.967 236.779 335.863 237.426 334.242 238.829C332.62 240.232 331.655 242.682 332.629 244.604C333.604 246.527 336.109 247.137 338.213 246.745C340.318 246.354 342.185 245.224 344.189 244.468C347.933 243.056 352.761 243.311 355.121 246.545C355.852 247.659 356.314 248.927 356.472 250.25C356.63 251.573 356.48 252.915 356.032 254.17C355.12 256.667 353.717 258.956 351.905 260.901C345.939 268.03 338.187 273.446 329.441 276.597C320.76 279.603 312.716 280.423 304.089 277.262" fill="#C50B44"/>
<path d="M358.774 182.459C358.774 182.459 358.692 182.55 358.509 182.714L357.699 183.434C356.988 184.072 355.941 185.001 354.62 186.231C350.875 189.708 347.397 193.463 344.217 197.463C342.185 199.986 340.081 202.846 337.84 205.953C335.599 209.059 333.285 212.411 330.99 215.973C328.542 219.729 326.301 223.616 324.276 227.615C323.219 229.701 322.29 231.879 321.333 234.101L318.509 240.888C314.787 249.436 311.545 258.186 308.799 267.096C306.586 274.386 305.062 281.867 304.244 289.442C303.714 294.553 303.629 299.701 303.989 304.828C304.135 306.65 304.271 308.043 304.399 308.991C304.453 309.446 304.49 309.811 304.526 310.075V310.448C304.487 310.33 304.46 310.208 304.444 310.084C304.399 309.82 304.344 309.465 304.271 309.009C304.107 308.098 303.934 306.659 303.77 304.837C303.331 299.701 303.361 294.536 303.861 289.405C304.628 281.799 306.12 274.283 308.316 266.959C311.039 258.024 314.272 249.253 317.999 240.687L320.896 233.928C321.853 231.715 322.791 229.519 323.857 227.424C325.896 223.412 328.155 219.517 330.625 215.755C332.957 212.111 335.307 208.813 337.521 205.734C339.735 202.655 341.875 199.777 343.898 197.262C347.111 193.273 350.635 189.544 354.437 186.112C355.786 184.901 356.861 183.99 357.589 183.379L358.437 182.696C358.54 182.606 358.653 182.526 358.774 182.459Z" fill="#263238"/>
<path d="M323.976 227.406C323.847 227.03 323.759 226.642 323.711 226.249C323.566 225.493 323.402 224.427 323.21 223.042C322.819 220.309 322.418 216.565 321.99 212.42C321.562 208.275 321.079 204.522 320.678 201.817C320.468 200.469 320.286 199.385 320.159 198.628C320.059 198.241 320.007 197.844 320.004 197.444C320.161 197.809 320.274 198.191 320.341 198.583C320.541 199.33 320.769 200.405 321.024 201.762C321.543 204.495 322.054 208.212 322.482 212.366C322.91 216.52 323.274 220.163 323.557 222.996C323.693 224.272 323.812 225.356 323.903 226.221C323.974 226.612 323.998 227.009 323.976 227.406Z" fill="#263238"/>
<path d="M359.029 220.865C358.585 220.962 358.134 221.017 357.68 221.029C356.769 221.111 355.476 221.22 353.873 221.403C350.666 221.749 346.257 222.386 341.42 223.297C336.583 224.208 332.237 225.238 329.113 226.03C327.555 226.431 326.298 226.795 325.469 227.041C325.026 227.199 324.568 227.309 324.103 227.369C324.524 227.158 324.962 226.984 325.414 226.85C326.271 226.55 327.509 226.13 329.058 225.684C332.164 224.773 336.51 223.689 341.365 222.76C345.478 221.973 349.628 221.396 353.8 221.029C355.412 220.892 356.715 220.838 357.626 220.82C358.094 220.788 358.564 220.803 359.029 220.865Z" fill="#263238"/>
<path d="M308.762 266.322C308.665 266.19 308.585 266.046 308.525 265.894L307.924 264.627C307.404 263.525 306.703 261.895 305.865 259.9C304.171 255.891 302.012 250.28 299.716 244.049C297.42 237.818 295.307 232.207 293.704 228.153C292.92 226.185 292.273 224.573 291.791 223.37L291.28 222.068C291.21 221.917 291.161 221.758 291.135 221.594C291.232 221.726 291.311 221.87 291.372 222.022L291.973 223.288C292.483 224.391 293.194 226.021 294.032 228.016C295.726 232.024 297.885 237.636 300.181 243.867C302.476 250.098 304.59 255.709 306.193 259.763C306.976 261.731 307.623 263.343 308.097 264.545C308.306 265.065 308.479 265.456 308.616 265.848C308.687 265.998 308.736 266.158 308.762 266.322Z" fill="#263238"/>
<path d="M355.294 251.318C355.148 251.402 354.992 251.466 354.829 251.51L353.481 251.965L348.498 253.577C344.289 254.944 338.477 256.893 332.101 259.043C325.724 261.193 319.885 263.106 315.649 264.381C313.535 265.028 311.814 265.52 310.62 265.848L309.245 266.203C309.085 266.254 308.92 266.288 308.753 266.303C308.899 266.22 309.055 266.155 309.217 266.112L310.566 265.657L315.549 264.044C319.757 262.678 325.569 260.728 331.946 258.579C338.323 256.429 344.153 254.516 348.389 253.24C350.511 252.594 352.224 252.102 353.426 251.774L354.802 251.418C354.962 251.368 355.127 251.334 355.294 251.318Z" fill="#263238"/>
<path d="M336.31 30.3477L331.619 32.0239L329.605 25.8932C325.907 14.5882 314.119 8.58501 303.288 12.4019C292.457 16.2188 286.69 28.6169 290.389 39.9219L292.402 46.0526L287.692 47.7378C285.896 48.4344 284.438 49.7962 283.62 51.5403C282.803 53.2843 282.688 55.2764 283.302 57.1025L296.355 96.9932C296.626 97.8971 297.076 98.7374 297.678 99.464C298.281 100.191 299.023 100.789 299.861 101.223C300.698 101.657 301.615 101.919 302.556 101.992C303.497 102.065 304.443 101.948 305.338 101.648L353.955 84.258C355.775 83.5627 357.254 82.1888 358.081 80.4253C358.909 78.6618 359.02 76.6461 358.392 74.8023L345.328 34.9116C345.05 34.0102 344.594 33.174 343.985 32.4529C343.377 31.7319 342.63 31.1407 341.788 30.7148C340.947 30.2888 340.028 30.0368 339.086 29.9738C338.145 29.9107 337.201 30.0379 336.31 30.3477ZM299.252 36.7244C298.255 33.7849 298.434 30.5736 299.752 27.7632C301.07 24.9528 303.424 22.7614 306.321 21.6481C307.752 21.1586 309.267 20.9623 310.775 21.0709C312.283 21.1795 313.754 21.5909 315.1 22.2804C316.446 22.9699 317.639 23.9234 318.608 25.0841C319.578 26.2447 320.303 27.5888 320.742 29.0359L322.746 35.1667L301.256 42.8551L299.252 36.7244ZM326.581 72.1241L329.915 82.3086C329.976 82.5128 329.957 82.7327 329.86 82.9227C329.763 83.1127 329.597 83.2582 329.396 83.3288L324.723 84.9959C324.537 85.0475 324.338 85.025 324.168 84.9333C323.998 84.8416 323.871 84.6878 323.812 84.504L320.45 74.365C318.597 74.2641 316.818 73.5993 315.353 72.4596C313.888 71.32 312.806 69.76 312.252 67.9884C311.459 65.6462 311.604 63.0884 312.655 60.8504C313.706 58.6125 315.582 56.8679 317.89 55.982C319.03 55.5926 320.237 55.4366 321.438 55.5234C322.639 55.6101 323.811 55.9379 324.883 56.487C325.955 57.0362 326.905 57.7955 327.677 58.7197C328.449 59.644 329.028 60.7143 329.378 61.8667C329.964 63.6664 330.012 65.5979 329.517 67.4246C329.022 69.2514 328.005 70.8941 326.59 72.1514L326.581 72.1241Z" fill="#C50B44"/>
<path d="M331.409 31.9144C331.409 32.0419 322.71 35.3122 311.887 39.202C301.065 43.0918 292.238 46.2164 292.193 46.1253C292.147 46.0342 300.892 42.7365 311.723 38.8376C322.555 34.9387 331.364 31.7959 331.409 31.9144Z" fill="#263238"/>
<path d="M341.74 33.5907C341.78 33.6698 341.813 33.752 341.84 33.8367C341.913 34.0188 341.995 34.2557 342.104 34.5472C342.341 35.2122 342.669 36.1323 343.079 37.2801L346.577 47.4645C348.034 51.7825 349.774 56.902 351.705 62.5864C352.616 65.4377 353.691 68.4074 354.693 71.532C355.23 73.1421 355.461 74.8381 355.377 76.5331C355.299 77.4146 355.049 78.2722 354.639 79.0564C354.201 79.8381 353.616 80.5279 352.917 81.0879C351.51 82.1152 349.947 82.9117 348.289 83.4472L343.598 85.1325L334.716 88.3117L319.676 93.6682L309.519 97.2391L306.786 98.15L306.057 98.3869C305.98 98.4215 305.896 98.4431 305.812 98.4507C305.812 98.4507 305.884 98.4507 306.039 98.3414L306.75 98.0589L309.483 97.0296L319.585 93.3129L334.598 87.8472L343.461 84.6406L348.153 82.9462C349.764 82.4324 351.28 81.6602 352.644 80.6597C353.294 80.1401 353.839 79.4998 354.247 78.774C354.633 78.0487 354.865 77.2518 354.93 76.4329C355.014 74.7997 354.792 73.1653 354.274 71.6139C353.29 68.5167 352.252 65.5197 351.314 62.6684C349.419 56.9749 347.67 51.8371 346.285 47.5192C344.901 43.2013 343.735 39.7305 342.933 37.2892C342.55 36.0958 342.259 35.1667 342.022 34.4925L341.803 33.7638C341.776 33.7086 341.754 33.6505 341.74 33.5907Z" fill="#263238"/>
<path d="M316.087 21.0286C316.087 21.0286 315.604 20.7918 314.711 20.4274C313.438 19.9385 312.093 19.6675 310.73 19.6258C308.71 19.5565 306.701 19.9361 304.845 20.7371C302.589 21.7346 300.66 23.348 299.279 25.3921C297.889 27.4304 297.144 29.8391 297.139 32.3063C297.158 34.3283 297.464 36.3374 298.05 38.273C298.523 39.9309 299.015 41.2518 299.343 42.1719C299.537 42.6392 299.695 43.1203 299.817 43.6112C299.558 43.1743 299.342 42.7137 299.17 42.2357C298.797 41.3247 298.259 40.0311 297.731 38.3641C297.082 36.4082 296.729 34.3664 296.683 32.3063C296.659 29.7459 297.422 27.24 298.869 25.1279C300.298 23.0091 302.306 21.3459 304.654 20.3363C306.567 19.5309 308.64 19.1756 310.712 19.2978C312.104 19.3688 313.472 19.6929 314.747 20.2543C315.089 20.4117 315.417 20.5944 315.731 20.8009C315.861 20.8578 315.981 20.9347 316.087 21.0286Z" fill="#263238"/>
<path d="M316.506 56.6743C316.651 56.5862 316.804 56.5101 316.961 56.4466C317.417 56.2408 317.89 56.0733 318.373 55.9456C319.141 55.719 319.933 55.5844 320.733 55.5448C321.82 55.4863 322.908 55.6506 323.93 56.0276C326.262 56.8474 328.403 59.225 329.46 62.4043C329.966 64.1104 329.966 65.927 329.46 67.6331C328.898 69.4849 327.891 71.1707 326.526 72.5432L326.581 72.2972C327.793 75.6222 329.114 79.2296 330.48 82.9918L330.562 83.2196L330.334 83.3015L328.248 83.9939L323.693 85.5152L323.466 85.588L323.393 85.3603C322.145 81.589 320.778 78.0727 319.749 74.6201L319.949 74.775C318.168 74.6271 316.47 73.9586 315.067 72.8529C313.797 71.8747 312.755 70.6312 312.015 69.2091C311.347 67.948 311.015 66.5364 311.049 65.1098C311.091 63.6518 311.456 62.2211 312.115 60.9202C312.775 59.6194 313.715 58.4806 314.866 57.5853C315.34 57.2005 315.872 56.8931 316.442 56.6743C315.928 56.9797 315.429 57.3111 314.948 57.6673C313.683 58.7375 312.714 60.1145 312.133 61.6664C311.635 62.8366 311.402 64.1027 311.451 65.3737C311.5 66.6448 311.829 67.8892 312.416 69.0178C313.144 70.3858 314.16 71.5794 315.395 72.5158C316.734 73.5669 318.353 74.2005 320.05 74.3378H320.204L320.25 74.4744C321.252 77.8632 322.628 81.4068 323.894 85.1963L323.593 85.0506L328.148 83.5293L330.225 82.8279L330.079 83.1376C328.722 79.3753 327.41 75.7588 326.208 72.4339V72.2972L326.317 72.1879C327.641 70.8724 328.629 69.2568 329.196 67.4783C329.679 65.8462 329.679 64.1092 329.196 62.4771C328.203 59.4163 326.153 57.0934 323.93 56.2735C322.946 55.8941 321.896 55.7175 320.842 55.7543C320.055 55.7723 319.273 55.8793 318.51 56.0731C317.153 56.4102 316.515 56.7199 316.506 56.6743Z" fill="#263238"/>
<path d="M288.347 319.704L197.352 319.284C192.097 319.256 187.069 317.142 183.371 313.408C179.673 309.675 177.608 304.626 177.63 299.371L178.596 71.2589C178.606 68.6554 179.13 66.0796 180.137 63.6787C181.144 61.2777 182.614 59.0987 184.463 57.2663C186.313 55.4338 188.505 53.9838 190.915 52.9991C193.325 52.0144 195.906 51.5144 198.509 51.5276L289.495 51.9466C294.75 51.9732 299.78 54.0842 303.479 57.8163C307.179 61.5483 309.246 66.5961 309.227 71.851L308.261 299.954C308.25 302.558 307.727 305.135 306.72 307.537C305.713 309.939 304.244 312.119 302.394 313.953C300.545 315.787 298.353 317.239 295.943 318.225C293.533 319.212 290.952 319.714 288.347 319.704Z" fill="#C50B44"/>
<path d="M289.358 59.7899H271.722C271.147 59.8006 270.579 59.9245 270.052 60.1547C269.524 60.3848 269.047 60.7166 268.648 61.1311C268.248 61.5456 267.935 62.0347 267.725 62.5705C267.514 63.1062 267.412 63.6782 267.423 64.2536V67.4511C267.433 68.0261 267.331 68.5976 267.12 69.1328C266.91 69.6681 266.596 70.1566 266.197 70.5704C265.797 70.9842 265.32 71.3151 264.793 71.5442C264.265 71.7733 263.698 71.8962 263.123 71.9056L228.743 71.7508C227.58 71.7198 226.477 71.2284 225.676 70.3847C224.875 69.5409 224.442 68.4137 224.471 67.2507V64.0532C224.5 62.8917 224.068 61.7658 223.269 60.9223C222.47 60.0788 221.369 59.5865 220.208 59.5531H214.004L198.564 59.4802C194.891 59.4584 191.359 60.8927 188.742 63.4691C186.125 66.0455 184.635 69.554 184.599 73.2265L183.688 295.882C183.679 297.704 184.03 299.51 184.719 301.196C185.409 302.883 186.424 304.417 187.706 305.711C188.988 307.005 190.513 308.034 192.193 308.739C193.873 309.444 195.676 309.811 197.498 309.82L288.302 310.239C290.125 310.247 291.932 309.896 293.619 309.206C295.307 308.516 296.842 307.501 298.137 306.218C299.432 304.934 300.462 303.409 301.167 301.727C301.873 300.046 302.24 298.243 302.248 296.42L303.159 73.764C303.181 70.0811 301.74 66.5403 299.152 63.9199C296.564 61.2995 293.041 59.814 289.358 59.7899Z" fill="#E698B0"/>
<path d="M277.142 280.533L209.622 280.241C208.921 280.241 208.356 279.476 208.365 278.547L208.438 260.883C208.438 259.972 209.012 259.189 209.714 259.189L277.234 259.499C277.622 259.566 277.97 259.781 278.204 260.098C278.438 260.415 278.541 260.811 278.491 261.202L278.427 278.847C278.427 279.786 277.844 280.542 277.142 280.533Z" fill="#C50B44"/>
<path d="M230.447 272.486C230.025 272.486 229.618 272.418 229.228 272.282C228.843 272.141 228.545 271.962 228.333 271.746L228.569 271.282C228.77 271.477 229.038 271.643 229.374 271.778C229.716 271.908 230.073 271.973 230.447 271.973C230.805 271.973 231.095 271.93 231.318 271.843C231.545 271.751 231.711 271.629 231.814 271.477C231.922 271.325 231.976 271.157 231.976 270.973C231.976 270.751 231.911 270.572 231.781 270.436C231.656 270.301 231.491 270.195 231.285 270.119C231.079 270.038 230.851 269.968 230.602 269.908C230.353 269.848 230.103 269.786 229.854 269.721C229.605 269.65 229.374 269.558 229.163 269.444C228.957 269.331 228.789 269.182 228.659 268.997C228.534 268.808 228.472 268.561 228.472 268.257C228.472 267.975 228.545 267.718 228.691 267.485C228.843 267.246 229.073 267.057 229.382 266.916C229.691 266.769 230.087 266.696 230.569 266.696C230.889 266.696 231.206 266.742 231.521 266.834C231.835 266.921 232.106 267.043 232.334 267.2L232.131 267.68C231.887 267.517 231.627 267.398 231.35 267.322C231.079 267.246 230.816 267.208 230.561 267.208C230.22 267.208 229.938 267.254 229.716 267.347C229.493 267.439 229.328 267.563 229.22 267.721C229.117 267.872 229.065 268.046 229.065 268.241C229.065 268.463 229.127 268.642 229.252 268.778C229.382 268.913 229.55 269.019 229.756 269.095C229.968 269.171 230.198 269.238 230.447 269.298C230.697 269.358 230.943 269.423 231.187 269.493C231.437 269.564 231.664 269.656 231.87 269.77C232.082 269.878 232.25 270.024 232.375 270.209C232.505 270.393 232.57 270.634 232.57 270.932C232.57 271.209 232.494 271.466 232.342 271.705C232.19 271.938 231.957 272.128 231.643 272.274C231.334 272.415 230.935 272.486 230.447 272.486ZM233.881 272.437V266.745H234.483V272.437H233.881ZM236.334 272.437V266.745H236.83L240.758 271.689H240.498V266.745H241.091V272.437H240.595L236.676 267.493H236.936V272.437H236.334ZM245.445 272.486C245.012 272.486 244.611 272.415 244.242 272.274C243.879 272.128 243.562 271.924 243.291 271.664C243.025 271.404 242.816 271.098 242.664 270.745C242.518 270.393 242.445 270.008 242.445 269.591C242.445 269.173 242.518 268.789 242.664 268.436C242.816 268.084 243.028 267.778 243.299 267.517C243.57 267.257 243.887 267.057 244.25 266.916C244.619 266.769 245.02 266.696 245.454 266.696C245.887 266.696 246.283 266.764 246.641 266.899C247.004 267.035 247.313 267.241 247.568 267.517L247.194 267.9C246.955 267.661 246.692 267.49 246.405 267.387C246.118 267.284 245.809 267.233 245.478 267.233C245.126 267.233 244.8 267.292 244.502 267.412C244.209 267.525 243.952 267.691 243.73 267.908C243.513 268.119 243.342 268.368 243.217 268.656C243.098 268.938 243.039 269.249 243.039 269.591C243.039 269.927 243.098 270.239 243.217 270.526C243.342 270.813 243.513 271.065 243.73 271.282C243.952 271.494 244.209 271.659 244.502 271.778C244.8 271.892 245.123 271.949 245.47 271.949C245.795 271.949 246.101 271.9 246.389 271.803C246.681 271.705 246.95 271.54 247.194 271.307L247.535 271.762C247.264 272 246.947 272.182 246.584 272.307C246.221 272.426 245.841 272.486 245.445 272.486ZM246.958 271.689V269.591H247.535V271.762L246.958 271.689ZM253.659 272.486C252.933 272.486 252.361 272.277 251.944 271.859C251.526 271.442 251.317 270.824 251.317 270.006V266.745H251.919V269.981C251.919 270.653 252.071 271.149 252.375 271.469C252.678 271.789 253.106 271.949 253.659 271.949C254.218 271.949 254.649 271.789 254.952 271.469C255.256 271.149 255.407 270.653 255.407 269.981V266.745H255.993V270.006C255.993 270.824 255.784 271.442 255.367 271.859C254.955 272.277 254.386 272.486 253.659 272.486ZM257.806 272.437V266.745H259.937C260.419 266.745 260.834 266.823 261.181 266.981C261.528 267.132 261.793 267.355 261.977 267.647C262.167 267.935 262.262 268.284 262.262 268.696C262.262 269.098 262.167 269.444 261.977 269.737C261.793 270.024 261.528 270.247 261.181 270.404C260.834 270.561 260.419 270.64 259.937 270.64H258.14L258.408 270.355V272.437H257.806ZM258.408 270.404L258.14 270.111H259.92C260.489 270.111 260.92 269.989 261.213 269.745C261.511 269.496 261.66 269.146 261.66 268.696C261.66 268.241 261.511 267.889 261.213 267.639C260.92 267.39 260.489 267.265 259.92 267.265H258.14L258.408 266.981V270.404Z" fill="white"/>
<path d="M223.091 125.242L199.661 125.136L199.642 129.436L223.071 129.542L223.091 125.242Z" fill="#C50B44"/>
<path opacity="0.1" d="M223.091 125.242L199.661 125.136L199.642 129.436L223.071 129.542L223.091 125.242Z" fill="black"/>
<path d="M291.773 151.642C291.957 151.623 292.138 151.58 292.311 151.514C292.563 151.416 292.782 151.248 292.943 151.03C293.104 150.813 293.201 150.554 293.222 150.284C293.222 148.836 293.222 146.723 293.222 144.008C293.222 142.651 293.222 141.129 293.222 139.453C293.222 139.043 293.222 138.615 293.222 138.187C293.281 137.771 293.19 137.348 292.966 136.994C292.841 136.823 292.678 136.685 292.49 136.588C292.302 136.492 292.094 136.44 291.882 136.438H290.461H277.298L201.106 136.155C200.911 136.152 200.718 136.196 200.543 136.283C200.369 136.37 200.218 136.498 200.104 136.656C199.884 137.013 199.8 137.436 199.867 137.85C199.867 138.761 199.867 139.672 199.867 140.583C199.867 142.405 199.867 144.226 199.867 146.048C199.867 146.959 199.867 147.87 199.867 148.781C199.829 149.206 199.829 149.632 199.867 150.057C199.915 150.238 200.004 150.407 200.127 150.549C200.25 150.691 200.404 150.803 200.577 150.876C200.757 150.948 200.949 150.982 201.142 150.977H205.779L226.011 151.086L260.263 151.295L283.356 151.478L289.632 151.551H291.263C291.636 151.551 291.819 151.551 291.819 151.551H291.263H289.632H283.356H260.263L226.011 151.441L205.779 151.359H201.142C200.887 151.37 200.633 151.326 200.395 151.232C200.155 151.129 199.942 150.974 199.772 150.776C199.601 150.579 199.478 150.345 199.411 150.093C199.359 149.854 199.34 149.609 199.357 149.364V148.69C199.357 147.779 199.357 146.868 199.357 145.957C199.357 144.135 199.357 142.313 199.357 140.492C199.357 139.581 199.357 138.67 199.357 137.759C199.339 137.516 199.339 137.273 199.357 137.03C199.391 136.762 199.495 136.508 199.657 136.292C199.815 136.072 200.023 135.894 200.264 135.771C200.505 135.649 200.772 135.587 201.042 135.591L277.234 136.01L290.398 136.101H291.819C292.069 136.101 292.316 136.162 292.538 136.277C292.76 136.393 292.951 136.561 293.094 136.766C293.351 137.162 293.454 137.638 293.386 138.105C293.386 138.533 293.386 138.961 293.386 139.371C293.386 141.029 293.386 142.55 293.386 143.926C293.386 146.659 293.322 148.754 293.304 150.211C293.281 150.492 293.179 150.76 293.01 150.984C292.84 151.208 292.611 151.38 292.347 151.478C292.175 151.585 291.976 151.641 291.773 151.642Z" fill="white"/>
<path d="M249.55 140.728H206.698V144.746H249.55V140.728Z" fill="#C50B44"/>
<path opacity="0.2" d="M249.55 140.728H206.698V144.746H249.55V140.728Z" fill="#E698B0"/>
<path d="M222.93 164.467L199.501 164.36L199.481 168.66L222.911 168.766L222.93 164.467Z" fill="#C50B44"/>
<path opacity="0.1" d="M222.93 164.467L199.501 164.36L199.481 168.66L222.911 168.766L222.93 164.467Z" fill="black"/>
<path d="M291.181 190.867C291.365 190.845 291.547 190.811 291.727 190.767C291.982 190.686 292.216 190.551 292.414 190.372C292.612 190.193 292.769 189.974 292.875 189.728C293.019 189.361 293.075 188.965 293.039 188.572C293.039 188.134 293.039 187.661 293.039 187.132C293.039 186.076 293.039 184.873 293.039 183.488V177.704C293.083 177.285 292.99 176.863 292.775 176.501C292.55 176.13 292.197 175.855 291.782 175.727C291.328 175.646 290.866 175.622 290.407 175.654H277.298L201.37 175.372C200.962 175.373 200.567 175.522 200.261 175.792C199.954 176.062 199.756 176.433 199.703 176.838C199.703 177.704 199.703 178.66 199.703 179.571C199.703 181.393 199.703 183.215 199.703 185.037C199.703 185.948 199.703 186.859 199.703 187.77C199.669 188.196 199.687 188.624 199.758 189.045C199.871 189.415 200.105 189.735 200.423 189.956C200.759 190.17 201.154 190.272 201.552 190.248H202.818H205.451L225.61 190.348L259.744 190.557L282.755 190.74L289.013 190.812H282.755H259.744L225.592 190.776L205.433 190.703H201.47C200.977 190.732 200.488 190.601 200.076 190.33C199.662 190.043 199.359 189.621 199.22 189.136C199.138 188.673 199.114 188.202 199.147 187.733C199.147 186.823 199.147 185.912 199.147 185.001C199.147 183.179 199.147 181.357 199.147 179.535C199.147 178.624 199.147 177.713 199.147 176.802C199.214 176.281 199.468 175.802 199.862 175.455C200.256 175.108 200.763 174.917 201.288 174.916L277.216 175.335L290.325 175.436C290.813 175.406 291.303 175.439 291.782 175.536C292.255 175.69 292.655 176.015 292.903 176.447C293.138 176.848 293.24 177.314 293.194 177.777C293.194 178.205 293.194 178.624 293.194 179.043C293.194 180.692 293.194 182.204 293.194 183.598C293.194 184.991 293.194 186.167 293.194 187.242C293.194 187.761 293.194 188.244 293.194 188.69C293.227 189.097 293.162 189.507 293.003 189.883C292.885 190.135 292.714 190.358 292.501 190.537C292.289 190.716 292.041 190.847 291.773 190.922C291.574 190.938 291.374 190.92 291.181 190.867Z" fill="white"/>
<path d="M222.754 205.395L199.324 205.288L199.305 209.588L222.734 209.694L222.754 205.395Z" fill="#C50B44"/>
<path opacity="0.1" d="M222.754 205.395L199.324 205.288L199.305 209.588L222.734 209.694L222.754 205.395Z" fill="black"/>
<path d="M290.998 231.778C291.182 231.757 291.365 231.723 291.545 231.678C291.798 231.598 292.032 231.464 292.229 231.287C292.427 231.109 292.585 230.892 292.693 230.649C292.836 230.281 292.892 229.885 292.857 229.492C292.857 229.046 292.857 228.581 292.857 228.043C292.857 226.996 292.857 225.784 292.857 224.4V218.615C292.9 218.196 292.808 217.775 292.593 217.413C292.362 217.048 292.011 216.777 291.6 216.647C291.146 216.563 290.684 216.536 290.224 216.565H277.115L201.187 216.283C200.779 216.284 200.385 216.433 200.078 216.703C199.772 216.973 199.573 217.345 199.52 217.75C199.52 218.661 199.52 219.572 199.52 220.483C199.52 222.304 199.52 224.126 199.52 225.948C199.52 226.859 199.52 227.77 199.52 228.681C199.486 229.104 199.505 229.529 199.575 229.947C199.684 230.319 199.919 230.641 200.24 230.858C200.574 231.077 200.971 231.179 201.37 231.15H205.332L225.492 231.259L259.625 231.469L282.636 231.651L288.894 231.724H282.636H259.625L225.492 231.624L205.332 231.542H201.37C200.876 231.575 200.386 231.443 199.976 231.168C199.561 230.881 199.259 230.459 199.119 229.975C199.038 229.512 199.013 229.041 199.047 228.572C199.047 227.661 199.047 226.75 199.047 225.839C199.047 224.017 199.047 222.195 199.047 220.373C199.047 219.462 199.047 218.551 199.047 217.595C199.111 217.075 199.363 216.596 199.756 216.249C200.148 215.902 200.654 215.71 201.178 215.709L277.106 216.128L290.215 216.228C290.703 216.198 291.193 216.232 291.672 216.329C292.146 216.483 292.545 216.808 292.793 217.24C293.029 217.641 293.131 218.106 293.084 218.57C293.084 218.998 293.084 219.426 293.084 219.836C293.084 221.485 293.084 222.997 293.084 224.391C293.084 225.784 293.084 226.959 293.084 228.034C293.084 228.554 293.084 229.036 293.084 229.483C293.119 229.89 293.054 230.3 292.893 230.676C292.775 230.927 292.604 231.15 292.392 231.33C292.179 231.509 291.931 231.64 291.663 231.715C291.45 231.788 291.222 231.81 290.998 231.778Z" fill="white"/>
<path d="M248.635 181.09L205.784 180.895L205.766 184.913L248.617 185.107L248.635 181.09Z" fill="#C50B44"/>
<path opacity="0.2" d="M248.635 181.09L205.784 180.895L205.766 184.913L248.617 185.107L248.635 181.09Z" fill="#E698B0"/>
<path d="M209.659 224.345C209.632 224.711 209.498 225.062 209.274 225.353C209.05 225.644 208.745 225.863 208.398 225.982C208.05 226.102 207.676 226.116 207.32 226.025C206.964 225.933 206.643 225.739 206.396 225.467C206.15 225.194 205.989 224.855 205.933 224.492C205.877 224.129 205.929 223.758 206.083 223.424C206.236 223.09 206.484 222.808 206.796 222.614C207.108 222.42 207.47 222.322 207.837 222.332C208.345 222.36 208.821 222.587 209.162 222.964C209.503 223.341 209.682 223.837 209.659 224.345Z" fill="#C50B44"/>
<path d="M215.461 224.372C215.479 224.629 215.444 224.887 215.358 225.129C215.272 225.372 215.137 225.594 214.962 225.783C214.786 225.971 214.574 226.121 214.338 226.224C214.102 226.326 213.847 226.379 213.589 226.379C213.332 226.379 213.077 226.326 212.841 226.224C212.605 226.121 212.393 225.971 212.217 225.783C212.042 225.594 211.907 225.372 211.821 225.129C211.735 224.887 211.7 224.629 211.717 224.372C211.7 224.115 211.735 223.857 211.821 223.615C211.907 223.372 212.042 223.15 212.217 222.961C212.393 222.773 212.605 222.623 212.841 222.52C213.077 222.418 213.332 222.365 213.589 222.365C213.847 222.365 214.102 222.418 214.338 222.52C214.574 222.623 214.786 222.773 214.962 222.961C215.137 223.15 215.272 223.372 215.358 223.615C215.444 223.857 215.479 224.115 215.461 224.372Z" fill="#C50B44"/>
<path d="M221.273 224.4C221.247 224.766 221.113 225.116 220.889 225.407C220.664 225.699 220.36 225.917 220.012 226.037C219.665 226.156 219.29 226.171 218.934 226.079C218.578 225.988 218.257 225.794 218.011 225.521C217.764 225.249 217.603 224.91 217.547 224.547C217.491 224.184 217.543 223.812 217.697 223.478C217.85 223.145 218.098 222.863 218.41 222.669C218.722 222.475 219.084 222.377 219.452 222.386C219.958 222.417 220.433 222.645 220.773 223.021C221.114 223.397 221.293 223.892 221.273 224.4Z" fill="#C50B44"/>
<path d="M227.076 224.427C227.049 224.793 226.915 225.144 226.691 225.435C226.467 225.726 226.162 225.944 225.815 226.064C225.467 226.183 225.093 226.198 224.737 226.107C224.381 226.015 224.06 225.821 223.813 225.549C223.567 225.276 223.406 224.937 223.35 224.574C223.294 224.211 223.346 223.839 223.5 223.506C223.653 223.172 223.901 222.89 224.213 222.696C224.525 222.502 224.887 222.404 225.254 222.413C225.761 222.444 226.235 222.672 226.576 223.048C226.917 223.425 227.096 223.919 227.076 224.427Z" fill="#C50B44"/>
<path d="M232.88 224.445C232.854 224.812 232.722 225.164 232.499 225.456C232.276 225.748 231.971 225.969 231.624 226.089C231.276 226.21 230.901 226.226 230.545 226.136C230.188 226.045 229.866 225.851 229.619 225.579C229.371 225.307 229.209 224.968 229.153 224.605C229.097 224.241 229.148 223.869 229.302 223.535C229.455 223.2 229.703 222.919 230.015 222.724C230.328 222.53 230.69 222.431 231.058 222.441C231.563 222.472 232.036 222.698 232.376 223.073C232.717 223.447 232.897 223.939 232.88 224.445Z" fill="#C50B44"/>
<path d="M238.691 224.472C238.666 224.838 238.535 225.187 238.314 225.479C238.093 225.77 237.791 225.991 237.447 226.113C237.102 226.236 236.729 226.255 236.373 226.168C236.018 226.081 235.696 225.892 235.446 225.624C235.197 225.357 235.031 225.022 234.969 224.661C234.908 224.3 234.953 223.93 235.099 223.594C235.246 223.259 235.487 222.974 235.793 222.774C236.1 222.574 236.458 222.467 236.824 222.468C237.337 222.487 237.821 222.709 238.171 223.085C238.522 223.46 238.708 223.959 238.691 224.472Z" fill="#C50B44"/>
<path d="M244.494 224.5C244.512 224.756 244.477 225.014 244.391 225.257C244.305 225.5 244.17 225.722 243.994 225.91C243.818 226.098 243.606 226.249 243.37 226.351C243.134 226.454 242.879 226.507 242.622 226.507C242.364 226.507 242.11 226.454 241.873 226.351C241.637 226.249 241.425 226.098 241.249 225.91C241.074 225.722 240.939 225.5 240.853 225.257C240.767 225.014 240.732 224.756 240.75 224.5C240.732 224.243 240.767 223.985 240.853 223.742C240.939 223.5 241.074 223.277 241.249 223.089C241.425 222.901 241.637 222.751 241.873 222.648C242.11 222.545 242.364 222.492 242.622 222.492C242.879 222.492 243.134 222.545 243.37 222.648C243.606 222.751 243.818 222.901 243.994 223.089C244.17 223.277 244.305 223.5 244.391 223.742C244.477 223.985 244.512 224.243 244.494 224.5Z" fill="#C50B44"/>
<path d="M250.297 224.527C250.272 224.892 250.141 225.242 249.92 225.534C249.698 225.825 249.397 226.046 249.052 226.168C248.707 226.291 248.334 226.309 247.979 226.222C247.623 226.136 247.301 225.947 247.051 225.679C246.802 225.411 246.636 225.076 246.575 224.716C246.513 224.355 246.558 223.984 246.705 223.649C246.851 223.313 247.092 223.028 247.399 222.828C247.705 222.628 248.063 222.522 248.429 222.523C248.942 222.542 249.427 222.764 249.777 223.139C250.127 223.515 250.314 224.014 250.297 224.527Z" fill="#C50B44"/>
<path d="M256.099 224.555C256.074 224.921 255.942 225.273 255.719 225.565C255.495 225.858 255.191 226.078 254.844 226.199C254.496 226.32 254.121 226.336 253.764 226.245C253.408 226.154 253.086 225.961 252.839 225.689C252.591 225.416 252.429 225.078 252.373 224.714C252.316 224.351 252.368 223.979 252.521 223.644C252.675 223.31 252.923 223.028 253.235 222.833C253.547 222.639 253.91 222.541 254.277 222.55C254.782 222.581 255.256 222.808 255.596 223.182C255.936 223.556 256.117 224.049 256.099 224.555Z" fill="#C50B44"/>
<g opacity="0.2">
<path d="M209.659 224.345C209.632 224.711 209.498 225.062 209.274 225.353C209.05 225.644 208.745 225.863 208.398 225.982C208.05 226.102 207.676 226.116 207.32 226.025C206.964 225.933 206.643 225.739 206.396 225.467C206.15 225.194 205.989 224.855 205.933 224.492C205.877 224.129 205.929 223.758 206.083 223.424C206.236 223.09 206.484 222.808 206.796 222.614C207.108 222.42 207.47 222.322 207.837 222.332C208.345 222.36 208.821 222.587 209.162 222.964C209.503 223.341 209.682 223.837 209.659 224.345Z" fill="#E698B0"/>
<path d="M215.462 224.372C215.48 224.629 215.445 224.886 215.359 225.129C215.273 225.372 215.138 225.594 214.963 225.782C214.787 225.971 214.575 226.121 214.339 226.223C214.103 226.326 213.848 226.379 213.59 226.379C213.333 226.379 213.078 226.326 212.842 226.223C212.606 226.121 212.394 225.971 212.218 225.782C212.042 225.594 211.908 225.372 211.822 225.129C211.736 224.886 211.7 224.629 211.718 224.372C211.7 224.115 211.736 223.857 211.822 223.615C211.908 223.372 212.042 223.15 212.218 222.961C212.394 222.773 212.606 222.623 212.842 222.52C213.078 222.418 213.333 222.365 213.59 222.365C213.848 222.365 214.103 222.418 214.339 222.52C214.575 222.623 214.787 222.773 214.963 222.961C215.138 223.15 215.273 223.372 215.359 223.615C215.445 223.857 215.48 224.115 215.462 224.372Z" fill="#E698B0"/>
<path d="M221.273 224.399C221.247 224.766 221.113 225.116 220.889 225.407C220.664 225.698 220.36 225.917 220.012 226.037C219.665 226.156 219.29 226.171 218.934 226.079C218.578 225.988 218.257 225.794 218.011 225.521C217.764 225.249 217.603 224.91 217.547 224.547C217.491 224.184 217.543 223.812 217.697 223.478C217.85 223.144 218.098 222.863 218.41 222.669C218.722 222.475 219.084 222.376 219.452 222.386C219.958 222.417 220.433 222.645 220.773 223.021C221.114 223.397 221.293 223.892 221.273 224.399Z" fill="#E698B0"/>
<path d="M227.076 224.426C227.049 224.793 226.915 225.143 226.691 225.434C226.467 225.725 226.162 225.944 225.815 226.064C225.467 226.183 225.093 226.198 224.737 226.106C224.381 226.015 224.06 225.821 223.813 225.548C223.567 225.276 223.406 224.937 223.35 224.574C223.294 224.211 223.346 223.839 223.5 223.505C223.653 223.172 223.901 222.89 224.213 222.696C224.525 222.502 224.887 222.404 225.254 222.413C225.761 222.444 226.235 222.672 226.576 223.048C226.917 223.424 227.096 223.919 227.076 224.426Z" fill="#E698B0"/>
<path d="M232.88 224.445C232.854 224.812 232.722 225.163 232.499 225.456C232.276 225.748 231.971 225.968 231.624 226.089C231.276 226.21 230.901 226.226 230.545 226.135C230.188 226.045 229.866 225.851 229.619 225.579C229.371 225.307 229.209 224.968 229.153 224.605C229.097 224.241 229.148 223.869 229.302 223.535C229.455 223.2 229.703 222.918 230.015 222.724C230.328 222.529 230.69 222.431 231.058 222.441C231.563 222.471 232.036 222.698 232.376 223.072C232.717 223.447 232.897 223.939 232.88 224.445Z" fill="#E698B0"/>
<path d="M238.691 224.472C238.666 224.837 238.535 225.187 238.314 225.479C238.093 225.77 237.791 225.991 237.447 226.113C237.102 226.236 236.729 226.255 236.373 226.168C236.018 226.081 235.696 225.892 235.446 225.624C235.197 225.356 235.031 225.022 234.969 224.661C234.908 224.3 234.953 223.929 235.099 223.594C235.246 223.259 235.487 222.973 235.793 222.773C236.1 222.573 236.458 222.467 236.824 222.468C237.337 222.487 237.821 222.709 238.171 223.084C238.522 223.46 238.708 223.959 238.691 224.472Z" fill="#E698B0"/>
<path d="M244.495 224.499C244.513 224.756 244.477 225.014 244.392 225.257C244.306 225.499 244.171 225.722 243.995 225.91C243.819 226.098 243.607 226.248 243.371 226.351C243.135 226.454 242.88 226.507 242.623 226.507C242.365 226.507 242.111 226.454 241.874 226.351C241.638 226.248 241.426 226.098 241.25 225.91C241.075 225.722 240.94 225.499 240.854 225.257C240.768 225.014 240.733 224.756 240.751 224.499C240.733 224.243 240.768 223.985 240.854 223.742C240.94 223.499 241.075 223.277 241.25 223.089C241.426 222.901 241.638 222.75 241.874 222.648C242.111 222.545 242.365 222.492 242.623 222.492C242.88 222.492 243.135 222.545 243.371 222.648C243.607 222.75 243.819 222.901 243.995 223.089C244.171 223.277 244.306 223.499 244.392 223.742C244.477 223.985 244.513 224.243 244.495 224.499Z" fill="#E698B0"/>
<path d="M250.297 224.527C250.272 224.892 250.141 225.242 249.92 225.533C249.698 225.825 249.397 226.046 249.052 226.168C248.707 226.29 248.334 226.309 247.979 226.222C247.623 226.135 247.301 225.946 247.051 225.679C246.802 225.411 246.636 225.076 246.575 224.716C246.513 224.355 246.558 223.984 246.705 223.649C246.851 223.313 247.092 223.028 247.399 222.828C247.705 222.628 248.063 222.522 248.429 222.523C248.942 222.542 249.427 222.763 249.777 223.139C250.127 223.515 250.314 224.014 250.297 224.527Z" fill="#E698B0"/>
<path d="M256.099 224.554C256.074 224.921 255.942 225.273 255.719 225.565C255.495 225.857 255.191 226.078 254.844 226.199C254.496 226.319 254.121 226.335 253.764 226.245C253.408 226.154 253.086 225.961 252.839 225.688C252.591 225.416 252.429 225.077 252.373 224.714C252.316 224.35 252.368 223.978 252.521 223.644C252.675 223.31 252.923 223.028 253.235 222.833C253.547 222.639 253.91 222.54 254.277 222.55C254.782 222.581 255.256 222.807 255.596 223.182C255.936 223.556 256.117 224.049 256.099 224.554Z" fill="#E698B0"/>
</g>
<path d="M247.855 93.049C248.488 92.7704 249.025 92.3117 249.399 91.7303C249.773 91.1488 249.968 90.4701 249.96 89.7787C249.983 89.3292 249.915 88.8797 249.759 88.4574C249.603 88.0352 249.363 87.649 249.054 87.3225C248.744 86.9961 248.371 86.7361 247.957 86.5584C247.544 86.3807 247.098 86.2891 246.648 86.2891C246.198 86.2891 245.753 86.3807 245.339 86.5584C244.926 86.7361 244.553 86.9961 244.243 87.3225C243.933 87.649 243.693 88.0352 243.537 88.4574C243.381 88.8797 243.313 89.3292 243.337 89.7787C243.323 90.477 243.516 91.1638 243.893 91.7524C244.269 92.3409 244.811 92.8048 245.45 93.0855C240.349 93.8507 240.577 99.3893 240.577 99.3893L252.638 99.4439C252.638 99.4439 252.92 93.8051 247.855 93.049Z" fill="#C50B44"/>
<path opacity="0.1" d="M247.855 93.049C248.488 92.7704 249.025 92.3117 249.399 91.7303C249.773 91.1488 249.968 90.4701 249.96 89.7787C249.983 89.3292 249.915 88.8797 249.759 88.4574C249.603 88.0352 249.363 87.649 249.054 87.3225C248.744 86.9961 248.371 86.7361 247.957 86.5584C247.544 86.3807 247.098 86.2891 246.648 86.2891C246.198 86.2891 245.753 86.3807 245.339 86.5584C244.926 86.7361 244.553 86.9961 244.243 87.3225C243.933 87.649 243.693 88.0352 243.537 88.4574C243.381 88.8797 243.313 89.3292 243.337 89.7787C243.323 90.477 243.516 91.1638 243.893 91.7524C244.269 92.3409 244.811 92.8048 245.45 93.0855C240.349 93.8507 240.577 99.3893 240.577 99.3893L252.638 99.4439C252.638 99.4439 252.92 93.8051 247.855 93.049Z" fill="black"/>
<path d="M267.454 103.016L224.467 102.821L224.443 107.959L267.431 108.154L267.454 103.016Z" fill="#C50B44"/>
<path opacity="0.2" d="M267.454 103.016L224.467 102.821L224.443 107.959L267.431 108.154L267.454 103.016Z" fill="#E698B0"/>
<path d="M109.418 129.642H108.99L107.751 129.733C107.08 129.773 106.414 129.861 105.756 129.997C105.33 130.057 104.907 130.139 104.49 130.243L103.078 130.635C100.674 131.372 98.4068 132.495 96.3638 133.96C93.6646 135.919 91.4106 138.427 89.7503 141.32C88.7744 142.988 87.9978 144.764 87.4365 146.613C86.8466 148.622 86.507 150.697 86.4253 152.789C86.371 153.888 86.3893 154.99 86.48 156.087C86.48 156.642 86.6348 157.198 86.7077 157.763C86.769 158.332 86.8756 158.896 87.0265 159.448C87.8457 163.104 89.5078 166.517 91.8802 169.416C94.2526 172.315 97.2697 174.62 100.691 176.146C103.167 177.214 105.821 177.811 108.516 177.904C111.3 178.057 114.086 177.658 116.715 176.729L117.516 176.428H117.626L117.717 176.483L129.204 182.313L128.867 182.605C127.637 178.797 126.453 175.108 125.305 171.564V171.427L125.405 171.327C128.192 168.52 130.26 165.083 131.436 161.307C132.5 157.854 132.811 154.213 132.347 150.63C131.934 147.446 130.91 144.371 129.331 141.575C127.971 139.173 126.215 137.018 124.139 135.199C122.426 133.759 120.53 132.552 118.5 131.609C116.964 130.947 115.365 130.443 113.727 130.106L111.905 129.806L110.584 129.706L109.782 129.651H109.509C109.6 129.641 109.691 129.641 109.782 129.651H110.593L111.914 129.706L113.736 129.97C115.394 130.282 117.016 130.768 118.573 131.418C120.637 132.349 122.568 133.554 124.312 134.998C126.426 136.809 128.219 138.965 129.614 141.375C131.237 144.201 132.292 147.317 132.72 150.548C133.223 154.187 132.934 157.89 131.873 161.407C130.69 165.262 128.589 168.772 125.751 171.637L125.806 171.4C126.954 174.944 128.147 178.633 129.386 182.432L129.559 182.987L129.04 182.723L117.553 176.902H117.753L116.933 177.203C114.254 178.145 111.416 178.554 108.58 178.405C105.827 178.3 103.117 177.682 100.591 176.583C95.7714 174.519 91.7619 170.932 89.1764 166.371C87.9866 164.265 87.1177 161.993 86.5984 159.63C86.4562 159.064 86.3497 158.489 86.2796 157.909C86.2067 157.335 86.0883 156.77 86.0609 156.205C85.8144 152.964 86.157 149.705 87.0721 146.586C87.6474 144.711 88.4457 142.913 89.4497 141.229C91.1496 138.31 93.4505 135.786 96.1999 133.823C98.2765 132.355 100.582 131.24 103.023 130.525L104.453 130.161C104.874 130.063 105.3 129.987 105.728 129.933C106.393 129.81 107.066 129.737 107.742 129.715L108.99 129.669C109.132 129.65 109.275 129.641 109.418 129.642Z" fill="#C50B44"/>
<path d="M114.61 150.885H112.925L109.281 145.766V142.404C109.281 142.404 106.676 142.24 106.986 146.64C107.295 151.04 106.986 149.92 106.986 149.92C106.986 149.92 101.456 149.92 101.001 150.421C100.545 150.922 100.518 156.26 100.454 159.239C100.419 159.957 100.625 160.666 101.039 161.254C101.454 161.841 102.052 162.274 102.74 162.482C102.933 162.535 103.132 162.563 103.333 162.564C104.717 162.564 111.759 161.443 111.759 161.443H114.665L114.61 150.885Z" fill="#C50B44"/>
<path d="M119.429 149.983L118.39 161.498H115.512V150.22L119.429 149.983Z" fill="#C50B44"/>
<path d="M153.763 384.399V376.611L139.798 376.51L139.68 388.289L140.545 388.353C144.398 388.599 160.149 388.963 162.736 388.162C165.615 387.269 153.763 384.399 153.763 384.399Z" fill="#C50B44"/>
<path d="M163.064 387.433C163.064 387.56 157.835 387.67 151.395 387.67C144.954 387.67 139.726 387.56 139.726 387.433C139.726 387.305 144.954 387.196 151.395 387.196C157.835 387.196 163.064 387.305 163.064 387.433Z" fill="#263238"/>
<path d="M154.009 385.994C153.891 385.93 154.009 385.52 154.292 385.083C154.574 384.645 154.957 384.463 155.048 384.554C155.139 384.646 154.948 384.992 154.674 385.365C154.401 385.739 154.128 386.057 154.009 385.994Z" fill="#263238"/>
<path d="M154.902 386.503C154.774 386.503 154.838 385.993 155.112 385.511C155.385 385.028 155.749 384.736 155.849 384.809C155.95 384.882 155.786 385.292 155.531 385.72C155.275 386.148 155.02 386.549 154.902 386.503Z" fill="#263238"/>
<path d="M143.935 387.396C143.88 387.396 143.67 387.232 143.37 386.886C143.003 386.441 142.594 386.032 142.149 385.665C141.712 385.316 141.19 385.087 140.637 385C140.209 384.946 139.936 385 139.908 384.946C139.881 384.891 140.145 384.7 140.646 384.663C141.307 384.649 141.952 384.869 142.468 385.283C142.951 385.677 143.359 386.155 143.67 386.695C143.88 387.096 143.989 387.36 143.935 387.396Z" fill="#263238"/>
<path d="M154.055 384.527C154.119 384.636 153.882 384.91 153.481 385.055C153.08 385.201 152.725 385.147 152.707 385.055C152.689 384.964 152.971 384.773 153.317 384.646C153.663 384.518 153.982 384.418 154.055 384.527Z" fill="#263238"/>
<path d="M153.836 383.771C153.836 383.908 153.472 384.017 152.998 384.026C152.525 384.035 152.151 383.926 152.16 383.798C152.169 383.671 152.543 383.552 152.998 383.543C153.454 383.534 153.818 383.644 153.836 383.771Z" fill="#263238"/>
<path d="M188.152 384.399V376.611L174.187 376.51L174.068 388.171L174.934 388.234C178.787 388.48 194.547 388.963 197.125 388.162C200.003 387.269 188.152 384.399 188.152 384.399Z" fill="#C50B44"/>
<path d="M197.453 387.451C197.453 387.579 192.233 387.688 185.783 387.688C179.334 387.688 174.123 387.579 174.123 387.451C174.123 387.323 179.343 387.214 185.783 387.214C192.224 387.214 197.453 387.323 197.453 387.451Z" fill="#263238"/>
<path d="M188.398 385.994C188.289 385.93 188.398 385.52 188.681 385.083C188.963 384.645 189.346 384.463 189.437 384.554C189.528 384.646 189.336 384.992 189.063 385.365C188.79 385.739 188.517 386.057 188.398 385.994Z" fill="#263238"/>
<path d="M189.291 386.503C189.173 386.503 189.227 385.993 189.51 385.511C189.792 385.028 190.147 384.736 190.248 384.809C190.348 384.882 190.175 385.292 189.92 385.72C189.665 386.148 189.419 386.549 189.291 386.503Z" fill="#263238"/>
<path d="M178.323 387.396C178.269 387.396 178.068 387.232 177.758 386.886C177.392 386.441 176.983 386.032 176.538 385.665C176.1 385.316 175.579 385.087 175.026 385C174.607 384.946 174.324 385 174.297 384.946C174.27 384.891 174.534 384.7 175.035 384.663C175.696 384.649 176.341 384.869 176.857 385.283C177.342 385.674 177.75 386.153 178.059 386.695C178.269 387.096 178.378 387.36 178.323 387.396Z" fill="#263238"/>
<path d="M188.444 384.527C188.508 384.636 188.271 384.91 187.87 385.055C187.469 385.201 187.114 385.147 187.096 385.055C187.077 384.964 187.36 384.773 187.706 384.646C188.052 384.518 188.371 384.418 188.444 384.527Z" fill="#263238"/>
<path d="M188.243 383.771C188.243 383.908 187.879 384.017 187.405 384.026C186.932 384.035 186.567 383.926 186.576 383.798C186.585 383.671 186.95 383.552 187.405 383.543C187.861 383.534 188.243 383.644 188.243 383.771Z" fill="#263238"/>
<path d="M239.603 153.108C239.238 152.735 238.337 152.917 238.337 152.917C238.427 152.392 238.427 151.856 238.337 151.332C238.173 150.822 237.025 150.922 237.025 150.922C236.972 150.492 236.972 150.058 237.025 149.628C237.034 149.533 237.013 149.437 236.966 149.354C236.919 149.271 236.847 149.205 236.761 149.164C236.218 148.942 235.634 148.837 235.048 148.854C234.347 148.353 237.189 144.372 238.245 143.097C239.302 141.821 239.111 140.828 238.173 140.828C237.526 140.828 234.21 144.655 233.19 145.939C232.169 147.223 229.464 150.794 229.373 147.943C229.282 145.092 228.134 142.942 227.414 142.578C226.695 142.213 225.929 143.069 226.321 143.862C226.665 144.762 226.88 145.707 226.959 146.668C227.058 147.433 227.024 148.21 226.859 148.963C226.557 150.366 226.145 151.742 225.629 153.081H225.556C225.556 153.081 205.679 172.147 204.24 173.504C202.955 174.725 177.12 172.056 171.937 171.509C170.176 171.252 168.397 171.13 166.617 171.145C164.367 171.245 163.966 171.564 161.725 171.591C156.066 171.654 150.42 172.151 144.836 173.076C142.308 173.506 139.946 174.622 138.009 176.302C136.072 177.983 134.633 180.163 133.85 182.605C128.63 198.911 116.806 237.508 114.72 259.189C113.144 262.047 111.721 264.988 110.457 267.998C108.99 271.988 109.345 272.124 109.837 272.215C111.167 272.461 112.679 265.301 113.244 267.032C113.809 268.763 110.375 275.568 111.769 275.768C113.59 276.023 115.039 268.481 115.212 267.879C115.385 267.278 116.287 267.469 116.123 268.034C115.859 268.836 113.299 277.335 115.084 277.608C116.068 277.754 116.178 275.959 116.178 275.959C116.178 275.959 117.999 267.825 118.828 267.989C119.657 268.153 118.774 272.953 118.355 274.557C117.936 276.16 118.519 276.971 119.375 276.579C119.958 276.306 121.352 271.432 121.734 269.847C122.117 268.262 123.073 263.871 124.358 266.413C125.642 268.954 127.592 270.43 128.393 270.466C128.574 270.446 128.744 270.371 128.882 270.253C129.02 270.134 129.12 269.977 129.168 269.802C129.216 269.627 129.21 269.441 129.152 269.269C129.093 269.096 128.985 268.946 128.84 268.836C128.15 268.163 127.559 267.396 127.082 266.558C126.657 265.906 126.348 265.185 126.171 264.427C125.804 262.916 125.59 261.371 125.533 259.817L125.387 258.906C127.428 248.804 133.304 219.152 141.784 200.214L145.264 207.374L146.777 212.675L137.503 235.568L177.057 235.049L171.154 212.329L178.323 188.644C186.075 188.818 205.979 189.109 209.295 187.606C213.468 185.784 235.048 158.528 235.048 158.528C236.455 157.435 237.802 156.268 239.084 155.03C239.084 155.03 240.395 153.928 239.603 153.108Z" fill="#FFBE9D"/>
<path d="M135.763 218.651C136.911 214.734 142.805 195.367 142.805 195.367C142.805 195.367 145.702 211.154 144.937 213.058C144.233 214.688 143.401 216.26 142.45 217.758C135.763 227.934 136.638 233.026 136.638 233.026L177.039 231.796C177.13 226.148 173.787 213.012 173.094 210.917C172.402 208.822 174.707 201.962 174.707 201.962C174.707 201.962 179.261 197.326 179.097 194.939C179.011 192.795 178.746 190.662 178.305 188.562L202.901 189.473L202.126 172.803L166.8 169.268C165.57 172.739 154.447 171.036 154.447 171.036C142.441 171.436 141.694 173.641 136.702 177.522C131.71 181.402 123.447 214.707 123.447 214.707L135.763 218.651Z" fill="#C50B44"/>
<path d="M159.648 214.707C158.948 214.832 158.235 214.869 157.526 214.816C156.205 214.816 154.392 214.725 152.397 214.525C150.402 214.324 148.598 214.042 147.314 213.787C146.606 213.695 145.911 213.518 145.246 213.258C145.958 213.259 146.669 213.326 147.369 213.459C148.662 213.623 150.457 213.85 152.443 214.051C154.429 214.251 156.232 214.388 157.535 214.479C158.245 214.488 158.953 214.564 159.648 214.707Z" fill="#263238"/>
<path d="M162.417 211.273C161.717 211.616 160.976 211.87 160.213 212.029C156.578 212.984 152.829 213.428 149.072 213.35C148.294 213.375 147.517 213.302 146.758 213.131C147.525 213.034 148.298 212.995 149.072 213.013C150.502 212.967 152.469 212.867 154.638 212.612C156.806 212.357 158.737 211.992 160.103 211.701C160.862 211.498 161.636 211.355 162.417 211.273Z" fill="#263238"/>
<path d="M176.009 195.95C175.991 196.645 175.896 197.335 175.727 198.009C175.49 199.275 175.126 201.006 174.661 202.901C174.196 204.796 173.75 206.545 173.349 207.729C173.188 208.407 172.95 209.064 172.639 209.687C172.689 208.995 172.818 208.311 173.021 207.647C173.367 206.226 173.759 204.586 174.196 202.791C174.634 200.997 175.053 199.357 175.399 197.936C175.522 197.252 175.727 196.585 176.009 195.95Z" fill="#263238"/>
<path d="M136.191 216.328C134.084 216.003 132.004 215.519 129.97 214.88C127.891 214.394 125.851 213.754 123.866 212.967C125.973 213.298 128.052 213.782 130.088 214.415C132.167 214.9 134.208 215.539 136.191 216.328Z" fill="#263238"/>
<path d="M178.741 188.362C178.398 188.421 178.047 188.421 177.703 188.362C176.751 188.264 175.817 188.041 174.925 187.697C173.434 187.137 172.078 186.271 170.942 185.156C169.806 184.041 168.916 182.7 168.329 181.22C167.681 179.592 167.404 177.84 167.519 176.091C167.559 174.649 167.99 173.245 168.767 172.029C169.312 171.209 170.128 170.606 171.071 170.325C171.323 170.255 171.584 170.222 171.846 170.225C172.028 170.225 172.119 170.225 172.119 170.225C172.119 170.225 171.736 170.225 171.126 170.471C170.26 170.791 169.526 171.39 169.04 172.174C167.801 174.124 167.455 177.686 168.776 181.011C169.39 182.578 170.353 183.986 171.59 185.128C172.605 186.062 173.773 186.814 175.043 187.351C176.235 187.822 177.475 188.161 178.741 188.362Z" fill="#263238"/>
<path d="M199.976 189.145C199.748 186.352 199.675 183.548 199.757 180.746C199.686 177.947 199.771 175.146 200.012 172.357C200.24 175.147 200.313 177.948 200.231 180.746C200.308 183.549 200.222 186.353 199.976 189.145Z" fill="#263238"/>
<path d="M166.563 170.289C166.663 168.257 166.873 165.962 166.873 165.962C166.873 165.962 171.901 165.406 172.202 160.214C172.502 155.021 172.202 143.042 172.202 143.042L163.092 138.378L152.98 146.331L154.538 172.293L163.812 172.885C164.521 172.905 165.208 172.642 165.724 172.156C166.24 171.669 166.541 170.998 166.563 170.289Z" fill="#FFBE9D"/>
<path d="M167.464 156.105C167.464 156.105 167.464 156.205 167.382 156.324C167.314 156.41 167.227 156.478 167.127 156.522C167.027 156.567 166.917 156.586 166.808 156.579C166.225 156.579 165.661 155.905 165.46 155.121C165.365 154.741 165.365 154.344 165.46 153.964C165.479 153.799 165.539 153.64 165.634 153.503C165.729 153.366 165.858 153.256 166.007 153.181C166.129 153.13 166.267 153.13 166.389 153.181C166.48 153.226 166.554 153.3 166.599 153.39C166.663 153.545 166.599 153.645 166.599 153.636C166.599 153.627 166.599 153.545 166.508 153.454C166.46 153.389 166.39 153.344 166.311 153.327C166.232 153.31 166.15 153.323 166.08 153.363C165.968 153.431 165.875 153.525 165.81 153.638C165.744 153.751 165.709 153.879 165.706 154.01C165.629 154.349 165.629 154.7 165.706 155.039C165.888 155.75 166.38 156.324 166.817 156.378C166.903 156.39 166.99 156.384 167.073 156.36C167.156 156.337 167.233 156.296 167.3 156.242C167.41 156.169 167.446 156.096 167.464 156.105Z" fill="#C50B44"/>
<path d="M175.326 140.236C174.624 137.85 172.083 136.665 169.769 136.009C166.243 135.007 162.436 134.57 158.992 135.836C155.549 137.103 151.413 139.325 151.413 143.124C149.382 142.96 148.216 144.736 147.414 146.941C146.901 148.284 146.594 149.697 146.503 151.131C146.248 156.105 144.854 162.974 141.629 166.618C139.808 168.649 137.284 170.052 136.246 172.584C135.335 174.78 135.808 177.385 134.961 179.608C134.205 181.566 132.538 182.96 131.317 184.664C130.074 186.596 129.342 188.813 129.191 191.106C129.039 193.399 129.473 195.693 130.452 197.772C131.438 199.798 132.826 201.602 134.531 203.074C136.237 204.546 138.224 205.656 140.372 206.335C144.627 207.63 149.165 207.674 153.445 206.463C156.656 205.695 159.652 204.209 162.208 202.117C164.823 199.982 166.619 197.008 167.291 193.7C167.938 189.984 166.899 186.203 166.125 182.505C163.702 170.817 164.394 170.207 167.455 159.357C167.528 159.166 167.564 158.966 167.619 158.774C167.674 158.583 167.701 158.492 167.737 158.346C167.824 157.917 167.87 157.481 167.874 157.043C167.427 157.21 166.942 157.245 166.475 157.145C166.009 157.045 165.581 156.814 165.241 156.479C164.901 156.121 164.664 155.679 164.555 155.198C164.446 154.716 164.469 154.215 164.622 153.746C164.837 153.233 165.157 152.771 165.562 152.389C165.967 152.008 166.447 151.716 166.972 151.532C167.983 151.113 169.067 150.894 170.06 150.43C172.165 149.428 173.622 147.351 174.615 145.174C175.431 143.665 175.683 141.914 175.326 140.236Z" fill="#263238"/>
<path d="M167.829 156.351C168.022 156.636 168.181 156.941 168.303 157.262C168.576 157.836 168.94 158.647 169.341 159.585L169.414 159.758H169.223L168.312 159.84C167.683 159.84 167.155 159.959 166.536 159.949C166.482 159.937 166.432 159.912 166.39 159.875C166.349 159.839 166.317 159.792 166.299 159.74C166.272 159.657 166.272 159.568 166.299 159.485C166.32 159.362 166.347 159.24 166.381 159.12L166.545 158.474C166.627 158.042 166.755 157.621 166.927 157.217C166.91 157.656 166.846 158.093 166.736 158.519L166.608 159.166C166.563 159.385 166.481 159.722 166.608 159.694C167.064 159.694 167.711 159.594 168.312 159.558L169.223 159.476L169.104 159.676C168.713 158.765 168.385 157.909 168.193 157.317C168.026 157.014 167.903 156.689 167.829 156.351Z" fill="#C50B44"/>
<path d="M136.637 233.026L177.038 231.796L194.62 300.428L191.386 379.152H170.024L172.638 302.104L157.015 254.324L159.42 382.204L137.831 382.523L135.563 262.322C135.462 258.979 134.369 251.446 134.779 248.13L136.637 233.026Z" fill="#263238"/>
<path d="M162.39 255.299C161.729 255.341 161.065 255.301 160.413 255.18C159.193 255.035 157.526 254.78 155.695 254.415C153.864 254.051 152.224 253.632 151.04 253.295C150.407 253.156 149.794 252.935 149.218 252.639C149.218 252.502 152.187 253.213 155.831 253.951C159.475 254.689 162.408 255.162 162.39 255.299Z" fill="#C50B44"/>
<path d="M191.168 374.834C191.168 374.962 186.331 375.071 180.364 375.071C174.397 375.071 169.551 374.962 169.551 374.834C169.551 374.707 174.388 374.597 180.364 374.597C186.34 374.597 191.168 374.698 191.168 374.834Z" fill="#C50B44"/>
<path d="M159.229 378.879C159.229 379.015 154.529 379.116 148.735 379.116C142.941 379.116 138.25 379.015 138.25 378.879C138.25 378.742 142.951 378.642 148.735 378.642C154.52 378.642 159.229 378.751 159.229 378.879Z" fill="#C50B44"/>
<path d="M156.442 378.551C156.314 378.551 155.749 350.612 155.175 316.151C154.602 281.689 154.265 253.732 154.383 253.732C154.501 253.732 155.084 281.662 155.649 316.142C156.214 350.621 156.578 378.551 156.442 378.551Z" fill="#C50B44"/>
<path d="M188.298 374.835C188.288 374.71 188.288 374.585 188.298 374.461V373.368C188.298 372.384 188.37 370.972 188.425 369.178C188.553 365.534 188.735 360.241 188.963 353.755C189.455 340.71 190.147 322.728 190.903 302.878C190.903 302.687 190.903 302.505 190.903 302.341V302.405C186.12 283.274 181.793 265.912 178.651 253.35L175.007 238.492C174.588 236.752 174.269 235.395 174.041 234.447C173.932 234.001 173.859 233.655 173.795 233.391C173.76 233.272 173.738 233.15 173.731 233.026C173.779 233.141 173.815 233.26 173.841 233.382C173.914 233.637 174.005 233.983 174.132 234.42C174.378 235.331 174.733 236.716 175.189 238.446C176.1 241.963 177.384 247.028 178.988 253.268C182.158 265.821 186.53 283.138 191.377 302.295V302.359C191.377 302.523 191.377 302.714 191.377 302.896C190.566 322.746 189.828 340.719 189.291 353.764C189.008 360.259 188.771 365.515 188.607 369.178C188.516 370.999 188.443 372.384 188.398 373.368C188.398 373.832 188.343 374.197 188.334 374.461C188.335 374.586 188.323 374.712 188.298 374.835Z" fill="#C50B44"/>
<path d="M181.329 300.738C179.794 301.242 178.214 301.593 176.61 301.785C174.642 302.122 172.966 302.359 172.21 302.395V302.213C172.456 302.286 172.583 302.332 172.583 302.368C172.583 302.405 172.429 302.368 172.174 302.368H171.627L172.174 302.204C172.884 301.995 174.56 301.648 176.528 301.293C178.106 300.951 179.714 300.765 181.329 300.738Z" fill="#C50B44"/>
<path d="M180.956 303.352C179.535 303.417 178.111 303.353 176.702 303.161C175.279 303.131 173.861 302.976 172.466 302.696C175.313 302.464 178.178 302.685 180.956 303.352Z" fill="#C50B44"/>
<path opacity="0.2" d="M136.465 234.475C136.943 235.089 137.546 235.596 138.233 235.961C138.921 236.327 139.678 236.544 140.455 236.597C142.082 236.79 143.728 236.759 145.347 236.506C155.777 235.349 166.827 234.283 177.039 231.796C163.821 232.534 149.856 232.288 136.638 233.026L136.501 234.156" fill="black"/>
<g opacity="0.2">
<path d="M150.083 253.104L157.535 282.017L157.015 254.324L150.083 253.104Z" fill="black"/>
</g>
</svg>
