<svg width="457" height="396" viewBox="0 0 457 396" fill="none" xmlns="http://www.w3.org/2000/svg">
<g clip-path="url(#clip0_1_52)">
<path d="M432.798 359.047H398.949V359.302H432.798V359.047Z" fill="#FF8B7B"/>
<path d="M311.507 361.827H302.626V362.082H311.507V361.827Z" fill="#FF8B7B"/>
<path d="M397.928 349.563H378.315V349.818H397.928V349.563Z" fill="#FF8B7B"/>
<path d="M70.7544 351.28H26.6143V351.535H70.7544V351.28Z" fill="#FF8B7B"/>
<path d="M86.3296 351.28H79.8604V351.535H86.3296V351.28Z" fill="#FF8B7B"/>
<path d="M203.103 355.592H107.362V355.848H203.103V355.592Z" fill="#FF8B7B"/>
<path d="M216.645 297.022H19.2966C17.7489 297.022 16.2645 296.407 15.1702 295.312C14.0758 294.218 13.4609 292.734 13.4609 291.186V13.7845C13.4744 12.2457 14.0952 10.7745 15.1881 9.69111C16.281 8.60774 17.7577 7.99994 19.2966 8H216.645C217.411 8 218.17 8.15094 218.878 8.44421C219.586 8.73748 220.229 9.16733 220.771 9.70921C221.313 10.2511 221.743 10.8944 222.036 11.6024C222.329 12.3104 222.48 13.0693 222.48 13.8356V291.186C222.48 291.952 222.329 292.711 222.036 293.419C221.743 294.127 221.313 294.771 220.771 295.312C220.229 295.854 219.586 296.284 218.878 296.577C218.17 296.871 217.411 297.022 216.645 297.022ZM19.2966 8.2044C17.8174 8.2071 16.3997 8.79587 15.3538 9.84176C14.3079 10.8877 13.7191 12.3054 13.7164 13.7845V291.186C13.7191 292.665 14.3079 294.083 15.3538 295.129C16.3997 296.175 17.8174 296.763 19.2966 296.766H216.645C218.124 296.763 219.542 296.175 220.588 295.129C221.633 294.083 222.222 292.665 222.225 291.186V13.7845C222.222 12.3054 221.633 10.8877 220.588 9.84176C219.542 8.79587 218.124 8.2071 216.645 8.2044H19.2966Z" fill="#FF8B7B"/>
<path d="M437.703 297.022H240.355C238.807 297.022 237.323 296.407 236.229 295.312C235.134 294.218 234.52 292.734 234.52 291.186V13.7845C234.533 12.2457 235.154 10.7745 236.247 9.69111C237.34 8.60774 238.816 7.99994 240.355 8H437.703C439.251 8 440.735 8.61482 441.83 9.70921C442.924 10.8036 443.539 12.2879 443.539 13.8356V291.186C443.539 292.734 442.924 294.218 441.83 295.312C440.735 296.407 439.251 297.022 437.703 297.022ZM240.355 8.2044C238.876 8.2071 237.458 8.79587 236.412 9.84176C235.367 10.8877 234.778 12.3054 234.775 13.7845V291.186C234.778 292.665 235.367 294.083 236.412 295.129C237.458 296.175 238.876 296.763 240.355 296.766H437.703C439.182 296.763 440.6 296.175 441.646 295.129C442.692 294.083 443.281 292.665 443.283 291.186V13.7845C443.281 12.3054 442.692 10.8877 441.646 9.84176C440.6 8.79587 439.182 8.2071 437.703 8.2044H240.355Z" fill="#FF8B7B"/>
<path d="M484 342.603H-27V342.858H484V342.603Z" fill="#FF8B7B"/>
<path d="M94.9555 273.465C94.097 263.592 84.0201 259.903 72.0729 260.945C60.1258 261.987 50.8562 267.373 51.6943 277.246L94.9555 273.465Z" fill="#FFD651"/>
<path d="M71.6848 256.438C77.224 255.947 78.9921 251.267 78.5118 245.727C78.0314 240.188 75.4458 235.886 69.927 236.366C64.4082 236.846 62.6197 241.537 63.1 247.076C63.5804 252.616 66.1456 256.918 71.6848 256.438Z" fill="#FFD651"/>
<path d="M320.582 63.188C320.679 64.2837 320.449 65.3835 319.921 66.3483C319.392 67.3131 318.59 68.0995 317.614 68.608C316.639 69.1165 315.535 69.3243 314.441 69.205C313.348 69.0857 312.314 68.6447 311.471 67.9379C310.629 67.231 310.014 66.2901 309.707 65.2341C309.399 64.1781 309.411 63.0545 309.742 62.0054C310.073 60.9564 310.708 60.0292 311.566 59.341C312.424 58.6528 313.467 58.2346 314.562 58.1393C316.03 58.0117 317.488 58.4717 318.617 59.4183C319.745 60.3649 320.452 61.7207 320.582 63.188Z" fill="#FF8282"/>
<path d="M351.313 60.4695C351.408 61.5629 351.177 62.6599 350.648 63.6218C350.12 64.5837 349.318 65.3673 348.344 65.8735C347.37 66.3796 346.268 66.5857 345.177 66.4655C344.086 66.3453 343.055 65.9044 342.215 65.1984C341.375 64.4924 340.763 63.553 340.456 62.4992C340.15 61.4453 340.163 60.3242 340.493 59.2776C340.824 58.2311 341.457 57.306 342.314 56.6195C343.17 55.933 344.211 55.5159 345.304 55.4208C346.77 55.2961 348.225 55.7574 349.352 56.7037C350.478 57.65 351.184 59.0041 351.313 60.4695Z" fill="#FF8282"/>
<path d="M382.056 57.7816C382.153 58.8773 381.922 59.9771 381.394 60.9419C380.866 61.9067 380.063 62.6931 379.088 63.2016C378.113 63.7102 377.008 63.9179 375.915 63.7986C374.821 63.6793 373.788 63.2384 372.945 62.5315C372.102 61.8247 371.488 60.8837 371.18 59.8277C370.872 58.7717 370.885 57.6481 371.216 56.5991C371.547 55.5501 372.181 54.6228 373.039 53.9346C373.897 53.2464 374.94 52.8282 376.036 52.7329C377.504 52.6054 378.962 53.0654 380.09 54.012C381.219 54.9585 381.926 56.3143 382.056 57.7816Z" fill="#FF8282"/>
<path d="M323.321 94.4816C323.418 95.5773 323.188 96.6771 322.66 97.6419C322.132 98.6067 321.329 99.3932 320.354 99.9017C319.378 100.41 318.274 100.618 317.18 100.499C316.087 100.379 315.053 99.9384 314.211 99.2315C313.368 98.5247 312.754 97.5837 312.446 96.5277C312.138 95.4717 312.15 94.3481 312.481 93.2991C312.812 92.2501 313.447 91.3228 314.305 90.6346C315.163 89.9464 316.206 89.5282 317.302 89.4329C318.769 89.3054 320.227 89.7654 321.356 90.712C322.485 91.6585 323.191 93.0143 323.321 94.4816Z" fill="#FF8282"/>
<path d="M354.053 91.804C354.148 92.8974 353.916 93.9945 353.388 94.9564C352.859 95.9183 352.057 96.7018 351.083 97.208C350.11 97.7142 349.007 97.9202 347.916 97.8C346.826 97.6798 345.795 97.2389 344.954 96.5329C344.114 95.8269 343.502 94.8875 343.195 93.8337C342.889 92.7798 342.902 91.6587 343.232 90.6121C343.563 89.5656 344.197 88.6405 345.053 87.954C345.909 87.2675 346.95 86.8504 348.043 86.7553C348.769 86.6922 349.501 86.7727 350.196 86.9923C350.891 87.2118 351.536 87.5661 352.094 88.0349C352.652 88.5038 353.112 89.0779 353.448 89.7246C353.784 90.3713 353.99 91.0779 354.053 91.804Z" fill="#FF8282"/>
<path d="M384.795 89.1059C384.892 90.2016 384.662 91.3014 384.133 92.2662C383.605 93.231 382.803 94.0174 381.827 94.5259C380.852 95.0344 379.747 95.2422 378.654 95.1229C377.561 95.0036 376.527 94.5627 375.684 93.8558C374.841 93.149 374.227 92.208 373.919 91.152C373.612 90.096 373.624 88.9724 373.955 87.9234C374.286 86.8743 374.92 85.9471 375.779 85.2589C376.637 84.5707 377.68 84.1525 378.775 84.0572C380.243 83.9296 381.701 84.3897 382.83 85.3362C383.958 86.2828 384.665 87.6386 384.795 89.1059Z" fill="#FF8282"/>
<path d="M326.061 125.816C326.155 126.91 325.924 128.007 325.395 128.969C324.867 129.93 324.065 130.714 323.091 131.22C322.117 131.726 321.015 131.932 319.924 131.812C318.833 131.692 317.803 131.251 316.962 130.545C316.122 129.839 315.51 128.9 315.203 127.846C314.897 126.792 314.91 125.671 315.24 124.624C315.571 123.578 316.204 122.653 317.061 121.966C317.917 121.28 318.958 120.863 320.051 120.767C320.778 120.703 321.509 120.783 322.205 121.002C322.901 121.221 323.546 121.575 324.104 122.044C324.663 122.513 325.123 123.088 325.459 123.735C325.794 124.382 325.999 125.09 326.061 125.816Z" fill="#FF8282"/>
<path d="M356.802 123.118C356.899 124.214 356.669 125.314 356.14 126.278C355.612 127.243 354.809 128.03 353.834 128.538C352.859 129.047 351.754 129.254 350.661 129.135C349.567 129.016 348.534 128.575 347.691 127.868C346.848 127.161 346.234 126.22 345.926 125.164C345.618 124.108 345.631 122.985 345.962 121.936C346.293 120.887 346.927 119.959 347.785 119.271C348.643 118.583 349.686 118.165 350.782 118.069C352.25 117.942 353.708 118.402 354.837 119.348C355.965 120.295 356.672 121.651 356.802 123.118Z" fill="#FF8282"/>
<path d="M387.533 120.42C387.63 121.516 387.4 122.616 386.872 123.58C386.343 124.545 385.541 125.332 384.565 125.84C383.59 126.349 382.486 126.556 381.392 126.437C380.299 126.318 379.265 125.877 378.423 125.17C377.58 124.463 376.966 123.522 376.658 122.466C376.35 121.41 376.362 120.286 376.693 119.237C377.024 118.188 377.659 117.261 378.517 116.573C379.375 115.885 380.418 115.467 381.514 115.371C382.981 115.244 384.439 115.704 385.568 116.65C386.697 117.597 387.403 118.953 387.533 120.42Z" fill="#FF8282"/>
<path d="M380.891 122.239L317.752 127.758L373.737 59.7336L316.392 64.7517C316.232 64.7671 316.071 64.7503 315.917 64.7023C315.764 64.6544 315.621 64.5762 315.499 64.4724C315.376 64.3686 315.275 64.2413 315.202 64.0979C315.129 63.9546 315.086 63.7981 315.074 63.6377C315.046 63.3165 315.146 62.9972 315.353 62.75C315.56 62.5028 315.857 62.3479 316.178 62.3193L379.327 56.8005L323.332 124.825L380.697 119.807C381.02 119.781 381.34 119.884 381.589 120.092C381.837 120.3 381.994 120.598 382.025 120.921C382.038 121.082 382.018 121.244 381.968 121.398C381.918 121.551 381.838 121.693 381.732 121.816C381.627 121.938 381.498 122.039 381.354 122.111C381.209 122.184 381.052 122.228 380.891 122.239Z" fill="#FFD651"/>
<path d="M381.861 243.683C381.764 243.386 381.581 243.123 381.336 242.929C381.09 242.734 380.793 242.617 380.481 242.59C377.736 242.463 375.137 241.315 373.194 239.371C370.67 236.826 369.188 232.973 368.943 228.394C368.919 227.981 368.739 227.593 368.439 227.308C368.139 227.023 367.742 226.863 367.328 226.861C367.104 226.862 366.883 226.909 366.678 226.998C366.473 227.087 366.288 227.216 366.134 227.378C365.98 227.541 365.861 227.733 365.784 227.942C365.706 228.152 365.672 228.375 365.683 228.599C365.969 233.974 367.788 238.573 370.885 241.67C373.31 244.099 376.527 245.575 379.95 245.83H380.185C380.454 245.85 380.723 245.804 380.97 245.695C381.216 245.586 381.432 245.418 381.598 245.206C381.764 244.993 381.875 244.743 381.921 244.478C381.966 244.212 381.946 243.939 381.861 243.683Z" fill="#FFD651"/>
<path d="M378.59 263.296C365.049 262.11 355.279 252.881 352.192 238.471C352.143 238.255 352.138 238.031 352.178 237.812C352.218 237.594 352.301 237.386 352.423 237.201C352.546 237.016 352.704 236.857 352.889 236.735C353.074 236.612 353.282 236.529 353.5 236.489C353.914 236.415 354.34 236.504 354.69 236.736C355.04 236.968 355.288 237.326 355.381 237.735C358.15 250.684 366.837 258.983 378.887 260.035C392.091 261.19 406.266 252.503 408.811 230.612C408.855 230.185 409.065 229.793 409.396 229.519C409.727 229.246 410.152 229.113 410.579 229.151C410.796 229.168 411.006 229.229 411.199 229.33C411.391 229.431 411.562 229.569 411.7 229.737C411.838 229.905 411.941 230.098 412.003 230.307C412.065 230.515 412.085 230.733 412.061 230.949C409.618 251.594 396.046 264.818 378.59 263.296Z" fill="#FFD651"/>
<path d="M353.041 224.112C352.824 224.094 352.613 224.033 352.421 223.933C352.228 223.832 352.058 223.694 351.92 223.526C351.781 223.358 351.678 223.164 351.616 222.956C351.554 222.748 351.535 222.529 351.559 222.313C353.991 201.669 367.563 188.434 385.009 189.967C400.339 191.306 410.61 202.752 412.214 219.993C412.231 220.21 412.204 220.428 412.136 220.634C412.068 220.84 411.959 221.03 411.816 221.194C411.674 221.357 411.5 221.491 411.305 221.587C411.11 221.682 410.898 221.738 410.681 221.751C410.255 221.771 409.837 221.625 409.517 221.342C409.197 221.06 408.998 220.664 408.964 220.239C407.483 204.704 398.315 194.413 384.733 193.227C371.58 192.072 357.343 200.749 354.809 222.62C354.791 222.834 354.731 223.043 354.632 223.233C354.533 223.424 354.398 223.594 354.234 223.732C354.07 223.871 353.88 223.976 353.675 224.041C353.47 224.106 353.255 224.13 353.041 224.112Z" fill="#FFD651"/>
<path d="M379.255 254.537C376.827 254.342 374.448 253.748 372.213 252.779C372.005 252.688 371.818 252.554 371.664 252.387C371.51 252.22 371.392 252.022 371.318 251.807C371.244 251.592 371.215 251.364 371.234 251.137C371.253 250.91 371.318 250.69 371.426 250.49C371.618 250.139 371.933 249.871 372.311 249.739C372.688 249.607 373.102 249.619 373.47 249.775C375.601 250.69 377.879 251.216 380.195 251.328C390.201 251.9 400.768 244.808 401.81 227.679C402.444 217.122 398.826 208.598 392.081 204.52C391.732 204.309 391.474 203.975 391.359 203.584C391.244 203.192 391.279 202.772 391.458 202.405C391.559 202.202 391.701 202.022 391.875 201.877C392.049 201.731 392.251 201.623 392.469 201.559C392.686 201.495 392.915 201.476 393.14 201.504C393.365 201.531 393.582 201.605 393.778 201.72C401.596 206.442 405.786 216.028 405.071 227.873C404.049 244.389 393.767 255.385 380.001 254.598L379.255 254.537Z" fill="#FFD651"/>
<path d="M364.702 244.348C364.514 244.475 364.301 244.562 364.078 244.604C363.855 244.646 363.625 244.641 363.404 244.59C363.182 244.539 362.974 244.444 362.791 244.309C362.608 244.174 362.455 244.003 362.341 243.806C359.312 238.174 357.98 231.784 358.508 225.41C359.469 209.6 368.943 198.838 381.81 198.654C382.037 198.65 382.262 198.692 382.471 198.778C382.681 198.865 382.87 198.994 383.028 199.157C383.185 199.32 383.307 199.514 383.386 199.726C383.465 199.939 383.499 200.165 383.486 200.391C383.461 200.8 383.283 201.185 382.987 201.468C382.692 201.752 382.301 201.915 381.892 201.924C372.346 202.108 362.76 209.324 361.779 225.604C361.283 231.357 362.469 237.13 365.192 242.222C365.397 242.575 365.461 242.993 365.37 243.392C365.279 243.79 365.04 244.139 364.702 244.368V244.348Z" fill="#FFD651"/>
<path d="M387.043 243.06C386.888 242.697 386.87 242.289 386.992 241.914C387.115 241.538 387.369 241.219 387.708 241.016C392.01 238.43 394.647 233.004 394.688 226.453C394.688 221.21 393.206 216.774 390.406 213.964C389.318 212.886 388.022 212.042 386.597 211.483C385.172 210.924 383.647 210.663 382.117 210.714C377.079 210.714 372.991 213.483 370.732 218.348C370.558 218.718 370.251 219.008 369.872 219.162C369.493 219.315 369.071 219.32 368.688 219.176C368.475 219.097 368.28 218.975 368.117 218.817C367.953 218.659 367.824 218.469 367.738 218.258C367.651 218.048 367.609 217.822 367.615 217.595C367.62 217.368 367.672 217.144 367.768 216.938C370.569 210.979 375.811 207.454 382.076 207.443C384.039 207.393 385.991 207.74 387.816 208.463C389.641 209.187 391.3 210.272 392.695 211.654C396.119 215.088 397.979 220.351 397.938 226.483C397.876 234.199 394.627 240.679 389.333 243.857C389.132 243.967 388.911 244.033 388.683 244.052C388.456 244.07 388.227 244.041 388.011 243.966C387.795 243.891 387.598 243.772 387.431 243.616C387.265 243.46 387.132 243.27 387.043 243.06Z" fill="#FFD651"/>
<path d="M375.27 230.99C375.051 231.079 374.816 231.12 374.581 231.11C374.345 231.099 374.115 231.038 373.905 230.93C373.696 230.823 373.512 230.671 373.366 230.485C373.221 230.3 373.117 230.085 373.062 229.856C372.95 229.416 372.868 228.956 372.796 228.486C371.866 222.354 375.157 217.05 380.441 216.1C381.671 215.832 382.947 215.856 384.166 216.17C385.386 216.485 386.514 217.08 387.462 217.909C387.64 218.067 387.78 218.263 387.871 218.483C387.963 218.702 388.004 218.94 387.991 219.177C387.978 219.415 387.912 219.646 387.798 219.855C387.683 220.064 387.523 220.244 387.329 220.382L387.227 220.453C386.921 220.666 386.55 220.768 386.178 220.74C385.806 220.712 385.454 220.557 385.183 220.3C384.61 219.816 383.932 219.472 383.203 219.295C382.474 219.117 381.714 219.112 380.983 219.278C376.956 220.004 375.423 224.194 375.995 227.955C376.057 228.323 376.118 228.68 376.21 228.977C376.309 229.362 376.265 229.769 376.086 230.124C375.908 230.479 375.607 230.758 375.239 230.908L375.27 230.99Z" fill="#FFD651"/>
<path d="M380.676 237.286C380.418 237.261 380.171 237.17 379.958 237.023C379.745 236.875 379.573 236.676 379.459 236.444C379.344 236.212 379.291 235.954 379.304 235.695C379.316 235.437 379.395 235.186 379.532 234.966L379.675 234.741C379.821 234.507 380.029 234.317 380.276 234.193C380.523 234.068 380.799 234.014 381.075 234.036C381.588 234.065 382.102 234.034 382.608 233.944C386.123 233.31 387.718 230.04 387.718 226.708C387.708 226.308 387.843 225.918 388.098 225.609C388.354 225.301 388.713 225.096 389.108 225.032C389.334 224.997 389.566 225.011 389.787 225.071C390.009 225.132 390.215 225.239 390.392 225.384C390.569 225.53 390.714 225.711 390.817 225.916C390.92 226.121 390.978 226.346 390.988 226.575C391.08 231.91 387.922 236.315 383.19 237.163C382.362 237.316 381.516 237.358 380.676 237.286Z" fill="#FFD651"/>
<path d="M381.402 231.246C380.576 231.176 379.794 230.85 379.163 230.313C378.533 229.776 378.086 229.055 377.886 228.251C377.829 228.024 377.826 227.787 377.878 227.559C377.931 227.331 378.037 227.119 378.188 226.94C378.338 226.761 378.53 226.621 378.746 226.531C378.962 226.441 379.196 226.403 379.429 226.422H379.807C380.094 226.452 380.365 226.564 380.588 226.746C380.811 226.927 380.977 227.17 381.065 227.444C381.1 227.586 381.179 227.714 381.291 227.809C381.403 227.905 381.542 227.963 381.688 227.975C382.475 228.047 382.608 226.953 382.628 226.688C382.676 226.29 382.601 225.887 382.414 225.533C382.132 225.192 381.986 224.759 382.005 224.317C382.031 223.992 382.153 223.682 382.356 223.427C382.559 223.173 382.833 222.984 383.144 222.887C383.455 222.789 383.788 222.786 384.1 222.879C384.412 222.972 384.69 223.155 384.897 223.407C385.695 224.415 386.062 225.697 385.919 226.974C385.653 229.662 383.763 231.45 381.402 231.246Z" fill="#FFD651"/>
<path d="M350.66 194.668C350.446 194.65 350.238 194.59 350.048 194.491C349.857 194.393 349.688 194.257 349.55 194.093C349.413 193.929 349.309 193.738 349.245 193.534C349.181 193.329 349.158 193.114 349.178 192.9L350.414 178.725L364.59 179.972C364.803 179.99 365.011 180.05 365.202 180.149C365.392 180.248 365.561 180.383 365.699 180.547C365.836 180.712 365.94 180.902 366.004 181.106C366.068 181.311 366.091 181.526 366.071 181.74C366.053 181.954 365.993 182.163 365.895 182.353C365.796 182.544 365.661 182.714 365.497 182.852C365.332 182.991 365.143 183.096 364.938 183.161C364.733 183.226 364.517 183.25 364.303 183.232L353.388 182.271L352.438 193.186C352.419 193.401 352.357 193.609 352.258 193.799C352.158 193.99 352.021 194.159 351.856 194.296C351.691 194.434 351.5 194.538 351.295 194.601C351.09 194.665 350.874 194.688 350.66 194.668Z" fill="#FFD651"/>
<path d="M418.04 200.565C417.826 200.547 417.618 200.487 417.428 200.388C417.237 200.29 417.068 200.154 416.931 199.99C416.793 199.825 416.689 199.635 416.625 199.431C416.561 199.226 416.538 199.011 416.558 198.797L417.508 187.882L406.593 186.932C406.379 186.913 406.171 186.851 405.98 186.751C405.79 186.652 405.621 186.515 405.483 186.35C405.346 186.185 405.242 185.994 405.178 185.789C405.114 185.583 405.092 185.368 405.111 185.153C405.129 184.94 405.189 184.732 405.288 184.541C405.387 184.351 405.522 184.182 405.687 184.044C405.851 183.907 406.041 183.803 406.246 183.739C406.451 183.675 406.666 183.652 406.879 183.672L421.055 184.908L419.818 199.114C419.772 199.541 419.559 199.933 419.226 200.204C418.893 200.476 418.467 200.605 418.04 200.565Z" fill="#FFD651"/>
<path d="M413.022 276.786L398.847 275.549C398.633 275.53 398.425 275.469 398.234 275.369C398.044 275.269 397.875 275.133 397.737 274.968C397.6 274.802 397.496 274.612 397.432 274.406C397.368 274.201 397.346 273.985 397.365 273.771C397.383 273.557 397.443 273.349 397.542 273.159C397.641 272.969 397.776 272.8 397.941 272.662C398.105 272.524 398.295 272.42 398.5 272.356C398.704 272.292 398.92 272.27 399.133 272.289L410.048 273.24L410.999 262.335C411.017 262.12 411.077 261.911 411.176 261.719C411.276 261.527 411.412 261.357 411.577 261.219C411.742 261.08 411.934 260.975 412.14 260.911C412.345 260.846 412.562 260.823 412.777 260.843C412.991 260.861 413.199 260.921 413.389 261.02C413.579 261.118 413.748 261.254 413.886 261.418C414.024 261.583 414.128 261.773 414.192 261.977C414.256 262.182 414.279 262.397 414.259 262.611L413.022 276.786Z" fill="#FFD651"/>
<path d="M356.557 271.819L342.382 270.572L343.618 256.407C343.66 255.975 343.87 255.576 344.202 255.297C344.535 255.018 344.964 254.881 345.397 254.915C345.611 254.934 345.819 254.996 346.01 255.096C346.2 255.195 346.369 255.332 346.507 255.497C346.644 255.662 346.748 255.853 346.812 256.058C346.876 256.263 346.898 256.479 346.879 256.693L345.928 267.588L356.833 268.549C357.047 268.567 357.255 268.627 357.446 268.725C357.637 268.824 357.807 268.959 357.945 269.123C358.084 269.288 358.189 269.478 358.254 269.682C358.319 269.887 358.343 270.103 358.325 270.317C358.289 270.75 358.082 271.151 357.751 271.433C357.42 271.714 356.99 271.853 356.557 271.819Z" fill="#FFD651"/>
<path d="M49.3742 241.149C49.1079 241.169 48.8444 241.084 48.64 240.912C48.4356 240.74 48.3067 240.495 48.2807 240.229L47.5244 231.522L56.2319 230.755C56.4982 230.735 56.7617 230.82 56.9661 230.992C57.1705 231.164 57.2994 231.409 57.3254 231.675C57.3426 231.94 57.2562 232.2 57.0846 232.403C56.913 232.605 56.6695 232.732 56.4056 232.758L49.7013 233.351L50.2838 240.055C50.3039 240.32 50.2202 240.582 50.0505 240.786C49.8807 240.99 49.6382 241.12 49.3742 241.149Z" fill="#FFD651"/>
<path d="M90.8064 237.521C90.5416 237.541 90.2795 237.457 90.0754 237.287C89.8713 237.118 89.7413 236.875 89.7128 236.611L89.1303 229.897L82.4157 230.489C82.1494 230.509 81.8859 230.424 81.6815 230.252C81.4771 230.08 81.3482 229.835 81.3222 229.57C81.3022 229.303 81.3873 229.04 81.5592 228.835C81.7311 228.631 81.9762 228.502 82.242 228.476L90.9494 227.72L91.7159 236.427C91.7361 236.692 91.6524 236.954 91.4826 237.158C91.3128 237.362 91.0703 237.492 90.8064 237.521Z" fill="#FFD651"/>
<path d="M95.0982 275.038L86.3806 275.805C86.1143 275.825 85.8507 275.74 85.6463 275.568C85.442 275.396 85.313 275.151 85.287 274.885C85.2671 274.619 85.3522 274.355 85.5241 274.151C85.696 273.946 85.941 273.818 86.2068 273.792L92.9112 273.209L92.3286 266.505C92.3085 266.24 92.3922 265.978 92.562 265.774C92.7317 265.57 92.9742 265.44 93.2382 265.411C93.5029 265.391 93.7651 265.475 93.9692 265.644C94.1733 265.814 94.3033 266.057 94.3317 266.321L95.0982 275.038Z" fill="#FFD651"/>
<path d="M60.3712 278.074L51.6944 278.83L50.9279 270.112C50.9107 269.848 50.9971 269.587 51.1687 269.385C51.3403 269.183 51.5838 269.055 51.8477 269.029C52.1108 269.012 52.3703 269.097 52.5722 269.266C52.7741 269.436 52.9026 269.677 52.9311 269.939L53.5238 276.653L60.2281 276.06C60.4944 276.04 60.758 276.126 60.9624 276.297C61.1667 276.469 61.2957 276.714 61.3217 276.98C61.3314 277.114 61.3145 277.249 61.272 277.377C61.2294 277.505 61.162 277.623 61.0737 277.724C60.9854 277.826 60.8779 277.909 60.7573 277.969C60.6367 278.029 60.5055 278.065 60.3712 278.074Z" fill="#FFD651"/>
<path d="M90.1011 95.892L56.8043 98.7536L56.1196 90.9557C56.0695 87.2341 57.4285 83.6312 59.924 80.8698C62.4194 78.1083 65.8668 76.3925 69.5744 76.0666C73.2821 75.7407 76.9759 76.8288 79.9148 79.1126C82.8537 81.3964 84.8204 84.707 85.4203 88.3803L85.8087 92.918L90.6223 92.499L90.2237 87.9613C89.9996 85.4019 89.2735 82.9117 88.087 80.6329C86.9005 78.3541 85.2768 76.3313 83.3085 74.68C81.3403 73.0287 79.066 71.7813 76.6157 71.0089C74.1653 70.2365 71.5868 69.9543 69.0274 70.1785C63.8585 70.6311 59.0811 73.1186 55.7461 77.0937C54.0949 79.0619 52.8474 81.3362 52.075 83.7865C51.3027 86.2369 51.0205 88.8154 51.2446 91.3748L51.9294 99.2237C50.0334 99.5948 48.3416 100.654 47.1794 102.197C46.0172 103.74 45.4667 105.659 45.6339 107.584L48.0151 134.81C48.1 135.837 48.3871 136.838 48.8599 137.754C49.3327 138.671 49.9818 139.485 50.77 140.149C51.5581 140.814 52.4699 141.317 53.4528 141.628C54.4358 141.939 55.4705 142.053 56.4977 141.964L93.8314 138.704C94.859 138.619 95.8596 138.332 96.7759 137.859C97.6922 137.386 98.5061 136.737 99.1709 135.949C99.8356 135.161 100.338 134.249 100.649 133.266C100.961 132.283 101.075 131.248 100.985 130.221L98.6041 102.995C98.5129 101.97 98.2205 100.973 97.7437 100.061C97.2669 99.1492 96.6149 98.3403 95.8252 97.6806C95.0354 97.0209 94.1234 96.5233 93.1412 96.2164C92.159 95.9095 91.1259 95.7993 90.1011 95.892ZM75.9362 116.874L76.7537 126.245C76.8088 126.623 76.7862 127.007 76.6874 127.375C76.5887 127.743 76.4158 128.087 76.1794 128.386C75.943 128.685 75.648 128.933 75.3125 129.114C74.9771 129.295 74.6082 129.406 74.2285 129.439C73.8488 129.473 73.4662 129.428 73.1043 129.309C72.7424 129.189 72.4087 128.997 72.1236 128.744C71.8386 128.491 71.6082 128.182 71.4466 127.837C71.285 127.492 71.1956 127.117 71.1839 126.736L70.3662 117.354C69.5231 116.836 68.8649 116.066 68.4852 115.152C68.1055 114.238 68.0237 113.228 68.2516 112.265C68.4794 111.303 69.0052 110.436 69.7541 109.79C70.503 109.143 71.4368 108.749 72.4225 108.664C73.4083 108.579 74.3957 108.807 75.2442 109.316C76.0928 109.825 76.7591 110.589 77.1484 111.498C77.5377 112.408 77.6301 113.417 77.4125 114.382C77.1948 115.347 76.6782 116.219 75.9362 116.874Z" fill="#FF8B7B"/>
<path d="M147.189 111.621L143.827 106.112C142.132 106.353 140.412 106.353 138.717 106.112L135.344 111.6L134.7 111.426C132.515 110.851 130.418 109.981 128.466 108.841L127.894 108.514L129.314 102.545C129.342 102.429 129.392 102.32 129.462 102.224C129.532 102.128 129.621 102.046 129.722 101.985C129.824 101.923 129.937 101.882 130.055 101.864C130.172 101.846 130.293 101.852 130.408 101.881C130.64 101.937 130.84 102.082 130.964 102.285C131.089 102.488 131.128 102.733 131.072 102.964L129.948 107.614C131.4 108.406 132.931 109.043 134.516 109.515L137.807 104.14L138.41 104.242C140.319 104.548 142.265 104.548 144.174 104.242L144.767 104.14L148.058 109.515C149.644 109.046 151.176 108.409 152.626 107.614L151.165 101.482L151.655 101.125C152.987 100.165 154.18 99.0263 155.202 97.7418C155.344 97.5568 155.552 97.4342 155.783 97.3998C156.014 97.3655 156.249 97.4222 156.438 97.5579C156.538 97.6268 156.622 97.7153 156.686 97.8179C156.75 97.9206 156.792 98.0352 156.811 98.1548C156.829 98.2744 156.822 98.3964 156.792 98.5134C156.761 98.6305 156.707 98.74 156.632 98.8354C155.628 100.104 154.471 101.243 153.188 102.228L154.691 108.493L154.108 108.82C152.159 109.959 150.066 110.828 147.884 111.406L147.189 111.621ZM126.524 99.6223C126.248 99.3055 125.972 98.9682 125.707 98.6003L119.442 100.103L119.105 99.5303C117.973 97.5747 117.104 95.4786 116.519 93.2961L116.355 92.6523L121.844 89.2797C121.602 87.5849 121.602 85.8644 121.844 84.1697L116.355 80.8073L116.519 80.1532C117.104 77.974 117.973 75.8813 119.105 73.9292L119.442 73.3467L125.707 74.849C126.753 73.4802 127.976 72.2567 129.345 71.2107L128.211 66.4686C128.155 66.2369 128.194 65.9927 128.319 65.7896C128.443 65.5864 128.643 65.4411 128.875 65.3853C128.989 65.358 129.107 65.3536 129.223 65.3722C129.339 65.3909 129.45 65.4323 129.55 65.494C129.65 65.5558 129.736 65.6367 129.804 65.732C129.873 65.8274 129.922 65.9353 129.948 66.0496L131.369 71.9568L130.878 72.3042C129.304 73.4372 127.923 74.8177 126.79 76.3922L126.432 76.8828L120.3 75.4213C119.506 76.872 118.868 78.4035 118.399 79.9897L123.765 83.2805L123.673 83.8733C123.332 85.7795 123.332 87.7312 123.673 89.6374L123.765 90.2403L118.399 93.5312C118.87 95.1135 119.507 96.6414 120.3 98.0893L126.432 96.6278L126.79 97.1184C127.108 97.5818 127.449 98.0286 127.812 98.4572C127.97 98.6225 128.057 98.8421 128.057 99.0704C128.057 99.2987 127.97 99.5183 127.812 99.6836C127.725 99.767 127.622 99.8318 127.509 99.874C127.396 99.9163 127.276 99.9351 127.155 99.9293C127.035 99.9236 126.917 99.8934 126.808 99.8406C126.7 99.7879 126.603 99.7136 126.524 99.6223ZM163.051 100.123L160.741 99.5712C160.509 99.5155 160.309 99.3701 160.185 99.1669C160.06 98.9638 160.021 98.7196 160.077 98.4879C160.132 98.2562 160.278 98.0562 160.481 97.9316C160.684 97.8071 160.928 97.7682 161.16 97.8236L162.182 98.0586C162.972 96.6104 163.605 95.0825 164.073 93.5005L158.707 90.2097L158.809 89.6067C159.151 87.7005 159.151 85.7488 158.809 83.8426L158.707 83.2499L164.073 79.959C163.607 78.3731 162.973 76.8416 162.182 75.3907L156.05 76.8521L155.702 76.3616C154.567 74.7894 153.187 73.4092 151.614 72.2736L151.124 71.9261L152.585 65.7941C151.134 65.0026 149.603 64.3687 148.017 63.9034L144.696 69.32L144.103 69.2178C142.194 68.9111 140.248 68.9111 138.339 69.2178L137.736 69.32L134.476 63.9238L133.862 64.1078C133.644 64.1797 133.406 64.1633 133.2 64.0621C132.994 63.9608 132.835 63.7828 132.759 63.5661C132.716 63.4542 132.697 63.3349 132.701 63.2153C132.706 63.0958 132.734 62.9783 132.785 62.8698C132.835 62.7613 132.907 62.6639 132.995 62.5835C133.084 62.503 133.187 62.441 133.3 62.4011C133.75 62.258 134.21 62.1251 134.659 62.0025L135.303 61.8287L138.676 67.3271C140.37 67.0752 142.092 67.0752 143.786 67.3271L147.148 61.8287L147.802 62.0025C149.983 62.5846 152.076 63.4541 154.026 64.5881L154.609 64.9254L153.107 71.1903C154.477 72.234 155.701 73.4578 156.745 74.8286L163.01 73.3262L163.347 73.9088C164.483 75.8588 165.352 77.952 165.933 80.1328L166.106 80.7868L160.608 84.1492C160.863 85.843 160.863 87.5654 160.608 89.2592L166.106 92.6318L165.933 93.2757C165.352 95.4597 164.483 97.5563 163.347 99.5099L163.051 100.123ZM140.996 95.4832C138.769 95.395 136.657 94.4708 135.081 92.8949C133.505 91.319 132.581 89.2071 132.493 86.9802C132.432 84.7898 133.193 82.6561 134.627 80.9991C136.061 79.3421 138.063 78.282 140.24 78.0274C140.367 78.0115 140.497 78.0229 140.62 78.0608C140.743 78.0987 140.856 78.1622 140.953 78.2472C141.05 78.3322 141.127 78.4367 141.18 78.5539C141.233 78.671 141.261 78.7981 141.262 78.9268C141.261 79.1442 141.18 79.3536 141.035 79.5156C140.89 79.6775 140.691 79.7807 140.475 79.8057C138.96 79.9784 137.544 80.6436 136.445 81.6989C135.345 82.7543 134.622 84.1415 134.387 85.6475C134.152 87.1536 134.418 88.6951 135.143 90.0354C135.869 91.3757 137.015 92.4406 138.405 93.0666C139.795 93.6926 141.352 93.8449 142.837 93.5004C144.321 93.1558 145.652 92.3333 146.624 91.1592C147.596 89.9851 148.156 88.5244 148.217 87.0014C148.279 85.4783 147.839 83.9772 146.964 82.7286C146.838 82.5517 146.783 82.334 146.809 82.1183C146.836 81.9026 146.942 81.7047 147.107 81.5636C147.203 81.4788 147.315 81.4154 147.437 81.3774C147.559 81.3394 147.687 81.3278 147.814 81.3432C147.94 81.3587 148.062 81.4009 148.171 81.4671C148.28 81.5333 148.374 81.6219 148.446 81.7271C149.376 83.0571 149.917 84.6195 150.01 86.2396C150.103 87.8597 149.743 89.4736 148.971 90.9009C148.199 92.3283 147.045 93.5128 145.639 94.322C144.232 95.1312 142.628 95.5333 141.006 95.4832H140.996Z" fill="#FFD651"/>
<path d="M83.6932 186.431L81.5163 182.885C80.4152 183.048 79.296 183.048 78.1948 182.885L76.018 186.431L75.599 186.319C74.1881 185.946 72.8337 185.386 71.5723 184.653L71.2044 184.438L72.1242 180.575C72.1606 180.427 72.2538 180.298 72.3838 180.218C72.5138 180.138 72.6701 180.112 72.8191 180.146C72.8937 180.164 72.964 180.196 73.0259 180.241C73.0879 180.287 73.1403 180.344 73.1802 180.409C73.2201 180.475 73.2466 180.547 73.2583 180.623C73.27 180.699 73.2666 180.776 73.2484 180.851L72.533 183.856C73.4706 184.369 74.4608 184.78 75.4865 185.082L77.6123 181.617L77.9904 181.679C79.2255 181.883 80.4857 181.883 81.7207 181.679L82.0989 181.617L84.2348 185.082C85.255 184.774 86.2412 184.363 87.1782 183.856L86.238 179.911L86.5548 179.676C87.414 179.058 88.1843 178.326 88.8441 177.499C88.9338 177.377 89.068 177.296 89.2174 177.273C89.3667 177.25 89.5191 177.287 89.6412 177.376C89.704 177.421 89.7572 177.477 89.7979 177.543C89.8386 177.608 89.8659 177.681 89.8783 177.757C89.8907 177.833 89.8878 177.911 89.8699 177.986C89.852 178.061 89.8195 178.131 89.7741 178.194C89.123 179.013 88.3749 179.751 87.5461 180.391L88.5681 184.479L88.19 184.694C86.9294 185.429 85.5748 185.989 84.1633 186.359L83.6932 186.431ZM70.3459 178.674L69.8144 178.03L65.7264 178.991L65.5118 178.623C64.7918 177.356 64.2453 175.998 63.8868 174.586L63.7744 174.167L67.3208 171.99C67.1572 170.889 67.1572 169.77 67.3208 168.669L63.7744 166.492L63.8868 166.073C64.2573 164.661 64.8177 163.307 65.5527 162.046L65.7673 161.668L69.8553 162.69C70.5127 161.795 71.2782 160.985 72.1344 160.278L71.4088 157.212C71.3906 157.138 71.3873 157.061 71.3991 156.986C71.4109 156.911 71.4376 156.839 71.4776 156.774C71.5175 156.71 71.57 156.654 71.6319 156.609C71.6938 156.565 71.7638 156.534 71.838 156.517C71.987 156.483 72.1433 156.509 72.2733 156.589C72.4033 156.67 72.4966 156.798 72.533 156.946L73.4528 160.758L73.1257 160.993C72.1129 161.72 71.2257 162.607 70.4992 163.62L70.2641 163.937L66.3192 162.997C65.8117 163.934 65.4008 164.92 65.0928 165.94L68.5574 168.066L68.4961 168.454C68.3907 169.068 68.336 169.691 68.3325 170.314C68.3359 170.941 68.3906 171.566 68.4961 172.184L68.5574 172.562L65.0928 174.688C65.3988 175.712 65.8098 176.702 66.3192 177.642L70.2641 176.691L70.4992 177.008C70.7103 177.311 70.939 177.601 71.1839 177.877C71.2845 177.983 71.3406 178.124 71.3406 178.27C71.3406 178.417 71.2845 178.557 71.1839 178.664C71.1311 178.722 71.0668 178.769 70.9951 178.801C70.9233 178.833 70.8458 178.85 70.7671 178.851C70.6885 178.852 70.6105 178.837 70.538 178.807C70.4655 178.776 70.4001 178.731 70.3459 178.674ZM93.9438 178.991L92.4517 178.643C92.3772 178.625 92.3069 178.593 92.2449 178.548C92.1829 178.502 92.1305 178.445 92.0906 178.38C92.0508 178.314 92.0242 178.242 92.0125 178.166C92.0008 178.09 92.0042 178.013 92.0225 177.938C92.0393 177.864 92.0707 177.794 92.1149 177.732C92.1591 177.67 92.2152 177.618 92.2799 177.578C92.3446 177.538 92.4166 177.511 92.4918 177.499C92.5669 177.487 92.6436 177.491 92.7175 177.509L93.3613 177.662C93.875 176.725 94.2861 175.734 94.5877 174.709L91.1231 172.583L91.1845 172.205C91.2899 171.587 91.3446 170.961 91.348 170.334C91.3445 169.711 91.2898 169.089 91.1845 168.474L91.1231 168.086L94.5877 165.96C94.2842 164.939 93.8731 163.952 93.3613 163.017L89.4164 163.957L89.1813 163.64C88.4548 162.628 87.5676 161.74 86.5548 161.014L86.238 160.779L87.1782 156.834C86.2432 156.322 85.2566 155.911 84.2348 155.607L82.0989 159.072L81.7207 159.011C80.4857 158.806 79.2255 158.806 77.9904 159.011L77.6123 159.072L75.4865 155.607L75.088 155.73C74.9456 155.776 74.7911 155.764 74.6574 155.697C74.5237 155.63 74.4215 155.514 74.3726 155.372C74.345 155.301 74.3322 155.224 74.3349 155.147C74.3376 155.071 74.3556 154.995 74.3881 154.926C74.4205 154.856 74.4666 154.794 74.5236 154.742C74.5806 154.691 74.6474 154.651 74.72 154.626L75.599 154.361L76.018 154.258L78.1948 157.805C79.296 157.641 80.4152 157.641 81.5163 157.805L83.6932 154.258L84.1122 154.361C85.5226 154.739 86.8766 155.303 88.1389 156.037L88.517 156.251L87.495 160.339C88.375 161.02 89.1649 161.81 89.8456 162.69L93.9336 161.668L94.1483 162.046C94.8833 163.307 95.4437 164.661 95.8141 166.073L95.9265 166.492L92.3802 168.669C92.5437 169.77 92.5437 170.889 92.3802 171.99L95.9265 174.167L95.8141 174.586C95.4419 175.997 94.8816 177.351 94.1483 178.613L93.9438 178.991ZM79.6972 175.996C78.3085 175.901 77.0035 175.298 76.0316 174.301C75.0596 173.305 74.4888 171.985 74.4281 170.595C74.3674 169.204 74.8211 167.84 75.7026 166.762C76.5841 165.685 77.8315 164.97 79.2066 164.754C79.2886 164.746 79.3715 164.754 79.4499 164.78C79.5283 164.805 79.6007 164.846 79.6622 164.901C79.7238 164.956 79.7732 165.023 79.8074 165.098C79.8416 165.173 79.8597 165.254 79.8607 165.337C79.8615 165.479 79.8097 165.616 79.7153 165.721C79.6209 165.827 79.4906 165.894 79.3497 165.909C78.4877 166.008 77.6726 166.354 77.0027 166.905C76.3328 167.457 75.8368 168.19 75.5744 169.017C75.312 169.844 75.2945 170.729 75.524 171.566C75.7535 172.403 76.2201 173.155 76.8677 173.733C77.5152 174.31 78.316 174.688 79.1735 174.821C80.0309 174.953 80.9084 174.835 81.7002 174.48C82.4919 174.125 83.1641 173.549 83.6356 172.821C84.1071 172.092 84.3578 171.243 84.3575 170.375C84.3595 169.453 84.0737 168.552 83.5399 167.8C83.4619 167.684 83.4282 167.544 83.4451 167.405C83.462 167.266 83.5283 167.138 83.6319 167.044C83.6934 166.988 83.7661 166.947 83.8449 166.922C83.9238 166.897 84.0071 166.889 84.0893 166.898C84.1715 166.908 84.2507 166.935 84.3216 166.978C84.3925 167.02 84.4535 167.078 84.5006 167.146C85.0983 168.006 85.4458 169.015 85.5045 170.06C85.5632 171.106 85.3307 172.147 84.833 173.069C84.3352 173.99 83.5917 174.755 82.685 175.279C81.7783 175.803 80.744 176.066 79.6972 176.037V175.996Z" fill="#FFD651"/>
<path d="M228.5 388.194C337.939 388.194 426.656 383.015 426.656 376.625C426.656 370.236 337.939 365.056 228.5 365.056C119.062 365.056 30.3447 370.236 30.3447 376.625C30.3447 383.015 119.062 388.194 228.5 388.194Z" fill="#FF8282"/>
<path d="M344.445 100.828H311.169L287.663 369.87H320.939C325.61 369.78 330.086 367.984 333.523 364.821C336.961 361.658 339.123 357.347 339.601 352.7L360.133 117.988C360.372 115.801 360.141 113.588 359.458 111.497C358.774 109.406 357.653 107.485 356.168 105.861C354.684 104.238 352.871 102.949 350.849 102.081C348.828 101.213 346.645 100.786 344.445 100.828Z" fill="#C50B44"/>
<path d="M337.66 100.828H225.035C220.365 100.916 215.887 102.709 212.448 105.87C209.008 109.031 206.844 113.341 206.363 117.988L185.831 352.7C185.595 354.885 185.826 357.096 186.509 359.185C187.192 361.275 188.311 363.195 189.793 364.818C191.274 366.442 193.084 367.732 195.102 368.603C197.12 369.474 199.301 369.906 201.498 369.87H314.113C318.777 369.77 323.244 367.97 326.675 364.808C330.106 361.647 332.264 357.341 332.744 352.7L353.276 117.988C353.513 115.807 353.285 113.6 352.606 111.515C351.926 109.429 350.811 107.511 349.335 105.889C347.858 104.266 346.054 102.976 344.041 102.104C342.028 101.231 339.853 100.797 337.66 100.828Z" fill="#C50B44"/>
<path opacity="0.3" d="M337.66 100.828H225.035C220.365 100.916 215.887 102.709 212.448 105.87C209.008 109.031 206.844 113.341 206.363 117.988L185.831 352.7C185.595 354.885 185.826 357.096 186.509 359.185C187.192 361.275 188.311 363.195 189.793 364.818C191.274 366.442 193.084 367.732 195.102 368.603C197.12 369.474 199.301 369.906 201.498 369.87H314.113C318.777 369.77 323.244 367.97 326.675 364.808C330.106 361.647 332.264 357.341 332.744 352.7L353.276 117.988C353.513 115.807 353.285 113.6 352.606 111.515C351.926 109.429 350.811 107.511 349.335 105.889C347.858 104.266 346.054 102.976 344.041 102.104C342.028 101.231 339.853 100.797 337.66 100.828Z" fill="white"/>
<path opacity="0.4" d="M337.179 106.327H307.48C306.594 106.334 305.731 106.607 305.003 107.109C304.274 107.612 303.713 108.322 303.392 109.147C302.22 112.178 300.173 114.792 297.509 116.654C294.846 118.516 291.689 119.543 288.44 119.602H270.923C267.863 119.664 264.877 118.657 262.48 116.754C260.083 114.851 258.424 112.172 257.79 109.178C257.621 108.368 257.174 107.643 256.526 107.127C255.879 106.612 255.071 106.34 254.244 106.357H224.555C221.38 106.413 218.337 107.631 215.999 109.78C213.662 111.929 212.194 114.86 211.872 118.018L191.329 352.731C191.165 354.217 191.319 355.721 191.782 357.143C192.245 358.565 193.006 359.871 194.013 360.976C195.021 362.08 196.253 362.957 197.626 363.548C199 364.139 200.484 364.43 201.979 364.402H314.603C317.778 364.343 320.822 363.124 323.159 360.973C325.496 358.822 326.964 355.89 327.286 352.731L347.818 118.018C347.986 116.531 347.834 115.026 347.373 113.602C346.912 112.179 346.153 110.87 345.146 109.763C344.139 108.657 342.907 107.778 341.533 107.185C340.16 106.592 338.675 106.3 337.179 106.327Z" fill="white"/>
<path d="M309.115 233.862H230.298C229.757 233.871 229.219 233.765 228.722 233.55C228.224 233.335 227.778 233.018 227.413 232.617C227.047 232.217 226.771 231.744 226.603 231.229C226.434 230.714 226.377 230.17 226.435 229.631L226.834 225.114C226.951 223.968 227.483 222.905 228.331 222.126C229.178 221.346 230.281 220.904 231.433 220.883H310.26C310.801 220.874 311.339 220.98 311.836 221.195C312.334 221.409 312.78 221.727 313.145 222.127C313.51 222.527 313.786 223 313.955 223.515C314.124 224.03 314.181 224.575 314.123 225.114L313.734 229.631C313.615 230.779 313.078 231.843 312.227 232.623C311.376 233.402 310.269 233.843 309.115 233.862Z" fill="white"/>
<path d="M307.419 253.28H228.592C228.051 253.289 227.514 253.183 227.017 252.968C226.519 252.753 226.074 252.435 225.709 252.035C225.345 251.635 225.07 251.161 224.902 250.647C224.735 250.132 224.679 249.587 224.739 249.049L225.127 244.532C225.247 243.387 225.78 242.326 226.627 241.546C227.474 240.767 228.576 240.324 229.726 240.301H308.553C309.095 240.292 309.632 240.398 310.13 240.613C310.627 240.827 311.073 241.145 311.439 241.545C311.804 241.945 312.08 242.418 312.249 242.933C312.417 243.448 312.474 243.993 312.416 244.532L312.018 249.049C311.898 250.193 311.365 251.255 310.518 252.034C309.672 252.813 308.569 253.256 307.419 253.28Z" fill="white"/>
<path opacity="0.1" d="M285.169 110.721C285.039 111.993 284.447 113.173 283.506 114.038C282.564 114.902 281.338 115.391 280.059 115.412C279.458 115.423 278.862 115.306 278.31 115.068C277.758 114.831 277.263 114.478 276.858 114.034C276.453 113.591 276.147 113.066 275.961 112.494C275.774 111.923 275.712 111.319 275.777 110.721C275.907 109.449 276.499 108.269 277.441 107.405C278.383 106.54 279.609 106.051 280.887 106.03C281.488 106.019 282.084 106.137 282.636 106.374C283.188 106.612 283.683 106.964 284.088 107.408C284.493 107.852 284.799 108.377 284.986 108.948C285.172 109.519 285.235 110.124 285.169 110.721Z" fill="black"/>
<path opacity="0.1" d="M283.044 110.721C282.972 111.416 282.648 112.06 282.135 112.532C281.621 113.004 280.952 113.273 280.254 113.286C279.925 113.293 279.599 113.229 279.297 113.099C278.995 112.969 278.724 112.777 278.503 112.534C278.281 112.291 278.114 112.004 278.013 111.691C277.911 111.379 277.877 111.048 277.914 110.721C277.984 110.026 278.306 109.381 278.821 108.908C279.335 108.435 280.005 108.168 280.704 108.156C281.032 108.151 281.357 108.216 281.658 108.347C281.96 108.477 282.23 108.67 282.451 108.912C282.672 109.155 282.839 109.441 282.942 109.753C283.044 110.065 283.079 110.395 283.044 110.721Z" fill="black"/>
<g opacity="0.8">
<path d="M323.311 118.55C323.135 118.552 322.96 118.517 322.798 118.447C322.636 118.377 322.491 118.273 322.372 118.143C322.253 118.012 322.163 117.858 322.109 117.691C322.054 117.523 322.035 117.345 322.054 117.17L322.279 114.656C322.316 114.284 322.489 113.94 322.764 113.687C323.039 113.435 323.398 113.292 323.771 113.286C323.946 113.284 324.12 113.319 324.281 113.388C324.442 113.458 324.587 113.561 324.706 113.69C324.824 113.819 324.914 113.972 324.97 114.139C325.025 114.305 325.045 114.481 325.028 114.656L324.803 117.17C324.766 117.543 324.593 117.888 324.319 118.143C324.044 118.397 323.685 118.542 323.311 118.55Z" fill="white"/>
<path d="M334.308 118.55C334.132 118.552 333.957 118.517 333.795 118.447C333.633 118.377 333.488 118.273 333.369 118.143C333.25 118.012 333.161 117.858 333.106 117.691C333.051 117.523 333.032 117.345 333.051 117.17L333.572 111.273C333.61 110.902 333.783 110.557 334.058 110.304C334.333 110.052 334.691 109.909 335.064 109.904C335.24 109.901 335.414 109.936 335.575 110.006C335.736 110.075 335.881 110.178 335.999 110.307C336.118 110.436 336.208 110.589 336.263 110.756C336.319 110.922 336.339 111.098 336.321 111.273L335.8 117.17C335.763 117.543 335.591 117.888 335.316 118.143C335.041 118.397 334.682 118.542 334.308 118.55Z" fill="white"/>
<path d="M328.809 118.55C328.633 118.552 328.458 118.517 328.296 118.447C328.134 118.377 327.989 118.273 327.87 118.143C327.751 118.012 327.661 117.858 327.607 117.691C327.552 117.523 327.533 117.345 327.552 117.17L327.92 112.97C327.958 112.595 328.131 112.248 328.408 111.994C328.685 111.739 329.046 111.596 329.422 111.59C329.598 111.587 329.773 111.622 329.934 111.693C330.096 111.763 330.24 111.867 330.358 111.997C330.476 112.128 330.565 112.282 330.619 112.45C330.672 112.618 330.69 112.795 330.669 112.97L330.301 117.17C330.264 117.543 330.091 117.888 329.817 118.143C329.542 118.397 329.183 118.542 328.809 118.55Z" fill="white"/>
</g>
<g opacity="0.8">
<path d="M229.154 118.55H222.245C222.146 118.552 222.047 118.533 221.956 118.493C221.864 118.454 221.782 118.396 221.716 118.322C221.649 118.248 221.598 118.161 221.568 118.067C221.538 117.972 221.528 117.872 221.54 117.773L221.857 114.063C221.879 113.853 221.978 113.657 222.134 113.514C222.29 113.371 222.493 113.29 222.705 113.286H229.614C229.713 113.284 229.812 113.304 229.903 113.343C229.995 113.382 230.077 113.44 230.143 113.514C230.21 113.588 230.261 113.675 230.291 113.77C230.321 113.864 230.331 113.964 230.319 114.063L229.992 117.773C229.974 117.984 229.878 118.18 229.723 118.324C229.568 118.467 229.365 118.548 229.154 118.55Z" fill="white"/>
<path d="M232.353 117.538C232.253 117.54 232.154 117.521 232.062 117.482C231.97 117.442 231.888 117.384 231.82 117.311C231.753 117.237 231.701 117.15 231.67 117.056C231.638 116.961 231.627 116.861 231.637 116.761L231.791 115.065C231.811 114.853 231.909 114.657 232.066 114.513C232.222 114.37 232.427 114.29 232.639 114.288C232.738 114.286 232.837 114.305 232.929 114.344C233.02 114.384 233.102 114.442 233.169 114.516C233.235 114.589 233.286 114.676 233.316 114.771C233.346 114.866 233.356 114.966 233.344 115.065L233.201 116.761C233.179 116.972 233.08 117.167 232.924 117.31C232.768 117.453 232.565 117.534 232.353 117.538Z" fill="white"/>
</g>
<path d="M296.128 204.153C309.881 190.988 311.252 170.102 299.191 157.503C287.131 144.904 266.205 145.364 252.452 158.529C238.7 171.694 237.328 192.58 249.389 205.179C261.449 217.778 282.375 217.318 296.128 204.153Z" fill="white"/>
<path d="M274.408 180.084C265.742 180.084 258.414 183.385 257.791 190.55L257.096 198.511H288.502L289.197 190.55C289.82 183.385 283.085 180.084 274.408 180.084Z" fill="#C50B44"/>
<path d="M274.694 176.804C278.721 176.804 280.581 173.544 280.929 169.517C281.276 165.49 279.999 162.23 275.972 162.23C271.945 162.23 270.095 165.5 269.738 169.517C269.38 173.533 270.668 176.804 274.694 176.804Z" fill="#C50B44"/>
<path d="M305.518 227.096C303.382 227.096 301.573 227.914 301.43 229.682L301.256 231.654H309.013L309.187 229.682C309.33 227.914 307.664 227.096 305.518 227.096Z" fill="#C50B44"/>
<path d="M305.589 226.289C306.611 226.289 307.04 225.482 307.132 224.49C307.224 223.499 306.897 222.692 305.906 222.692C304.914 222.692 304.454 223.499 304.362 224.49C304.271 225.482 304.598 226.289 305.589 226.289Z" fill="#C50B44"/>
<path d="M281.644 272.698H250.984C250.152 272.713 249.327 272.551 248.563 272.222C247.8 271.894 247.114 271.406 246.554 270.792C245.993 270.178 245.569 269.452 245.311 268.662C245.053 267.871 244.966 267.035 245.056 266.208C245.238 264.451 246.056 262.821 247.357 261.625C248.658 260.43 250.352 259.752 252.118 259.719H282.778C283.609 259.705 284.433 259.868 285.196 260.198C285.959 260.527 286.644 261.014 287.204 261.628C287.764 262.241 288.188 262.967 288.447 263.757C288.706 264.546 288.794 265.382 288.706 266.208C288.526 267.967 287.708 269.598 286.407 270.794C285.105 271.99 283.411 272.667 281.644 272.698Z" fill="#C50B44"/>
<path d="M277.934 345.076H245.117C244.237 345.1 243.362 344.934 242.551 344.589C241.741 344.244 241.014 343.729 240.421 343.078C239.827 342.428 239.381 341.657 239.112 340.818C238.843 339.98 238.758 339.093 238.863 338.218L240.958 314.283C241.145 312.426 242.007 310.703 243.38 309.439C244.753 308.175 246.542 307.459 248.408 307.426H281.235C282.113 307.41 282.984 307.582 283.79 307.929C284.597 308.277 285.32 308.792 285.912 309.441C286.503 310.09 286.95 310.857 287.222 311.692C287.494 312.527 287.585 313.41 287.489 314.283L285.394 338.218C285.203 340.075 284.338 341.798 282.964 343.061C281.589 344.324 279.8 345.041 277.934 345.076Z" fill="#C50B44"/>
<g opacity="0.6">
<path d="M267.816 320.323C267.869 319.801 267.811 319.273 267.646 318.775C267.48 318.277 267.211 317.819 266.855 317.433C266.5 317.046 266.066 316.74 265.584 316.533C265.101 316.327 264.58 316.225 264.055 316.235C262.937 316.251 261.863 316.676 261.037 317.429C260.21 318.182 259.688 319.212 259.568 320.323C259.503 320.945 259.595 321.573 259.836 322.15C260.077 322.727 260.46 323.234 260.948 323.624L260.232 331.872C260.197 332.184 260.23 332.501 260.327 332.8C260.424 333.098 260.584 333.373 260.796 333.606C261.007 333.838 261.266 334.022 261.555 334.146C261.844 334.27 262.156 334.331 262.471 334.325C263.137 334.311 263.774 334.053 264.264 333.602C264.753 333.15 265.061 332.535 265.128 331.872L265.853 323.624C266.401 323.25 266.86 322.761 267.199 322.19C267.538 321.62 267.748 320.983 267.816 320.323Z" fill="white"/>
</g>
<path d="M281.522 312.413H277.29L278.312 300.568C278.491 298.924 278.318 297.261 277.804 295.689C277.291 294.117 276.449 292.672 275.335 291.451C274.22 290.229 272.859 289.258 271.341 288.603C269.822 287.948 268.182 287.623 266.529 287.65C263.015 287.719 259.648 289.07 257.061 291.449C254.475 293.829 252.847 297.072 252.486 300.568L251.464 312.413H247.233L248.255 300.568C248.731 295.929 250.889 291.624 254.322 288.466C257.754 285.309 262.224 283.517 266.886 283.429C269.081 283.392 271.259 283.821 273.274 284.69C275.29 285.559 277.098 286.846 278.578 288.467C280.057 290.088 281.176 292.006 281.858 294.092C282.54 296.178 282.77 298.386 282.533 300.568L281.522 312.413Z" fill="#C50B44"/>
<path d="M306.039 245.237L306.172 244.082C306.199 243.814 306.17 243.544 306.085 243.288C306.001 243.033 305.863 242.798 305.682 242.599C305.501 242.401 305.279 242.242 305.033 242.135C304.786 242.028 304.519 241.974 304.25 241.977C303.678 241.989 303.129 242.209 302.708 242.597C302.286 242.984 302.021 243.512 301.961 244.082L301.859 245.216C301.63 245.223 301.411 245.312 301.244 245.469C301.076 245.625 300.972 245.837 300.949 246.065L300.683 249.131C300.67 249.238 300.68 249.347 300.713 249.45C300.746 249.552 300.8 249.647 300.873 249.727C300.946 249.806 301.035 249.869 301.135 249.911C301.235 249.953 301.342 249.973 301.45 249.969H305.661C305.889 249.965 306.107 249.877 306.275 249.723C306.443 249.568 306.548 249.358 306.57 249.131L306.836 246.065C306.845 245.956 306.83 245.847 306.794 245.745C306.757 245.643 306.699 245.549 306.624 245.471C306.549 245.393 306.458 245.331 306.357 245.291C306.256 245.251 306.147 245.232 306.039 245.237ZM304.128 242.518C304.33 242.516 304.531 242.556 304.717 242.637C304.904 242.717 305.071 242.836 305.208 242.986C305.344 243.135 305.448 243.312 305.512 243.505C305.576 243.697 305.599 243.901 305.579 244.102L305.477 245.237H302.308L302.411 244.102C302.455 243.675 302.654 243.278 302.97 242.986C303.286 242.695 303.698 242.528 304.128 242.518Z" fill="#C50B44"/>
<path d="M242.655 246.453L241.183 246.146C241.142 246.138 241.103 246.12 241.07 246.095C241.037 246.07 241.01 246.037 240.991 245.999C240.973 245.962 240.963 245.921 240.962 245.879C240.962 245.837 240.971 245.796 240.989 245.758L241.602 244.307C241.628 244.244 241.63 244.174 241.609 244.11C241.588 244.046 241.545 243.991 241.487 243.955C241.43 243.92 241.361 243.906 241.294 243.916C241.227 243.926 241.166 243.96 241.122 244.01L240.008 245.155C239.981 245.189 239.947 245.217 239.908 245.236C239.869 245.254 239.826 245.264 239.783 245.264C239.74 245.264 239.697 245.254 239.658 245.236C239.619 245.217 239.585 245.189 239.558 245.155L238.648 244.01C238.454 243.765 238.035 244.01 238.107 244.307L238.464 245.758C238.475 245.8 238.477 245.845 238.469 245.888C238.462 245.931 238.446 245.972 238.422 246.008C238.398 246.045 238.366 246.076 238.33 246.099C238.293 246.123 238.252 246.139 238.209 246.146L236.686 246.453C236.359 246.514 236.318 246.974 236.635 247.036L238.107 247.342C238.148 247.35 238.187 247.367 238.22 247.393C238.253 247.419 238.28 247.452 238.298 247.49C238.316 247.527 238.324 247.569 238.323 247.611C238.322 247.653 238.311 247.694 238.291 247.731L237.698 249.192C237.672 249.255 237.67 249.324 237.691 249.389C237.712 249.453 237.755 249.508 237.813 249.543C237.87 249.579 237.939 249.593 238.006 249.583C238.073 249.573 238.134 249.539 238.178 249.488L239.292 248.344C239.321 248.313 239.356 248.288 239.394 248.271C239.433 248.254 239.475 248.246 239.517 248.246C239.559 248.246 239.601 248.254 239.64 248.271C239.678 248.288 239.713 248.313 239.742 248.344L240.652 249.488C240.846 249.734 241.265 249.488 241.183 249.192L240.825 247.741C240.81 247.654 240.83 247.565 240.879 247.493C240.929 247.42 241.005 247.37 241.091 247.352L242.614 247.046C242.931 246.974 242.972 246.514 242.655 246.453Z" fill="#263238"/>
<path d="M252.323 246.453L250.851 246.146C250.81 246.138 250.771 246.12 250.738 246.095C250.705 246.07 250.678 246.037 250.659 245.999C250.641 245.962 250.631 245.921 250.63 245.879C250.63 245.837 250.639 245.796 250.657 245.758L251.27 244.307C251.295 244.244 251.298 244.174 251.277 244.11C251.256 244.046 251.213 243.991 251.155 243.955C251.098 243.92 251.029 243.906 250.962 243.916C250.895 243.926 250.834 243.96 250.79 244.01L249.676 245.155C249.649 245.189 249.615 245.217 249.576 245.236C249.537 245.254 249.494 245.264 249.451 245.264C249.408 245.264 249.365 245.254 249.326 245.236C249.287 245.217 249.253 245.189 249.226 245.155L248.316 244.01C248.122 243.765 247.703 244.01 247.785 244.307L248.143 245.758C248.152 245.801 248.152 245.845 248.143 245.888C248.134 245.932 248.117 245.972 248.092 246.009C248.067 246.045 248.036 246.076 247.999 246.099C247.962 246.123 247.92 246.139 247.877 246.146L246.354 246.453C246.027 246.514 245.986 246.974 246.303 247.036L247.775 247.342C247.816 247.351 247.854 247.368 247.887 247.394C247.921 247.419 247.948 247.452 247.966 247.489C247.985 247.527 247.995 247.568 247.995 247.61C247.996 247.651 247.987 247.693 247.969 247.731L247.356 249.182C247.33 249.244 247.328 249.314 247.349 249.379C247.37 249.443 247.413 249.498 247.471 249.533C247.528 249.569 247.596 249.583 247.663 249.573C247.73 249.563 247.791 249.529 247.836 249.478L248.95 248.334C248.979 248.303 249.014 248.278 249.052 248.261C249.091 248.244 249.133 248.235 249.175 248.235C249.217 248.235 249.259 248.244 249.298 248.261C249.336 248.278 249.371 248.303 249.4 248.334L250.309 249.478C250.503 249.723 250.922 249.478 250.851 249.182L250.493 247.731C250.484 247.688 250.484 247.645 250.492 247.602C250.5 247.56 250.516 247.519 250.54 247.483C250.564 247.447 250.594 247.416 250.63 247.392C250.666 247.368 250.706 247.351 250.749 247.342L252.272 247.036C252.599 246.974 252.639 246.514 252.323 246.453Z" fill="#263238"/>
<path d="M261.99 246.453L260.529 246.146C260.487 246.14 260.447 246.124 260.412 246.099C260.378 246.074 260.35 246.041 260.331 246.003C260.312 245.965 260.302 245.922 260.303 245.88C260.304 245.837 260.314 245.796 260.335 245.758L260.948 244.307C260.987 244.242 260.999 244.164 260.981 244.09C260.962 244.016 260.916 243.953 260.851 243.913C260.786 243.874 260.708 243.862 260.634 243.88C260.56 243.899 260.496 243.945 260.457 244.01L259.353 245.155C259.326 245.189 259.291 245.217 259.251 245.236C259.211 245.255 259.167 245.264 259.123 245.264C259.079 245.264 259.036 245.255 258.996 245.236C258.956 245.217 258.921 245.189 258.893 245.155L257.984 244.01C257.79 243.765 257.371 244.01 257.452 244.307L257.81 245.758C257.819 245.8 257.82 245.844 257.812 245.886C257.804 245.929 257.787 245.969 257.763 246.006C257.74 246.042 257.709 246.073 257.673 246.097C257.637 246.121 257.597 246.138 257.555 246.146L256.032 246.453C255.705 246.514 255.664 246.974 255.981 247.036L257.442 247.342C257.483 247.351 257.522 247.368 257.555 247.394C257.588 247.419 257.615 247.452 257.634 247.489C257.653 247.527 257.662 247.568 257.663 247.61C257.663 247.651 257.654 247.693 257.636 247.731L257.023 249.182C256.984 249.247 256.972 249.325 256.99 249.399C257.009 249.472 257.055 249.536 257.12 249.575C257.185 249.615 257.263 249.626 257.337 249.608C257.411 249.59 257.475 249.543 257.514 249.478L258.618 248.334C258.646 248.303 258.681 248.278 258.72 248.261C258.758 248.244 258.8 248.235 258.842 248.235C258.885 248.235 258.926 248.244 258.965 248.261C259.004 248.278 259.039 248.303 259.067 248.334L259.987 249.478C260.181 249.723 260.6 249.478 260.518 249.182L260.161 247.731C260.145 247.645 260.163 247.558 260.211 247.485C260.258 247.413 260.332 247.362 260.416 247.342L261.939 247.036C262.225 246.974 262.307 246.514 261.99 246.453Z" fill="#263238"/>
<path d="M271.669 246.453L270.197 246.146C270.156 246.138 270.118 246.12 270.084 246.095C270.051 246.07 270.024 246.037 270.006 245.999C269.987 245.962 269.977 245.921 269.976 245.879C269.976 245.837 269.985 245.796 270.003 245.758L270.616 244.307C270.642 244.244 270.644 244.174 270.623 244.11C270.602 244.046 270.559 243.991 270.501 243.955C270.444 243.92 270.375 243.906 270.308 243.916C270.242 243.926 270.18 243.96 270.136 244.01L269.022 245.155C268.995 245.189 268.961 245.217 268.922 245.236C268.883 245.254 268.84 245.264 268.797 245.264C268.754 245.264 268.711 245.254 268.672 245.236C268.633 245.217 268.599 245.189 268.572 245.155L267.663 244.01C267.468 243.765 267.049 244.01 267.121 244.307L267.479 245.758C267.489 245.8 267.491 245.845 267.483 245.888C267.476 245.931 267.46 245.972 267.436 246.008C267.412 246.045 267.38 246.076 267.344 246.099C267.307 246.123 267.266 246.139 267.223 246.146L265.7 246.453C265.373 246.514 265.332 246.974 265.7 247.036L267.172 247.342C267.213 247.35 267.252 247.367 267.285 247.393C267.318 247.419 267.345 247.452 267.363 247.49C267.381 247.527 267.389 247.569 267.388 247.611C267.387 247.653 267.376 247.694 267.356 247.731L266.753 249.182C266.727 249.244 266.725 249.314 266.746 249.379C266.767 249.443 266.81 249.498 266.868 249.533C266.925 249.569 266.994 249.583 267.061 249.573C267.128 249.563 267.189 249.529 267.233 249.478L268.347 248.334C268.376 248.303 268.411 248.278 268.449 248.261C268.488 248.244 268.53 248.235 268.572 248.235C268.614 248.235 268.656 248.244 268.695 248.261C268.733 248.278 268.768 248.303 268.797 248.334L269.707 249.478C269.901 249.723 270.32 249.478 270.238 249.182L269.88 247.731C269.865 247.644 269.885 247.555 269.934 247.482C269.984 247.41 270.06 247.36 270.146 247.342L271.669 247.036C271.945 246.974 271.986 246.514 271.669 246.453Z" fill="#263238"/>
<path d="M281.337 246.453L279.866 246.146C279.825 246.138 279.786 246.12 279.753 246.095C279.72 246.07 279.693 246.037 279.674 245.999C279.655 245.962 279.645 245.921 279.645 245.879C279.644 245.837 279.654 245.796 279.671 245.758L280.285 244.307C280.31 244.244 280.313 244.174 280.292 244.11C280.271 244.046 280.227 243.991 280.17 243.955C280.112 243.92 280.044 243.906 279.977 243.916C279.91 243.926 279.849 243.96 279.804 244.01L278.69 245.155C278.664 245.189 278.629 245.217 278.59 245.236C278.551 245.254 278.509 245.264 278.465 245.264C278.422 245.264 278.379 245.254 278.341 245.236C278.302 245.217 278.267 245.189 278.241 245.155L277.331 244.01C277.137 243.765 276.718 244.01 276.8 244.307L277.157 245.758C277.166 245.801 277.166 245.845 277.158 245.888C277.149 245.932 277.132 245.972 277.107 246.009C277.082 246.045 277.05 246.076 277.013 246.099C276.976 246.123 276.935 246.139 276.892 246.146L275.369 246.453C275.042 246.514 275.001 246.974 275.318 247.036L276.789 247.342C276.83 247.351 276.869 247.368 276.902 247.394C276.935 247.419 276.962 247.452 276.981 247.489C277 247.527 277.01 247.568 277.01 247.61C277.011 247.651 277.001 247.693 276.984 247.731L276.37 249.182C276.345 249.244 276.342 249.314 276.363 249.379C276.384 249.443 276.428 249.498 276.485 249.533C276.543 249.569 276.611 249.583 276.678 249.573C276.745 249.563 276.806 249.529 276.851 249.478L277.965 248.334C277.993 248.303 278.028 248.278 278.067 248.261C278.106 248.244 278.147 248.235 278.19 248.235C278.232 248.235 278.274 248.244 278.312 248.261C278.351 248.278 278.386 248.303 278.414 248.334L279.324 249.478C279.518 249.723 279.937 249.478 279.866 249.182L279.508 247.731C279.499 247.688 279.498 247.645 279.507 247.602C279.515 247.56 279.531 247.519 279.555 247.483C279.578 247.447 279.609 247.416 279.645 247.392C279.681 247.368 279.721 247.351 279.763 247.342L281.286 247.036C281.644 246.974 281.644 246.514 281.337 246.453Z" fill="#263238"/>
<path d="M291.005 246.453L289.533 246.146C289.492 246.139 289.453 246.121 289.42 246.096C289.387 246.07 289.36 246.037 289.342 245.999C289.324 245.961 289.316 245.92 289.317 245.878C289.318 245.836 289.329 245.795 289.349 245.758L289.962 244.307C289.982 244.275 289.995 244.239 290 244.202C290.006 244.165 290.004 244.127 289.995 244.09C289.986 244.053 289.97 244.019 289.948 243.989C289.926 243.958 289.898 243.933 289.865 243.913C289.833 243.894 289.797 243.881 289.76 243.875C289.723 243.87 289.685 243.871 289.648 243.88C289.612 243.889 289.578 243.906 289.547 243.928C289.517 243.95 289.491 243.978 289.472 244.01L288.368 245.155C288.34 245.189 288.305 245.217 288.265 245.236C288.226 245.255 288.182 245.265 288.138 245.265C288.094 245.265 288.051 245.255 288.011 245.236C287.971 245.217 287.936 245.189 287.908 245.155L286.999 244.01C286.804 243.765 286.385 244.01 286.467 244.307L286.825 245.758C286.834 245.8 286.834 245.844 286.826 245.887C286.818 245.929 286.802 245.969 286.778 246.006C286.754 246.042 286.724 246.073 286.688 246.097C286.652 246.121 286.612 246.138 286.569 246.146L285.047 246.453C284.719 246.514 284.679 246.974 284.995 247.036L286.457 247.342C286.498 247.351 286.536 247.368 286.57 247.394C286.603 247.419 286.63 247.452 286.648 247.489C286.667 247.527 286.677 247.568 286.678 247.61C286.678 247.651 286.669 247.693 286.651 247.731L286.038 249.182C285.999 249.247 285.987 249.325 286.005 249.399C286.023 249.472 286.07 249.536 286.135 249.575C286.2 249.615 286.278 249.626 286.352 249.608C286.426 249.59 286.489 249.543 286.528 249.478L287.632 248.334C287.661 248.303 287.696 248.278 287.734 248.261C287.773 248.244 287.815 248.235 287.857 248.235C287.899 248.235 287.941 248.244 287.98 248.261C288.018 248.278 288.053 248.303 288.082 248.334L288.991 249.478C289.039 249.532 289.103 249.567 289.174 249.58C289.245 249.592 289.317 249.58 289.38 249.545C289.443 249.511 289.492 249.456 289.52 249.39C289.548 249.324 289.553 249.251 289.533 249.182L289.175 247.731C289.16 247.645 289.178 247.558 289.226 247.485C289.273 247.413 289.347 247.362 289.431 247.342L290.954 247.036C291.281 246.974 291.322 246.514 291.005 246.453Z" fill="#263238"/>
<path d="M267.694 225.287H249.543C248.986 225.297 248.452 225.51 248.041 225.887C247.631 226.263 247.373 226.777 247.315 227.331C247.286 227.592 247.313 227.856 247.394 228.106C247.475 228.355 247.609 228.585 247.786 228.778C247.963 228.972 248.18 229.125 248.421 229.228C248.662 229.331 248.923 229.381 249.185 229.375H267.336C267.893 229.366 268.427 229.153 268.838 228.776C269.248 228.399 269.507 227.886 269.564 227.331C269.592 227.071 269.564 226.808 269.482 226.559C269.4 226.31 269.266 226.082 269.089 225.888C268.912 225.695 268.697 225.542 268.456 225.438C268.216 225.334 267.956 225.283 267.694 225.287Z" fill="#263238"/>
<path d="M286.13 225.287H275.593C275.038 225.297 274.505 225.511 274.096 225.888C273.687 226.264 273.431 226.778 273.376 227.331C273.347 227.591 273.373 227.854 273.454 228.103C273.535 228.352 273.667 228.581 273.843 228.774C274.019 228.968 274.235 229.121 274.475 229.225C274.715 229.329 274.974 229.38 275.236 229.375H285.732C286.288 229.366 286.82 229.152 287.229 228.775C287.638 228.398 287.894 227.885 287.949 227.331C287.978 227.075 287.952 226.815 287.874 226.569C287.796 226.323 287.667 226.097 287.495 225.904C287.324 225.711 287.114 225.557 286.878 225.45C286.643 225.344 286.388 225.289 286.13 225.287Z" fill="#263238"/>
<path d="M300.04 317.932C293.624 320.375 287.833 324.215 283.085 329.174C280.202 326.935 276.765 325.522 273.141 325.086L272.66 325.014L272.456 327.426L272.722 327.528C276.696 328.992 280.057 331.758 282.257 335.377L282.605 335.95L282.983 335.336C287.215 328.58 293.188 323.087 300.275 319.434L300.51 319.311L300.643 317.717L300.04 317.932Z" fill="#263238"/>
<path opacity="0.2" d="M208.714 116.71C207.411 118.984 206.61 121.511 206.363 124.12L191.146 298.084H238.239L247.703 261.814L244.586 225.533L254.05 189.262L250.984 152.991L260.447 116.71H208.714Z" fill="black"/>
<path d="M246.844 142.771L256.308 106.49H137.214L127.761 142.771L130.868 179.042L121.414 215.313L124.521 251.594L115.067 287.864H234.151L243.615 251.594L240.497 215.313L249.961 179.042L246.844 142.771Z" fill="#C50B44"/>
<path opacity="0.7" d="M246.844 142.771L256.308 106.49H137.214L127.761 142.771L130.868 179.042L121.414 215.313L124.521 251.594L115.067 287.864H234.151L243.615 251.594L240.497 215.313L249.961 179.042L246.844 142.771Z" fill="white"/>
<path opacity="0.5" d="M246.844 142.771H127.761L137.214 106.49H256.308L246.844 142.771Z" fill="white"/>
<path opacity="0.5" d="M240.497 215.313H121.414L130.868 179.042H249.961L240.497 215.313Z" fill="white"/>
<path opacity="0.5" d="M234.151 287.864H115.058L124.521 251.594H243.615L234.151 287.864Z" fill="white"/>
<path opacity="0.2" d="M230.912 157.927C229.69 158.281 228.423 158.453 227.151 158.438C225.426 158.515 223.709 158.164 222.153 157.416C221.872 157.25 221.55 157.161 221.223 157.161C220.923 157.165 220.628 157.242 220.365 157.386H220.303C219.847 157.642 219.359 157.838 218.852 157.968C217.708 158.27 216.53 158.418 215.347 158.408C214.989 158.408 214.641 158.408 214.325 158.408C213.407 158.349 212.498 158.188 211.616 157.927C211.487 157.889 211.353 157.865 211.218 157.856C210.993 157.838 210.767 157.866 210.554 157.939C210.34 158.012 210.144 158.129 209.978 158.282C209.812 158.434 209.68 158.62 209.589 158.826C209.498 159.032 209.45 159.255 209.45 159.481V160.585H163.092C162.24 160.585 161.397 160.753 160.61 161.079C159.823 161.405 159.108 161.883 158.507 162.486C157.905 163.089 157.428 163.804 157.103 164.592C156.778 165.379 156.611 166.223 156.612 167.074V173.605C156.61 174.457 156.775 175.302 157.1 176.091C157.424 176.879 157.901 177.596 158.503 178.2C159.105 178.804 159.82 179.283 160.607 179.61C161.395 179.937 162.239 180.105 163.092 180.105H215.755H216.103C216.665 180.575 217.258 181.045 217.891 181.525C218.525 182.006 219.424 182.67 220.252 183.263C220.535 183.467 220.874 183.577 221.223 183.577C221.572 183.577 221.912 183.467 222.194 183.263C228.817 178.459 233.068 175.148 233.068 166.052V159.511C233.071 159.25 233.012 158.991 232.895 158.757C232.779 158.523 232.608 158.32 232.397 158.165C232.186 158.01 231.941 157.908 231.683 157.867C231.425 157.825 231.16 157.846 230.912 157.927Z" fill="black"/>
<path d="M214.744 156.997H162.09C158.506 156.997 155.601 159.903 155.601 163.487V170.018C155.601 173.602 158.506 176.507 162.09 176.507H214.744C218.328 176.507 221.233 173.602 221.233 170.018V163.487C221.233 159.903 218.328 156.997 214.744 156.997Z" fill="#C50B44"/>
<path d="M226.138 154.841C224.414 154.915 222.698 154.564 221.141 153.819C220.864 153.649 220.546 153.559 220.221 153.559C219.896 153.559 219.578 153.649 219.301 153.819C217.741 154.565 216.021 154.916 214.293 154.841C213.022 154.855 211.755 154.682 210.532 154.33C210.286 154.247 210.024 154.224 209.767 154.263C209.51 154.302 209.266 154.401 209.055 154.553C208.845 154.705 208.673 154.905 208.555 155.136C208.437 155.367 208.375 155.624 208.376 155.883V162.424C208.376 171.53 212.627 174.842 219.25 179.645C219.532 179.849 219.872 179.959 220.221 179.959C220.57 179.959 220.909 179.849 221.192 179.645C227.814 174.842 232.066 171.53 232.066 162.424V155.883C232.065 155.623 232.002 155.367 231.883 155.136C231.763 154.905 231.591 154.705 231.379 154.553C231.168 154.402 230.923 154.303 230.666 154.264C230.409 154.225 230.146 154.248 229.899 154.33C228.677 154.683 227.41 154.855 226.138 154.841Z" fill="#C50B44"/>
<path opacity="0.3" d="M226.138 154.841C224.414 154.915 222.698 154.564 221.141 153.819C220.864 153.649 220.546 153.559 220.221 153.559C219.896 153.559 219.578 153.649 219.301 153.819C217.741 154.565 216.021 154.916 214.293 154.841C213.022 154.855 211.755 154.682 210.532 154.33C210.286 154.247 210.024 154.224 209.767 154.263C209.51 154.302 209.266 154.401 209.055 154.553C208.845 154.705 208.673 154.905 208.555 155.136C208.437 155.367 208.375 155.624 208.376 155.883V162.424C208.376 171.53 212.627 174.842 219.25 179.645C219.532 179.849 219.872 179.959 220.221 179.959C220.57 179.959 220.909 179.849 221.192 179.645C227.814 174.842 232.066 171.53 232.066 162.424V155.883C232.065 155.623 232.002 155.367 231.883 155.136C231.763 154.905 231.591 154.705 231.379 154.553C231.168 154.402 230.923 154.303 230.666 154.264C230.409 154.225 230.146 154.248 229.899 154.33C228.677 154.683 227.41 154.855 226.138 154.841Z" fill="white"/>
<path opacity="0.2" d="M219.301 153.799C217.741 154.545 216.021 154.896 214.293 154.821C213.022 154.833 211.755 154.661 210.532 154.31C210.286 154.227 210.024 154.204 209.767 154.243C209.51 154.281 209.266 154.381 209.055 154.533C208.845 154.684 208.673 154.884 208.555 155.116C208.437 155.347 208.375 155.603 208.376 155.863V162.404C208.376 171.51 212.627 174.821 219.25 179.624C219.547 179.84 219.906 179.951 220.272 179.941V153.533C219.93 153.526 219.592 153.618 219.301 153.799Z" fill="white"/>
<path d="M229.716 160.646C225.732 162.207 222.184 164.707 219.373 167.933C217.413 166.488 215.116 165.57 212.7 165.265H212.383V166.829L212.557 166.89C215.244 167.86 217.56 169.647 219.179 172L219.435 172.368L219.649 171.97C221.999 167.603 225.577 164.022 229.941 161.668L230.094 161.596V160.574L229.716 160.646Z" fill="#263238"/>
<path d="M254.203 116.7H249.685C249.104 116.711 248.528 116.597 247.994 116.368C247.46 116.138 246.981 115.797 246.589 115.368C246.198 114.938 245.902 114.43 245.722 113.877C245.542 113.325 245.482 112.74 245.546 112.162L245.945 107.645C246.067 106.416 246.637 105.276 247.545 104.439C248.453 103.603 249.637 103.129 250.871 103.107H255.388C255.97 103.095 256.548 103.207 257.083 103.436C257.618 103.665 258.099 104.006 258.491 104.436C258.884 104.865 259.181 105.374 259.361 105.927C259.542 106.481 259.602 107.066 259.538 107.645L259.139 112.162C259.001 113.387 258.426 114.52 257.519 115.354C256.612 116.188 255.434 116.666 254.203 116.7Z" fill="#C50B44"/>
<path d="M256.083 107.635L255.102 106.551L252.629 108.82L250.565 106.551L249.389 107.635L251.464 109.904L249.001 112.172L249.982 113.246L252.445 110.977L254.52 113.246L255.685 112.172L253.61 109.904L256.083 107.635Z" fill="white"/>
<path d="M153.251 155.669C155.867 158.52 158.361 161.474 160.844 164.448C163.328 167.422 165.729 170.457 168.121 173.503C168.223 173.636 168.182 173.584 168.203 173.625C168.223 173.666 168.203 173.676 168.203 173.687C168.221 173.725 168.245 173.759 168.274 173.789C168.361 173.913 168.472 174.018 168.6 174.099C168.728 174.179 168.871 174.234 169.02 174.259C169.136 174.275 169.252 174.275 169.368 174.259C169.429 174.264 169.491 174.264 169.552 174.259H169.644C169.695 174.259 169.644 174.259 169.807 174.198L172.362 172.808C175.796 170.989 179.261 169.21 182.838 167.616L185.832 171.326C182.95 173.973 179.945 177.294 176.91 179.727L174.621 181.525C174.479 181.641 174.328 181.747 174.171 181.842C173.998 181.966 173.817 182.078 173.63 182.179C173.26 182.393 172.877 182.584 172.485 182.752C171.693 183.085 170.862 183.315 170.012 183.437C168.292 183.689 166.537 183.513 164.902 182.926C164.07 182.63 163.28 182.228 162.551 181.73C162.183 181.485 161.836 181.198 161.529 180.922C161.355 180.779 161.212 180.616 161.049 180.463L160.64 180.054C157.932 177.274 155.264 174.474 152.648 171.622C150.032 168.771 147.446 165.899 144.973 162.915L153.251 155.669Z" fill="#B55B52"/>
<path d="M181.488 169.864L183.87 162.21L190.145 165.337C190.145 165.337 189.225 170.917 184.667 171.888L181.488 169.864Z" fill="#B55B52"/>
<path d="M186.373 160.094L192.035 161.647L190.134 165.337L183.859 162.21L186.373 160.094Z" fill="#B55B52"/>
<path d="M120.26 157.754C119.585 161.004 118.747 164.223 117.879 167.432C117.01 170.641 116.06 173.82 115.068 176.998L114.7 178.194L114.516 178.786C114.492 178.872 114.457 178.954 114.414 179.032C114.298 179.36 114.232 179.705 114.22 180.054C114.198 180.796 114.405 181.528 114.813 182.149C115.014 182.421 115.236 182.678 115.477 182.915L116.325 183.845L118.001 185.716C119.095 186.983 120.199 188.25 121.241 189.579L117.674 193.667C116.203 192.829 114.792 191.919 113.382 191.02L111.287 189.63L110.265 188.925C109.917 188.679 109.631 188.516 109.069 188.056C107.069 186.352 105.69 184.034 105.145 181.464C104.87 180.154 104.805 178.809 104.95 177.478C104.95 177.151 105.053 176.783 105.104 176.456L105.216 175.843L105.431 174.617C106.003 171.336 106.616 168.066 107.301 164.816C107.986 161.566 108.722 158.326 109.59 155.127L120.26 157.754Z" fill="#B55B52"/>
<path d="M117.746 189.252L121.957 187.095L123.817 194.249C123.817 194.249 120.434 195.547 117.818 193.881L117.746 189.252Z" fill="#B55B52"/>
<path d="M127.782 184.796L127.977 191.377L123.265 194.454L121.63 187.228L127.782 184.796Z" fill="#B55B52"/>
<path d="M141.569 123.966C141.672 124.467 142.029 124.825 142.356 124.763C142.683 124.702 142.877 124.232 142.775 123.741C142.673 123.251 142.315 122.883 141.988 122.944C141.661 123.006 141.467 123.486 141.569 123.966Z" fill="#263238"/>
<path d="M141.978 124.835C142.898 126.26 144.008 127.553 145.279 128.678C144.983 128.996 144.621 129.246 144.219 129.411C143.816 129.575 143.383 129.649 142.948 129.628L141.978 124.835Z" fill="#FFD651"/>
<path d="M139.147 121.534C139.088 121.533 139.03 121.516 138.981 121.483C138.932 121.451 138.893 121.405 138.87 121.351C138.846 121.297 138.838 121.237 138.848 121.179C138.857 121.121 138.883 121.067 138.922 121.023C139.242 120.661 139.643 120.38 140.092 120.202C140.542 120.024 141.026 119.956 141.508 120.001C141.547 120.008 141.585 120.023 141.619 120.045C141.652 120.067 141.681 120.096 141.704 120.129C141.727 120.162 141.743 120.2 141.751 120.239C141.76 120.278 141.76 120.319 141.753 120.359C141.747 120.398 141.733 120.435 141.712 120.469C141.691 120.503 141.663 120.532 141.631 120.555C141.599 120.578 141.562 120.594 141.523 120.602C141.484 120.611 141.444 120.611 141.405 120.604C141.024 120.567 140.64 120.623 140.284 120.765C139.929 120.907 139.612 121.132 139.361 121.422C139.307 121.485 139.23 121.525 139.147 121.534Z" fill="#263238"/>
<path d="M126.832 131.09C127.956 135.781 129.09 144.376 125.063 147.493C125.063 147.493 126.637 152.255 137.327 152.255C149.08 152.255 142.948 149.189 142.948 149.189C136.53 147.942 136.694 142.373 137.838 138.724L126.832 131.09Z" fill="#B55B52"/>
<path d="M123.807 148.361C123.112 147.064 122.335 145.571 123.93 145.101C125.688 144.59 136.96 143.64 140.282 144.601C139.26 146.409 140.987 148.689 140.987 148.689L123.807 148.361Z" fill="#263238"/>
<path d="M133.147 367.662H140.516L141.252 352.823H133.873L133.147 367.662Z" fill="#B55B52"/>
<path d="M86.3506 365.618L93.8214 366.017L98.3591 351.392L90.8883 350.993L86.3506 365.618Z" fill="#B55B52"/>
<path d="M93.5963 365.424L86.5547 363.901C86.4314 363.873 86.3022 363.888 86.1887 363.944C86.0752 364 85.9843 364.093 85.9313 364.208L83.4887 369.512C83.4286 369.641 83.3988 369.782 83.4015 369.924C83.4043 370.066 83.4396 370.205 83.5048 370.332C83.5699 370.458 83.6631 370.568 83.7773 370.652C83.8914 370.737 84.0234 370.795 84.1632 370.82C86.6262 371.311 87.8526 371.423 90.9493 372.098C92.8502 372.507 97.1528 373.559 99.7794 374.142C102.406 374.724 103.316 372.19 102.294 371.72C97.6945 369.624 95.7731 367.775 94.5263 366.047C94.3025 365.733 93.9718 365.512 93.5963 365.424Z" fill="#263238"/>
<path d="M140.128 366.916H133.127C133 366.918 132.878 366.962 132.78 367.042C132.681 367.121 132.613 367.232 132.585 367.356L131.318 373.048C131.285 373.186 131.285 373.329 131.316 373.468C131.347 373.606 131.409 373.735 131.498 373.845C131.587 373.956 131.7 374.045 131.828 374.105C131.956 374.165 132.096 374.195 132.238 374.193C134.762 374.193 138.37 373.999 141.589 373.999C145.299 373.999 148.498 374.203 152.831 374.203C155.458 374.203 156.194 371.546 155.09 371.301C150.072 370.207 145.984 370.084 141.651 367.417C141.198 367.115 140.671 366.942 140.128 366.916Z" fill="#263238"/>
<path d="M111.706 149.659C106.146 152.306 104.634 168.352 104.634 168.352L118.4 174.709C120.727 170.784 121.995 166.322 122.079 161.76C122.355 153.471 117.399 146.992 111.706 149.659Z" fill="#263238"/>
<path opacity="0.4" d="M119.146 159.552C116.663 163.416 116.898 169.384 117.756 174.422L118.37 174.709C120.694 170.783 121.962 166.322 122.049 161.76C122.049 161.269 122.049 160.738 122.049 160.298L119.146 159.552Z" fill="black"/>
<path d="M150.123 149.271C150.123 149.271 156.95 156.977 150.501 204.663H116.233C115.998 199.4 119.299 173.738 114.189 148.944C117.977 148.215 121.807 147.731 125.656 147.493C130.51 147.217 135.376 147.217 140.23 147.493C143.568 147.831 146.876 148.425 150.123 149.271Z" fill="#C50B44"/>
<path opacity="0.6" d="M150.123 149.271C150.123 149.271 156.95 156.977 150.501 204.663H116.233C115.998 199.4 119.299 173.738 114.189 148.944C117.977 148.215 121.807 147.731 125.656 147.493C130.51 147.217 135.376 147.217 140.23 147.493C143.568 147.831 146.876 148.425 150.123 149.271Z" fill="#FFDB64"/>
<path opacity="0.2" d="M153.117 163.845L152.994 163.732L146.178 160.094C145.483 170.59 150.174 177.172 152.964 180.043C153.314 174.651 153.365 169.243 153.117 163.845Z" fill="black"/>
<path opacity="0.2" d="M141.252 352.823L140.874 360.478H133.495L133.873 352.823H141.252Z" fill="black"/>
<path opacity="0.2" d="M90.8882 351.004L98.3591 351.392L96.0187 358.934L88.5479 358.536L90.8882 351.004Z" fill="black"/>
<path d="M124.461 126.327C126.106 132.459 126.76 136.149 130.593 138.704C136.295 142.546 143.388 138.131 143.613 131.621C143.807 125.765 141.089 116.7 134.497 115.463C133.041 115.175 131.536 115.265 130.126 115.725C128.715 116.184 127.446 116.998 126.439 118.087C125.432 119.177 124.722 120.507 124.376 121.949C124.029 123.392 124.058 124.899 124.461 126.327Z" fill="#B55B52"/>
<path d="M138.349 204.663C138.349 204.663 131.073 253.627 127.107 271.983C122.713 292.116 99.2681 358.546 99.2681 358.546L87.791 356.063C87.791 356.063 102.498 301.897 106.187 273.812C107.618 262.846 109.345 245.196 111.532 230.449C113.648 216.141 116.254 204.674 116.254 204.674L138.349 204.663Z" fill="#263238"/>
<path d="M102.017 354.713L99.8713 358.863L86.9736 356.063L88.057 352.189L102.017 354.713Z" fill="#C50B44"/>
<path opacity="0.6" d="M102.017 354.713L99.8713 358.863L86.9736 356.063L88.057 352.189L102.017 354.713Z" fill="white"/>
<path opacity="0.6" d="M133.75 222.109C125.339 223.754 126.229 255.12 127.24 271.247C129.673 259.841 133.219 237.909 135.641 222.334C135.055 222.045 134.388 221.966 133.75 222.109Z" fill="black"/>
<path d="M150.501 204.663C150.501 204.663 153.925 252.575 153.23 272.115C152.505 292.443 142.867 358.985 142.867 358.985H132.013C132.013 358.985 131.615 293.577 131.135 273.659C130.603 251.89 127.977 204.653 127.977 204.653L150.501 204.663Z" fill="#263238"/>
<path d="M144.952 354.673C145.003 354.673 144.338 359.18 144.338 359.18H131.134L130.776 355.153L144.952 354.673Z" fill="#C50B44"/>
<path opacity="0.6" d="M144.952 354.673C145.003 354.673 144.338 359.18 144.338 359.18H131.134L130.776 355.153L144.952 354.673Z" fill="white"/>
<path d="M146.127 158.234C146.127 171.091 152.964 176.385 152.964 176.385L164.114 165.531C161.475 161.121 158.47 156.939 155.131 153.032C148.682 145.643 146.127 149.976 146.127 158.234Z" fill="#263238"/>
<path opacity="0.2" d="M143.184 133.951C142.957 134.596 142.575 135.175 142.073 135.638C141.571 136.101 140.963 136.434 140.302 136.608C139.575 136.757 138.916 137.135 138.421 137.687C137.925 138.239 137.621 138.936 137.553 139.674C138.876 139.232 140.076 138.483 141.055 137.488C142.033 136.494 142.763 135.282 143.184 133.951Z" fill="black"/>
<path d="M140.301 114.114C142.591 111.222 139.065 111.048 139.065 111.048C139.984 107.604 135.856 109.454 135.856 109.454C133.382 106.04 131.982 110.2 131.982 110.2C129.417 107.308 128.916 112.029 128.916 112.029C126.341 108.36 125.033 113.654 125.033 113.654C122.662 109.842 121.21 114.799 121.21 114.799C116.315 113.051 118.635 118.141 118.635 118.141C114.465 118.253 117.817 121.493 117.817 121.493C112.809 121.493 117.224 124.365 117.224 124.365C113.249 126.971 118.246 127.676 118.246 127.676C115.007 132.786 120.577 130.865 120.577 130.865C118.318 135.893 123.316 133.675 123.316 133.675C122.999 138.52 125.789 137.201 127.138 136.302C127.393 137.324 127.884 138.346 128.783 138.428C130.531 138.663 130.827 135.362 130.827 135.362C130.827 135.362 132.442 136.629 133.801 135.944C135.161 135.259 134.65 133.532 134.65 133.532C134.945 133.753 135.303 133.872 135.672 133.872C136.04 133.872 136.399 133.753 136.694 133.532C137.276 133.083 137.276 129.833 136.54 128.688L139.197 127.666C139.197 127.666 141.17 127.39 140.291 124.784C139.761 123.286 139.714 121.66 140.158 120.134C143.163 118.723 140.69 117.068 140.69 117.068C144.175 114.83 140.301 114.114 140.301 114.114Z" fill="#263238"/>
<path d="M134.916 126.552C135.332 128.077 136.241 129.421 137.502 130.374C139.168 131.621 140.415 130.374 140.292 128.504C140.19 126.808 139.188 124.12 137.349 123.609C135.509 123.098 134.477 124.743 134.916 126.552Z" fill="#B55B52"/>
</g>
<defs>
<clipPath id="clip0_1_52">
<rect width="457" height="396" fill="white"/>
</clipPath>
</defs>
</svg>
