<svg width="457" height="396" viewBox="0 0 457 396" fill="none" xmlns="http://www.w3.org/2000/svg">
<g clip-path="url(#clip0_7_815)">
<path d="M478 339.4H-22V339.65H478V339.4Z" fill="#FFD651"/>
<path d="M427.9 355.49H394.78V355.74H427.9V355.49Z" fill="#FFD651"/>
<path d="M309.22 358.21H300.53V358.46H309.22V358.21Z" fill="#FFD651"/>
<path d="M393.78 346.21H374.59V346.46H393.78V346.21Z" fill="#FFD651"/>
<path d="M73.65 347.89H30.46V348.14H73.65V347.89Z" fill="#FFD651"/>
<path d="M88.8896 347.89H82.5596V348.14H88.8896V347.89Z" fill="#FFD651"/>
<path d="M203.15 352.11H109.47V352.36H203.15V352.11Z" fill="#FFD651"/>
<path d="M215 294.8H21.91C20.3973 294.797 18.9475 294.195 17.8788 293.124C16.8102 292.054 16.21 290.603 16.21 289.09V17.66C16.2231 16.156 16.8292 14.718 17.8964 13.6582C18.9637 12.5985 20.4059 12.0026 21.91 12H215C216.514 12 217.967 12.6016 219.038 13.6724C220.108 14.7433 220.71 16.1956 220.71 17.71V289.09C220.71 290.604 220.108 292.057 219.038 293.128C217.967 294.198 216.514 294.8 215 294.8ZM21.91 12.2C20.4636 12.2026 19.0774 12.7791 18.0556 13.8027C17.0338 14.8264 16.46 16.2136 16.46 17.66V289.09C16.46 290.536 17.0338 291.924 18.0556 292.947C19.0774 293.971 20.4636 294.547 21.91 294.55H215C216.447 294.547 217.834 293.971 218.858 292.948C219.881 291.924 220.457 290.537 220.46 289.09V17.66C220.457 16.2127 219.881 14.8255 218.858 13.8021C217.834 12.7787 216.447 12.2026 215 12.2H21.91Z" fill="#FFD651"/>
<path d="M431.31 294.8H238.21C236.696 294.797 235.246 294.195 234.175 293.125C233.105 292.054 232.503 290.604 232.5 289.09V17.66C232.516 16.1551 233.124 14.7171 234.193 13.6576C235.262 12.5981 236.705 12.0025 238.21 12H431.31C432.812 12.0052 434.252 12.6022 435.317 13.6617C436.382 14.7212 436.987 16.1578 437 17.66V289.09C437 290.601 436.401 292.05 435.335 293.121C434.268 294.191 432.821 294.795 431.31 294.8ZM238.21 12.2C236.763 12.2026 235.375 12.7787 234.352 13.8021C233.329 14.8255 232.753 16.2127 232.75 17.66V289.09C232.753 290.537 233.329 291.924 234.352 292.948C235.375 293.971 236.763 294.547 238.21 294.55H431.31C432.757 294.547 434.145 293.971 435.168 292.948C436.191 291.924 436.767 290.537 436.77 289.09V17.66C436.767 16.2127 436.191 14.8255 435.168 13.8021C434.145 12.7787 432.757 12.2026 431.31 12.2H238.21Z" fill="#FFD651"/>
<path d="M284.24 203.54L427.37 203.54V55.64L284.24 55.64V203.54Z" fill="#FFD651"/>
<path d="M279.24 203.54L422.37 203.54V55.64L279.24 55.64V203.54Z" fill="#FF8B7B"/>
<path d="M418.76 59.15H283.03V200.1H418.76V59.15Z" fill="#FFD651"/>
<path d="M418.76 59.15H286.42V200.1H418.76V59.15Z" fill="#B0F8FF"/>
<path d="M351.21 200.11H353.9V59.16H351.21V200.11Z" fill="#FFD651"/>
<path d="M369.38 59.15L407.1 200.1H410.72L373 59.15H369.38Z" fill="white"/>
<path d="M350.07 202.8H352.37V56.97H350.07V202.8Z" fill="#FF8B7B"/>
<path d="M383.07 59.15L418.76 192.54V119.22L402.69 59.15H383.07Z" fill="white"/>
<path d="M286.42 71.94V85.47L317.1 200.1H320.72L286.42 71.94Z" fill="white"/>
<path d="M286.42 99.26V172.58L293.78 200.1H313.4L286.42 99.26Z" fill="white"/>
<path d="M403.89 216.73H295.43C293.088 216.73 290.842 217.66 289.186 219.316C287.53 220.972 286.6 223.218 286.6 225.56L274.6 302.02H400.72L412.72 225.56C412.72 223.218 411.789 220.972 410.133 219.316C408.477 217.66 406.231 216.73 403.89 216.73Z" fill="#FFD651"/>
<path d="M274.91 246.3L275.05 245.9H233.05V338.9H285.05V257.05C285.089 254.291 284.052 251.626 282.159 249.619C280.266 247.613 277.666 246.422 274.91 246.3Z" fill="#FFD651"/>
<path d="M232.61 246.27C229.751 246.27 227.009 247.406 224.987 249.427C222.966 251.449 221.83 254.191 221.83 257.05V338.9H243.38V257.05C243.38 254.193 242.246 251.452 240.226 249.431C238.207 247.41 235.467 246.273 232.61 246.27Z" fill="#FF8B7B"/>
<path d="M395.91 246.3L396.05 245.9H354.05V338.9H406.05V257.05C406.089 254.291 405.052 251.626 403.159 249.619C401.266 247.613 398.666 246.422 395.91 246.3Z" fill="#FFD651"/>
<path d="M342.83 273.4H250.42V338.9H342.83V273.4Z" fill="#FFD651"/>
<path d="M256.44 266.69H360.44V289.4H256.44C254.945 289.4 253.464 289.105 252.084 288.531C250.703 287.958 249.449 287.118 248.393 286.059C247.338 284.999 246.502 283.742 245.933 282.36C245.365 280.977 245.075 279.495 245.08 278C245.093 274.996 246.296 272.119 248.425 270C250.554 267.88 253.436 266.69 256.44 266.69Z" fill="#D5A91B"/>
<path d="M353.61 246.27C350.751 246.27 348.009 247.406 345.987 249.427C343.966 251.449 342.83 254.191 342.83 257.05V338.9H364.38V257.05C364.38 254.193 363.246 251.452 361.226 249.431C359.207 247.41 356.467 246.273 353.61 246.27Z" fill="#FF8B7B"/>
<path d="M383.05 303.15H400.72L412.72 225.56C412.72 224.4 412.491 223.251 412.047 222.179C411.602 221.107 410.951 220.133 410.13 219.313C409.309 218.493 408.334 217.842 407.262 217.399C406.19 216.956 405.04 216.729 403.88 216.73C401.538 216.73 399.292 217.66 397.636 219.316C395.98 220.972 395.05 223.218 395.05 225.56L383.05 303.15Z" fill="#FFD651"/>
<path d="M53.8198 302.29C53.8198 301.89 52.4798 262.61 46.0898 256.4C39.8798 250.4 32.7398 256.17 32.4398 256.4L31.7998 255.64C31.8798 255.57 39.9298 249 46.7998 255.64C53.4698 262.13 54.7998 300.58 54.7998 302.22L53.8198 302.29Z" fill="#FFD651"/>
<path d="M54.3703 310C54.3703 309.53 50.0103 262.84 67.0603 243.27L67.8103 243.93C51.0403 263.17 55.3203 309.43 55.3703 309.93L54.3703 310Z" fill="#FFD651"/>
<path d="M53.7403 305.07L52.7403 305C52.7403 304.47 56.0803 251.93 43.5703 240.42L44.2503 239.69C57.1103 251.51 53.8903 302.89 53.7403 305.07Z" fill="#FFD651"/>
<path d="M55.3701 305H54.3701C54.3701 303.55 54.7801 269.51 64.4501 264C65.368 263.403 66.416 263.036 67.5056 262.93C68.5952 262.824 69.6943 262.982 70.7101 263.39C76.5601 265.8 79.4601 276.21 79.5801 276.65L78.5801 276.92C78.5801 276.81 75.6901 266.54 70.3001 264.31C69.4243 263.967 68.4792 263.838 67.5435 263.934C66.6078 264.029 65.7084 264.347 64.9201 264.86C55.7701 270.12 55.3701 304.69 55.3701 305Z" fill="#FFD651"/>
<path d="M51.5999 305.06L50.5999 305.01C50.5999 304.74 52.0499 278.1 44.8699 268.72C43.1199 266.44 41.2299 265.36 39.2399 265.5C34.5299 265.83 30.5799 272.72 30.5399 272.79L29.6699 272.3C29.8399 272 33.9199 264.87 39.1599 264.5C41.5099 264.34 43.6999 265.55 45.6599 268.11C53.0799 277.79 51.6699 304 51.5999 305.06Z" fill="#FFD651"/>
<path d="M53.1796 308.69C52.9796 306.1 48.4796 245.28 56.3996 234.57L57.2096 235.16C49.4996 245.58 54.1296 307.98 54.2096 308.61L53.1796 308.69Z" fill="#FFD651"/>
<path d="M72.8699 269.55C72.8699 269.55 68.1099 271.3 69.5199 275.44C70.9299 279.58 85.9999 286.39 85.9999 286.39C85.9999 286.39 92.2899 280.62 86.5099 271.23C80.7299 261.84 72.9999 266.59 72.8699 269.55Z" fill="#FFD651"/>
<path d="M52.1998 261.67C52.1998 261.67 57.2598 261.46 57.5498 265.82C57.8398 270.18 46.5498 282.26 46.5498 282.26C46.5498 282.26 38.5498 279.35 40.2498 268.47C41.9498 257.59 50.9398 259 52.1998 261.67Z" fill="#FFD651"/>
<path d="M47.9103 240.79C47.9103 240.79 51.2903 240.43 51.0203 238.37C50.7503 236.31 37.9003 231 30.3203 239.58C30.3203 239.58 35.1703 247.92 42.1903 248.03C49.2103 248.14 47.9103 240.79 47.9103 240.79Z" fill="#FFD651"/>
<path d="M54.2 235.8C54.2 235.8 51.2 237.28 50.29 235.39C49.38 233.5 57.54 222.22 68.5 225.47C68.5 225.47 68.79 235.11 62.89 238.91C56.99 242.71 54.2 235.8 54.2 235.8Z" fill="#FFD651"/>
<path d="M38.22 267.89C38.22 267.89 40.55 266.01 38.04 265.09C35.53 264.17 23.19 264.43 23.04 276.65C23.04 276.65 37.41 279.04 39.19 274.38C40.97 269.72 38.22 267.89 38.22 267.89Z" fill="#FFD651"/>
<path d="M67.5198 240.49C67.5198 240.49 65.1898 238.6 67.6998 237.69C70.2098 236.78 82.5498 237.03 82.6998 249.25C82.6998 249.25 68.3298 251.63 66.5498 246.98C64.7698 242.33 67.5198 240.49 67.5198 240.49Z" fill="#FFD651"/>
<path d="M59.9202 250.33C59.9202 250.33 59.7202 248.04 61.5602 248.94C63.4002 249.84 69.8402 256.77 63.1702 263.35C63.1702 263.35 54.1702 256.71 55.8202 253.25C57.4702 249.79 59.9202 250.33 59.9202 250.33Z" fill="#FFD651"/>
<path d="M36.1396 253.58C36.1396 253.58 37.5396 251.76 35.4996 251.53C33.4596 251.3 24.3196 253.75 26.4996 262.87C26.4996 262.87 37.6296 262.03 38.1096 258.24C38.5896 254.45 36.1396 253.58 36.1396 253.58Z" fill="#FFD651"/>
<path d="M73.7504 338.9H35.5604L31.4404 297.08H77.8804L73.7504 338.9Z" fill="#FF8B7B"/>
<path d="M79.9204 292.47H29.4004V301.7H79.9204V292.47Z" fill="#FF8B7B"/>
<path d="M228 384.56C335.083 384.56 421.89 379.492 421.89 373.24C421.89 366.988 335.083 361.92 228 361.92C120.918 361.92 34.1104 366.988 34.1104 373.24C34.1104 379.492 120.918 384.56 228 384.56Z" fill="#D5A91B"/>
<path d="M235.46 28.4801V316.48C235.461 317.038 235.351 317.591 235.136 318.107C234.922 318.622 234.606 319.089 234.209 319.481C233.811 319.873 233.339 320.182 232.821 320.39C232.303 320.597 231.748 320.699 231.19 320.69H97.1898C96.1901 320.702 95.2264 320.317 94.5098 319.62C94.1433 319.255 93.8536 318.819 93.6578 318.34C93.462 317.861 93.3641 317.348 93.3698 316.83V28.1301C93.3524 27.6835 93.4232 27.2379 93.5781 26.8187C93.7331 26.3995 93.9692 26.015 94.2729 25.6872C94.5766 25.3593 94.942 25.0945 95.3481 24.908C95.7542 24.7215 96.1932 24.6168 96.6398 24.6001H134.7C135.232 24.6084 135.75 24.7756 136.186 25.0803C136.623 25.385 136.958 25.8133 137.15 26.3101L138.73 30.1901C138.924 30.6843 139.26 31.1097 139.696 31.4123C140.133 31.715 140.649 31.8813 141.18 31.8901H187.75C188.278 31.8877 188.794 31.7274 189.23 31.4298C189.667 31.1322 190.004 30.711 190.2 30.2201L191.78 26.3201C191.971 25.8222 192.306 25.3926 192.742 25.0862C193.179 24.7798 193.697 24.6105 194.23 24.6001H231.74C232.745 24.6289 233.699 25.052 234.395 25.7779C235.091 26.5039 235.473 27.4745 235.46 28.4801Z" fill="#C50B44"/>
<path opacity="0.6" d="M235.459 47.6001H93.3594V289.4H235.459V47.6001Z" fill="white"/>
<path opacity="0.6" d="M111.03 36.2001H113.01V33.5601H111.03V36.2001Z" fill="white"/>
<path opacity="0.6" d="M107.81 36.2001H109.79V32.6801H107.81V36.2001Z" fill="white"/>
<path opacity="0.6" d="M104.57 36.2001H106.55V31.8001H104.57V36.2001Z" fill="white"/>
<path opacity="0.6" d="M101.35 36.2001H103.33V30.9201H101.35V36.2001Z" fill="white"/>
<path opacity="0.6" d="M217.319 32.6001H216.149V35.2401H217.319V32.6001Z" fill="white"/>
<path opacity="0.6" d="M218.12 36.2001H227.47V31.6301H218.12V36.2001Z" fill="white"/>
<g opacity="0.1">
<path d="M157.289 31.8901L116.379 185.12L115.929 186.84L115.189 189.6L114.719 191.32L93.3594 271.32V174.52L133.359 24.6001H134.659C135.192 24.6084 135.709 24.7756 136.146 25.0803C136.583 25.385 136.918 25.8133 137.109 26.3101L138.689 30.1901C138.883 30.6843 139.22 31.1097 139.656 31.4123C140.092 31.715 140.609 31.8813 141.139 31.8901H157.289Z" fill="white"/>
<path d="M235.46 110.14V206.98L209.95 302.55L209.33 304.87L205.12 320.64H179.27L183.48 304.88L184.15 302.35L187.53 289.69L188.21 287.16L189.56 282.09L190.24 279.56L191.59 274.49L192.26 271.96L213.53 192.3V192.29L214.51 188.62V188.61L235.46 110.14Z" fill="white"/>
<path d="M171.3 31.8901L130.65 184.16L130.4 185.07L128.18 193.42L127.93 194.33L94.4996 319.57C94.1331 319.205 93.8434 318.769 93.6476 318.29C93.4519 317.811 93.3539 317.298 93.3596 316.78V302.05L122.12 194.33L122.37 193.42L124.59 185.07L124.84 184.16L165.49 31.8901H171.3Z" fill="white"/>
</g>
<path opacity="0.9" d="M226.49 68.1401V66.6301L225.71 66.5601C225.604 66.0649 225.407 65.5936 225.13 65.1701L225.63 64.5701L224.56 63.5001L223.96 64.0001C223.541 63.7143 223.068 63.5169 222.57 63.4201L222.5 62.6401H221L220.93 63.4201C220.432 63.5169 219.959 63.7143 219.54 64.0001L218.93 63.5001L217.87 64.5701L218.37 65.1701C218.084 65.5892 217.887 66.0622 217.79 66.5601L217.01 66.6301V68.1401L217.79 68.2101C217.887 68.7081 218.084 69.181 218.37 69.6001L217.87 70.2001L218.93 71.2701L219.54 70.7701C219.959 71.0559 220.432 71.2533 220.93 71.3501L221 72.1301H222.51L222.58 71.3501C223.078 71.2533 223.551 71.0559 223.97 70.7701L224.57 71.2701L225.64 70.2001L225.14 69.6001C225.417 69.1766 225.614 68.7053 225.72 68.2101L226.49 68.1401ZM221.74 69.4201C221.344 69.4201 220.958 69.3028 220.629 69.083C220.3 68.8633 220.043 68.5509 219.892 68.1855C219.741 67.82 219.701 67.4179 219.778 67.0299C219.855 66.642 220.046 66.2856 220.326 66.0059C220.605 65.7262 220.962 65.5357 221.35 65.4585C221.738 65.3814 222.14 65.421 222.505 65.5723C222.871 65.7237 223.183 65.9801 223.403 66.309C223.622 66.6379 223.74 67.0245 223.74 67.4201C223.74 67.9505 223.529 68.4592 223.154 68.8343C222.779 69.2094 222.27 69.4201 221.74 69.4201Z" fill="white"/>
<path d="M115.459 67.1901L110.359 62.9801C110.322 62.9509 110.276 62.935 110.229 62.935C110.182 62.935 110.136 62.9509 110.099 62.9801L104.999 67.1901C104.965 67.2158 104.94 67.2518 104.927 67.2929C104.915 67.334 104.916 67.378 104.931 67.4183C104.945 67.4587 104.973 67.4932 105.008 67.517C105.044 67.5407 105.086 67.5523 105.129 67.5501H106.269C106.323 67.55 106.375 67.5708 106.414 67.608C106.453 67.6453 106.477 67.6962 106.479 67.7501V71.6301C106.479 71.6841 106.5 71.7361 106.537 71.7752C106.574 71.8143 106.625 71.8375 106.679 71.8401H113.769C113.823 71.8375 113.874 71.8143 113.911 71.7752C113.949 71.7361 113.969 71.6841 113.969 71.6301V67.7501C113.969 67.723 113.975 67.6961 113.985 67.6712C113.996 67.6462 114.012 67.6237 114.031 67.605C114.051 67.5863 114.074 67.5718 114.1 67.5624C114.125 67.5529 114.152 67.5488 114.179 67.5501H115.319C115.363 67.5549 115.407 67.545 115.445 67.5222C115.482 67.4994 115.511 67.4648 115.527 67.4238C115.543 67.3828 115.545 67.3377 115.533 67.2954C115.521 67.2532 115.495 67.2162 115.459 67.1901Z" fill="white"/>
<g opacity="0.6">
<path d="M219.089 299.3H226.879C227.029 299.297 227.171 299.236 227.276 299.13C227.381 299.023 227.439 298.88 227.439 298.73C227.439 298.582 227.38 298.439 227.275 298.334C227.17 298.229 227.028 298.17 226.879 298.17H219.089C218.941 298.17 218.798 298.229 218.693 298.334C218.588 298.439 218.529 298.582 218.529 298.73C218.529 298.88 218.588 299.023 218.693 299.13C218.797 299.236 218.94 299.297 219.089 299.3Z" fill="white"/>
<path d="M226.879 301H219.089C218.941 301 218.798 301.059 218.693 301.164C218.588 301.269 218.529 301.412 218.529 301.56C218.529 301.71 218.588 301.853 218.693 301.96C218.797 302.066 218.94 302.127 219.089 302.13H226.879C227.029 302.127 227.171 302.066 227.276 301.96C227.381 301.853 227.439 301.71 227.439 301.56C227.439 301.412 227.38 301.269 227.275 301.164C227.17 301.059 227.028 301 226.879 301Z" fill="white"/>
<path d="M226.879 303.87H219.089C218.941 303.87 218.798 303.929 218.693 304.034C218.588 304.139 218.529 304.282 218.529 304.43C218.529 304.579 218.588 304.721 218.693 304.826C218.798 304.931 218.941 304.99 219.089 304.99H226.879C227.028 304.99 227.17 304.931 227.275 304.826C227.38 304.721 227.439 304.579 227.439 304.43C227.439 304.282 227.38 304.139 227.275 304.034C227.17 303.929 227.028 303.87 226.879 303.87Z" fill="white"/>
<path d="M167.919 301H164.589V297.67C164.571 297.533 164.504 297.408 164.4 297.317C164.296 297.226 164.162 297.175 164.024 297.175C163.886 297.175 163.753 297.226 163.649 297.317C163.545 297.408 163.478 297.533 163.459 297.67V301H160.129C159.981 301 159.838 301.059 159.733 301.164C159.628 301.269 159.569 301.412 159.569 301.56C159.569 301.71 159.628 301.853 159.733 301.96C159.837 302.066 159.98 302.127 160.129 302.13H163.459V305.46C163.478 305.597 163.545 305.723 163.649 305.814C163.753 305.905 163.886 305.955 164.024 305.955C164.162 305.955 164.296 305.905 164.4 305.814C164.504 305.723 164.571 305.597 164.589 305.46V302.13H167.919C168.069 302.127 168.211 302.066 168.316 301.96C168.421 301.853 168.479 301.71 168.479 301.56C168.479 301.412 168.42 301.269 168.315 301.164C168.21 301.059 168.068 301 167.919 301Z" fill="white"/>
<path d="M108.18 297.9H102C101.849 297.903 101.706 297.964 101.599 298.07C101.493 298.176 101.432 298.32 101.43 298.47V304.7C101.432 304.85 101.494 304.992 101.6 305.097C101.707 305.201 101.85 305.26 102 305.26H108.23C108.378 305.26 108.521 305.201 108.626 305.096C108.731 304.991 108.79 304.849 108.79 304.7V298.47C108.79 298.392 108.774 298.314 108.743 298.242C108.712 298.17 108.666 298.106 108.609 298.052C108.552 297.999 108.484 297.958 108.41 297.931C108.336 297.905 108.258 297.895 108.18 297.9ZM107.61 304.13H102.51V299H107.61V304.13Z" fill="white"/>
</g>
<g opacity="0.6">
<path d="M159.819 282.68C159.722 282.679 159.627 282.648 159.549 282.59L155.549 279.98C155.484 279.95 155.427 279.906 155.38 279.852C155.334 279.797 155.3 279.733 155.28 279.665C155.26 279.596 155.256 279.524 155.266 279.453C155.277 279.382 155.303 279.314 155.342 279.254C155.381 279.194 155.432 279.144 155.492 279.105C155.553 279.067 155.621 279.042 155.692 279.032C155.763 279.022 155.835 279.027 155.903 279.048C155.972 279.068 156.035 279.103 156.089 279.15L159.829 281.58L163.569 279.15C163.681 279.077 163.817 279.051 163.948 279.077C164.079 279.103 164.194 279.18 164.269 279.29C164.341 279.402 164.365 279.537 164.337 279.666C164.309 279.796 164.231 279.908 164.119 279.98L160.119 282.59C160.032 282.652 159.926 282.684 159.819 282.68Z" fill="#C50B44"/>
<path d="M159.819 280.64C159.724 280.638 159.63 280.611 159.549 280.56L155.549 277.95C155.437 277.877 155.359 277.762 155.331 277.631C155.303 277.5 155.327 277.363 155.399 277.25C155.472 277.14 155.586 277.064 155.715 277.038C155.845 277.012 155.979 277.038 156.089 277.11L159.829 279.54L163.569 277.11C163.681 277.037 163.816 277.011 163.947 277.039C164.077 277.066 164.191 277.144 164.264 277.255C164.337 277.366 164.363 277.502 164.336 277.633C164.308 277.763 164.231 277.877 164.119 277.95L160.119 280.56C160.028 280.614 159.925 280.642 159.819 280.64Z" fill="#C50B44"/>
</g>
<path opacity="0.1" d="M226.839 110.14C225.853 110.143 224.909 110.536 224.212 111.233C223.515 111.93 223.122 112.874 223.119 113.86V268.19C223.119 269.177 223.511 270.123 224.209 270.821C224.906 271.518 225.853 271.91 226.839 271.91C227.826 271.91 228.772 271.518 229.47 270.821C230.167 270.123 230.559 269.177 230.559 268.19V113.86C230.559 113.372 230.463 112.888 230.276 112.437C230.089 111.985 229.815 111.575 229.47 111.23C229.124 110.884 228.714 110.61 228.263 110.423C227.811 110.236 227.328 110.14 226.839 110.14Z" fill="black"/>
<path opacity="0.6" d="M226.84 111.18C226.044 111.18 225.281 111.496 224.719 112.059C224.156 112.621 223.84 113.384 223.84 114.18V135C223.942 135.715 224.298 136.37 224.844 136.843C225.389 137.316 226.088 137.577 226.81 137.577C227.532 137.577 228.23 137.316 228.776 136.843C229.321 136.37 229.678 135.715 229.78 135V114.15C229.772 113.37 229.461 112.623 228.912 112.069C228.363 111.514 227.62 111.196 226.84 111.18Z" fill="white"/>
<path d="M153.35 63.8001L150.78 71.6701H148.78L147.05 66.3401L145.26 71.6701H143.26L140.68 63.8001H142.57L144.34 69.3301L146.2 63.8001H148L149.8 69.3701L151.63 63.8001H153.35Z" fill="white"/>
<path d="M154.14 63.8001C154.139 63.6608 154.168 63.523 154.223 63.3954C154.279 63.2678 154.361 63.1533 154.464 63.0592C154.566 62.965 154.687 62.8934 154.819 62.8487C154.951 62.8041 155.091 62.7876 155.23 62.8001C155.363 62.7878 155.498 62.8026 155.626 62.8436C155.754 62.8845 155.873 62.9509 155.974 63.0386C156.076 63.1263 156.159 63.2337 156.218 63.3542C156.278 63.4747 156.312 63.606 156.32 63.7401C156.284 64.0038 156.154 64.2455 155.953 64.4206C155.753 64.5956 155.496 64.6921 155.23 64.6921C154.964 64.6921 154.706 64.5956 154.506 64.4206C154.306 64.2455 154.175 64.0038 154.14 63.7401V63.8001ZM154.35 65.6201H156.11V71.6201H154.35V65.6201Z" fill="white"/>
<path d="M157.149 71.1101L157.739 69.8501C158.375 70.2284 159.1 70.4287 159.839 70.4301C160.649 70.4301 160.959 70.2201 160.959 69.8801C160.959 68.8801 157.299 69.8801 157.299 67.4801C157.299 66.3401 158.299 65.4801 160.099 65.4801C160.908 65.4659 161.707 65.6477 162.429 66.0101L161.839 67.2601C161.31 66.9577 160.709 66.8023 160.099 66.8101C159.309 66.8101 158.979 67.0501 158.979 67.3701C158.979 68.3701 162.629 67.3701 162.629 69.7901C162.629 70.9101 161.629 71.7101 159.769 71.7101C158.859 71.7413 157.956 71.5345 157.149 71.1101Z" fill="white"/>
<path d="M169.9 68.2001V71.6701H168.14V68.4701C168.14 67.4701 167.69 67.0501 166.92 67.0501C166.15 67.0501 165.46 67.5601 165.46 68.6801V71.6801H163.71V63.3301H165.46V66.2601C165.719 66.0192 166.022 65.8316 166.353 65.708C166.684 65.5845 167.037 65.5274 167.39 65.5401C167.739 65.5167 168.088 65.5708 168.414 65.6984C168.739 65.826 169.032 66.024 169.272 66.2783C169.512 66.5325 169.693 66.8366 169.801 67.1689C169.91 67.5011 169.944 67.8533 169.9 68.2001Z" fill="white"/>
<path d="M171.479 63.3201H173.24V71.6701H171.479V63.3201Z" fill="white"/>
<path d="M174.649 63.8001C174.649 63.6609 174.677 63.523 174.733 63.3954C174.789 63.2679 174.871 63.1533 174.973 63.0592C175.076 62.965 175.197 62.8934 175.329 62.8488C175.461 62.8042 175.601 62.7876 175.739 62.8001C175.874 62.7864 176.01 62.8001 176.139 62.8404C176.268 62.8807 176.388 62.9468 176.491 63.0347C176.593 63.1226 176.677 63.2304 176.737 63.3517C176.797 63.4729 176.832 63.6051 176.839 63.7401C176.84 63.8803 176.811 64.019 176.755 64.1474C176.699 64.2757 176.616 64.3908 176.512 64.4851C176.408 64.5794 176.286 64.6508 176.153 64.6947C176.02 64.7387 175.879 64.7541 175.739 64.7401C175.606 64.7524 175.471 64.7376 175.343 64.6967C175.215 64.6557 175.097 64.5893 174.995 64.5016C174.893 64.4139 174.81 64.3065 174.751 64.186C174.691 64.0655 174.657 63.9342 174.649 63.8001ZM174.869 65.6201H176.619V71.6201H174.869V65.6201Z" fill="white"/>
<path d="M177.67 71.1101L178.25 69.8501C178.885 70.2283 179.611 70.4287 180.35 70.4301C181.16 70.4301 181.47 70.2201 181.47 69.8801C181.47 68.8801 177.81 69.8801 177.81 67.4801C177.81 66.3401 178.81 65.4801 180.61 65.4801C181.418 65.4626 182.219 65.6446 182.94 66.0101L182.36 67.2601C181.826 66.9586 181.223 66.8034 180.61 66.8101C179.83 66.8101 179.49 67.0501 179.49 67.3701C179.49 68.3701 183.14 67.3701 183.14 69.7901C183.14 70.9101 182.14 71.7101 180.29 71.7101C179.379 71.7441 178.475 71.5371 177.67 71.1101Z" fill="white"/>
<path d="M188.13 71.3801C187.701 71.6437 187.204 71.7758 186.7 71.7601C186.401 71.8006 186.098 71.7731 185.811 71.6798C185.525 71.5864 185.263 71.4295 185.046 71.2209C184.829 71.0123 184.661 70.7572 184.556 70.4748C184.451 70.1924 184.412 69.89 184.44 69.5901V67.1001H183.5V65.7501H184.44V64.2801H186.19V65.7501H187.7V67.1001H186.19V69.5701C186.176 69.6736 186.186 69.7789 186.218 69.8783C186.25 69.9777 186.304 70.0685 186.376 70.1443C186.448 70.2201 186.536 70.2787 186.634 70.3161C186.731 70.3534 186.836 70.3685 186.94 70.3601C187.194 70.3674 187.444 70.29 187.65 70.1401L188.13 71.3801Z" fill="white"/>
<path opacity="0.3" d="M103.35 81.1601H225.48C226.147 81.1588 226.808 81.2893 227.425 81.5441C228.042 81.7989 228.603 82.1731 229.075 82.6451C229.547 83.117 229.921 83.6776 230.176 84.2945C230.431 84.9114 230.561 85.5726 230.56 86.2401C230.561 86.9081 230.431 87.5697 230.176 88.1872C229.921 88.8047 229.547 89.3659 229.075 89.8387C228.604 90.3114 228.043 90.6865 227.426 90.9425C226.809 91.1984 226.148 91.3301 225.48 91.3301H103.35C102.681 91.3301 102.019 91.1984 101.402 90.9427C100.784 90.6869 100.223 90.3119 99.7506 89.8393C99.2779 89.3666 98.903 88.8055 98.6472 88.188C98.3914 87.5704 98.2598 86.9085 98.2598 86.2401C98.2598 85.5721 98.3915 84.9107 98.6474 84.2938C98.9033 83.6768 99.2784 83.1163 99.7512 82.6445C100.224 82.1726 100.785 81.7986 101.403 81.5439C102.02 81.2892 102.682 81.1588 103.35 81.1601Z" fill="black"/>
<path d="M223.549 87.5501C223.006 87.5482 222.485 87.3327 222.099 86.9501C221.907 86.7614 221.754 86.5356 221.651 86.2864C221.548 86.0372 221.496 85.7698 221.499 85.5001C221.496 85.2305 221.548 84.963 221.651 84.7138C221.754 84.4646 221.907 84.2389 222.099 84.0501C222.29 83.8596 222.516 83.7085 222.764 83.6054C223.013 83.5023 223.28 83.4492 223.549 83.4492C223.818 83.4492 224.085 83.5023 224.334 83.6054C224.583 83.7085 224.809 83.8596 224.999 84.0501C225.192 84.2389 225.344 84.4646 225.447 84.7138C225.55 84.963 225.602 85.2305 225.599 85.5001C225.609 85.7781 225.561 86.0551 225.457 86.3134C225.354 86.5717 225.198 86.8056 224.999 87.0001C224.605 87.3644 224.085 87.5616 223.549 87.5501ZM223.549 84.4501C223.412 84.4466 223.275 84.4714 223.148 84.523C223.021 84.5747 222.905 84.652 222.809 84.7501C222.711 84.8486 222.633 84.9656 222.58 85.0943C222.526 85.223 222.499 85.3609 222.499 85.5001C222.497 85.6382 222.523 85.7752 222.577 85.9026C222.63 86.0299 222.709 86.1449 222.809 86.2401C223.009 86.4286 223.274 86.5335 223.549 86.5335C223.824 86.5335 224.089 86.4286 224.289 86.2401C224.389 86.1449 224.468 86.0299 224.522 85.9026C224.575 85.7752 224.601 85.6382 224.599 85.5001C224.599 85.3609 224.572 85.223 224.519 85.0943C224.466 84.9656 224.388 84.8486 224.289 84.7501C224.193 84.652 224.078 84.5747 223.95 84.523C223.823 84.4714 223.686 84.4466 223.549 84.4501Z" fill="white"/>
<path d="M226.59 89.0001C226.458 88.9982 226.332 88.9443 226.24 88.8501L224.24 86.9101C224.147 86.8149 224.096 86.6876 224.096 86.5551C224.096 86.4226 224.147 86.2952 224.24 86.2001C224.286 86.1532 224.341 86.116 224.402 86.0907C224.463 86.0653 224.529 86.0522 224.595 86.0522C224.661 86.0522 224.726 86.0653 224.787 86.0907C224.848 86.116 224.903 86.1532 224.95 86.2001L226.9 88.1501C226.991 88.2436 227.042 88.3692 227.042 88.5001C227.042 88.631 226.991 88.7566 226.9 88.8501C226.817 88.9345 226.707 88.9876 226.59 89.0001Z" fill="white"/>
<path opacity="0.6" d="M217.2 165.14H100.44C99.2358 165.14 98.2598 166.116 98.2598 167.32V214.6C98.2598 215.804 99.2358 216.78 100.44 216.78H217.2C218.404 216.78 219.38 215.804 219.38 214.6V167.32C219.38 166.116 218.404 165.14 217.2 165.14Z" fill="#C50B44"/>
<path d="M145.91 170.17H103.58V209.07H145.91V170.17Z" fill="#C50B44"/>
<path opacity="0.6" d="M145.91 170.17H103.58V209.07H145.91V170.17Z" fill="white"/>
<path opacity="0.3" d="M143.859 172.22H105.739V206.91H143.859V172.22Z" fill="white"/>
<path opacity="0.3" d="M143.859 199.57V206.91H105.749L105.739 189.95L113.609 183.07L125.279 194.45L131.459 189.95L143.859 199.57Z" fill="white"/>
<g opacity="0.6">
<path d="M137.509 183.06C137.509 183.667 137.329 184.261 136.992 184.766C136.654 185.271 136.175 185.664 135.614 185.896C135.053 186.129 134.436 186.19 133.84 186.071C133.245 185.953 132.698 185.66 132.268 185.231C131.839 184.802 131.547 184.255 131.428 183.659C131.31 183.063 131.37 182.446 131.603 181.885C131.835 181.324 132.229 180.845 132.734 180.507C133.238 180.17 133.832 179.99 134.439 179.99C134.843 179.989 135.242 180.067 135.616 180.221C135.989 180.375 136.328 180.601 136.613 180.886C136.898 181.172 137.124 181.511 137.278 181.884C137.432 182.257 137.51 182.657 137.509 183.06Z" fill="white"/>
<path opacity="0.3" d="M137.509 183.06C137.509 183.667 137.329 184.261 136.992 184.766C136.654 185.271 136.175 185.664 135.614 185.896C135.053 186.129 134.436 186.19 133.84 186.071C133.245 185.953 132.698 185.66 132.268 185.231C131.839 184.802 131.547 184.255 131.428 183.659C131.31 183.063 131.37 182.446 131.603 181.885C131.835 181.324 132.229 180.845 132.734 180.507C133.238 180.17 133.832 179.99 134.439 179.99C134.843 179.989 135.242 180.067 135.616 180.221C135.989 180.375 136.328 180.601 136.613 180.886C136.898 181.172 137.124 181.511 137.278 181.884C137.432 182.257 137.51 182.657 137.509 183.06Z" fill="white"/>
</g>
<g opacity="0.3">
<path d="M195.06 173.5H153.56C153.223 173.5 152.9 173.366 152.662 173.128C152.424 172.89 152.29 172.567 152.29 172.23C152.29 172.064 152.323 171.899 152.387 171.746C152.451 171.592 152.545 171.453 152.663 171.336C152.781 171.218 152.921 171.126 153.075 171.063C153.229 171 153.394 170.969 153.56 170.97H195.06C195.226 170.969 195.39 171 195.544 171.063C195.697 171.126 195.837 171.219 195.954 171.336C196.071 171.453 196.164 171.593 196.227 171.746C196.29 171.9 196.321 172.064 196.32 172.23C196.321 172.396 196.29 172.561 196.227 172.715C196.164 172.869 196.072 173.009 195.955 173.128C195.837 173.246 195.698 173.339 195.545 173.403C195.391 173.467 195.226 173.5 195.06 173.5Z" fill="white"/>
<path d="M211.27 181.09H153.56C153.394 181.091 153.229 181.06 153.075 180.997C152.921 180.934 152.781 180.842 152.663 180.725C152.545 180.607 152.451 180.468 152.387 180.315C152.323 180.161 152.29 179.996 152.29 179.83C152.29 179.493 152.424 179.17 152.662 178.932C152.9 178.694 153.223 178.56 153.56 178.56H211.27C211.607 178.56 211.93 178.694 212.168 178.932C212.406 179.17 212.54 179.493 212.54 179.83C212.54 179.996 212.507 180.161 212.443 180.315C212.379 180.468 212.286 180.607 212.167 180.725C212.049 180.842 211.909 180.934 211.755 180.997C211.601 181.06 211.436 181.091 211.27 181.09Z" fill="white"/>
<path d="M176.84 188.69H153.56C153.223 188.69 152.9 188.556 152.662 188.318C152.424 188.08 152.29 187.757 152.29 187.42C152.29 187.254 152.323 187.089 152.387 186.936C152.451 186.782 152.545 186.643 152.663 186.526C152.781 186.408 152.921 186.316 153.075 186.253C153.229 186.19 153.394 186.159 153.56 186.16H176.84C177.006 186.159 177.17 186.19 177.324 186.253C177.477 186.316 177.617 186.409 177.734 186.526C177.851 186.643 177.944 186.783 178.007 186.936C178.07 187.09 178.101 187.254 178.1 187.42C178.101 187.586 178.07 187.751 178.007 187.905C177.944 188.059 177.852 188.199 177.735 188.318C177.617 188.436 177.478 188.529 177.325 188.593C177.171 188.657 177.006 188.69 176.84 188.69Z" fill="white"/>
</g>
<path d="M152.789 201.6C153.909 199.78 156.059 200.48 157.159 201.89C158.269 200.47 160.409 199.77 161.539 201.59C163.429 204.66 159.539 207.51 157.699 208.59L157.179 208.91L156.649 208.59C154.809 207.52 150.899 204.68 152.789 201.6Z" fill="white"/>
<g opacity="0.6">
<path d="M170.169 202.09H176.389L176.099 208.95H170.469L170.169 202.09Z" fill="white"/>
<path d="M174.449 200.47L174.159 199.87H172.409L172.109 200.47L169.609 200.76V201.44H176.959V200.76L174.449 200.47Z" fill="white"/>
</g>
<g opacity="0.6">
<path d="M193.36 200.12H191.76C191.673 200.119 191.588 200.148 191.52 200.203C191.452 200.258 191.406 200.335 191.39 200.42L191.28 200.94H183.56H183.49H183.43C183.43 200.94 183.43 200.94 183.38 200.99V201.05V201.11C183.375 201.137 183.375 201.164 183.38 201.19L184.2 205.82C184.216 205.907 184.262 205.985 184.329 206.041C184.397 206.098 184.482 206.129 184.57 206.13H190.73C190.817 206.132 190.902 206.102 190.969 206.048C191.037 205.993 191.083 205.916 191.1 205.83L192.03 201.29C192.039 201.237 192.039 201.183 192.03 201.13L192.11 200.7H193.41C193.499 200.686 193.579 200.64 193.638 200.571C193.696 200.502 193.728 200.415 193.728 200.325C193.728 200.235 193.696 200.148 193.638 200.079C193.579 200.01 193.499 199.965 193.41 199.95L193.36 200.12ZM190.81 203.28H189.19L189.28 201.69H191.13L190.81 203.28ZM186.81 203.28L186.74 201.69H188.54L188.45 203.28H186.81ZM188.41 204.03L188.32 205.57H186.92L186.85 204.03H188.41ZM184.12 201.69H186L186.07 203.28H184.41L184.12 201.69ZM184.53 204.03H186.1L186.17 205.57H184.8L184.53 204.03ZM190.35 205.57H189.07L189.16 204.03H190.66L190.35 205.57Z" fill="white"/>
<path d="M184.83 207.08C184.644 207.078 184.461 207.132 184.305 207.234C184.149 207.336 184.027 207.482 183.954 207.653C183.882 207.825 183.862 208.014 183.897 208.197C183.932 208.38 184.021 208.549 184.152 208.681C184.283 208.814 184.45 208.904 184.633 208.941C184.815 208.978 185.005 208.96 185.177 208.889C185.35 208.819 185.497 208.698 185.601 208.543C185.704 208.389 185.76 208.206 185.76 208.02C185.76 207.773 185.662 207.535 185.488 207.359C185.314 207.183 185.077 207.083 184.83 207.08Z" fill="white"/>
<path d="M191.059 207.08C190.873 207.078 190.69 207.132 190.534 207.234C190.379 207.336 190.257 207.482 190.184 207.653C190.111 207.825 190.091 208.014 190.126 208.197C190.161 208.38 190.25 208.549 190.381 208.681C190.512 208.814 190.68 208.904 190.862 208.941C191.045 208.978 191.234 208.96 191.407 208.889C191.579 208.819 191.726 208.698 191.83 208.543C191.934 208.389 191.989 208.206 191.989 208.02C191.989 207.773 191.892 207.535 191.718 207.359C191.543 207.183 191.307 207.083 191.059 207.08Z" fill="white"/>
</g>
<path opacity="0.6" d="M217.2 220.14H100.44C99.2358 220.14 98.2598 221.116 98.2598 222.32V269.6C98.2598 270.804 99.2358 271.78 100.44 271.78H217.2C218.404 271.78 219.38 270.804 219.38 269.6V222.32C219.38 221.116 218.404 220.14 217.2 220.14Z" fill="#C50B44"/>
<path d="M145.91 225.17H103.58V264.07H145.91V225.17Z" fill="#C50B44"/>
<path opacity="0.6" d="M145.91 225.17H103.58V264.07H145.91V225.17Z" fill="white"/>
<path opacity="0.3" d="M143.859 227.22H105.739V261.91H143.859V227.22Z" fill="white"/>
<path opacity="0.3" d="M143.859 254.57V261.91H105.749L105.739 244.95L113.609 238.07L125.279 249.45L131.459 244.95L143.859 254.57Z" fill="white"/>
<g opacity="0.6">
<path d="M137.509 238.06C137.509 238.667 137.329 239.261 136.992 239.766C136.654 240.271 136.175 240.664 135.614 240.896C135.053 241.129 134.436 241.19 133.84 241.071C133.245 240.953 132.698 240.66 132.268 240.231C131.839 239.802 131.547 239.255 131.428 238.659C131.31 238.063 131.37 237.446 131.603 236.885C131.835 236.324 132.229 235.845 132.734 235.507C133.238 235.17 133.832 234.99 134.439 234.99C134.843 234.989 135.242 235.067 135.616 235.221C135.989 235.375 136.328 235.601 136.613 235.886C136.898 236.172 137.124 236.511 137.278 236.884C137.432 237.257 137.51 237.657 137.509 238.06Z" fill="white"/>
<path opacity="0.3" d="M137.509 238.06C137.509 238.667 137.329 239.261 136.992 239.766C136.654 240.271 136.175 240.664 135.614 240.896C135.053 241.129 134.436 241.19 133.84 241.071C133.245 240.953 132.698 240.66 132.268 240.231C131.839 239.802 131.547 239.255 131.428 238.659C131.31 238.063 131.37 237.446 131.603 236.885C131.835 236.324 132.229 235.845 132.734 235.507C133.238 235.17 133.832 234.99 134.439 234.99C134.843 234.989 135.242 235.067 135.616 235.221C135.989 235.375 136.328 235.601 136.613 235.886C136.898 236.172 137.124 236.511 137.278 236.884C137.432 237.257 137.51 237.657 137.509 238.06Z" fill="white"/>
</g>
<g opacity="0.3">
<path d="M195.06 228.5H153.56C153.223 228.5 152.9 228.366 152.662 228.128C152.424 227.89 152.29 227.567 152.29 227.23C152.29 227.064 152.323 226.899 152.387 226.746C152.451 226.592 152.545 226.453 152.663 226.336C152.781 226.218 152.921 226.126 153.075 226.063C153.229 226 153.394 225.969 153.56 225.97H195.06C195.226 225.969 195.39 226 195.544 226.063C195.697 226.126 195.837 226.219 195.954 226.336C196.071 226.453 196.164 226.593 196.227 226.746C196.29 226.9 196.321 227.064 196.32 227.23C196.321 227.396 196.29 227.561 196.227 227.715C196.164 227.869 196.072 228.009 195.955 228.128C195.837 228.246 195.698 228.339 195.545 228.403C195.391 228.467 195.226 228.5 195.06 228.5Z" fill="white"/>
<path d="M211.27 236.09H153.56C153.394 236.091 153.229 236.06 153.075 235.997C152.921 235.934 152.781 235.842 152.663 235.725C152.545 235.607 152.451 235.468 152.387 235.315C152.323 235.161 152.29 234.996 152.29 234.83C152.29 234.493 152.424 234.17 152.662 233.932C152.9 233.694 153.223 233.56 153.56 233.56H211.27C211.607 233.56 211.93 233.694 212.168 233.932C212.406 234.17 212.54 234.493 212.54 234.83C212.54 234.996 212.507 235.161 212.443 235.315C212.379 235.468 212.286 235.607 212.167 235.725C212.049 235.842 211.909 235.934 211.755 235.997C211.601 236.06 211.436 236.091 211.27 236.09Z" fill="white"/>
<path d="M176.84 243.69H153.56C153.223 243.69 152.9 243.556 152.662 243.318C152.424 243.08 152.29 242.757 152.29 242.42C152.29 242.254 152.323 242.089 152.387 241.936C152.451 241.782 152.545 241.643 152.663 241.526C152.781 241.408 152.921 241.316 153.075 241.253C153.229 241.19 153.394 241.159 153.56 241.16H176.84C177.006 241.159 177.17 241.19 177.324 241.253C177.477 241.316 177.617 241.409 177.734 241.526C177.851 241.643 177.944 241.783 178.007 241.936C178.07 242.09 178.101 242.254 178.1 242.42C178.101 242.586 178.07 242.751 178.007 242.905C177.944 243.059 177.852 243.199 177.735 243.318C177.617 243.436 177.478 243.529 177.325 243.593C177.171 243.657 177.006 243.69 176.84 243.69Z" fill="white"/>
</g>
<path d="M152.789 256.6C153.909 254.78 156.059 255.48 157.159 256.89C158.269 255.47 160.409 254.77 161.539 256.59C163.429 259.66 159.539 262.51 157.699 263.59L157.179 263.91L156.649 263.59C154.809 262.52 150.899 259.68 152.789 256.6Z" fill="white"/>
<g opacity="0.6">
<path d="M170.169 257.08H176.389L176.099 263.95H170.469L170.169 257.08Z" fill="white"/>
<path d="M174.449 255.47L174.159 254.87H172.409L172.109 255.47L169.609 255.76V256.44H176.959V255.76L174.449 255.47Z" fill="white"/>
</g>
<g opacity="0.6">
<path d="M193.36 255.12H191.76C191.673 255.119 191.588 255.148 191.52 255.203C191.452 255.258 191.406 255.335 191.39 255.42L191.28 255.94H183.56H183.49H183.43L183.38 255.99V256.05V256.11C183.375 256.137 183.375 256.164 183.38 256.19L184.2 260.82C184.216 260.907 184.262 260.985 184.329 261.041C184.397 261.098 184.482 261.129 184.57 261.13H190.73C190.817 261.132 190.902 261.102 190.969 261.048C191.037 260.993 191.083 260.916 191.1 260.83L192.03 256.29C192.039 256.237 192.039 256.183 192.03 256.13L192.11 255.7H193.41C193.499 255.686 193.579 255.64 193.638 255.571C193.696 255.502 193.728 255.415 193.728 255.325C193.728 255.235 193.696 255.148 193.638 255.079C193.579 255.01 193.499 254.965 193.41 254.95L193.36 255.12ZM190.81 258.28H189.19L189.28 256.69H191.13L190.81 258.28ZM186.81 258.28L186.74 256.69H188.54L188.45 258.28H186.81ZM188.41 259.03L188.32 260.57H186.92L186.85 259.03H188.41ZM184.12 256.69H186L186.07 258.28H184.41L184.12 256.69ZM184.53 259.03H186.1L186.17 260.57H184.8L184.53 259.03ZM190.35 260.57H189.07L189.16 259.03H190.66L190.35 260.57Z" fill="white"/>
<path d="M184.83 262.08C184.644 262.078 184.461 262.131 184.305 262.234C184.149 262.336 184.027 262.482 183.954 262.653C183.882 262.825 183.862 263.014 183.897 263.197C183.932 263.38 184.021 263.549 184.152 263.681C184.283 263.814 184.45 263.904 184.633 263.941C184.815 263.978 185.005 263.96 185.177 263.889C185.35 263.819 185.497 263.698 185.601 263.543C185.704 263.389 185.76 263.206 185.76 263.02C185.76 262.772 185.662 262.535 185.488 262.359C185.314 262.183 185.077 262.083 184.83 262.08Z" fill="white"/>
<path d="M191.059 262.08C190.873 262.078 190.69 262.131 190.534 262.234C190.379 262.336 190.257 262.482 190.184 262.653C190.111 262.825 190.091 263.014 190.126 263.197C190.161 263.38 190.25 263.549 190.381 263.681C190.512 263.814 190.68 263.904 190.862 263.941C191.045 263.978 191.234 263.96 191.407 263.889C191.579 263.819 191.726 263.698 191.83 263.543C191.934 263.389 191.989 263.206 191.989 263.02C191.989 262.772 191.892 262.535 191.718 262.359C191.543 262.183 191.307 262.083 191.059 262.08Z" fill="white"/>
</g>
<path opacity="0.6" d="M217.2 110.14H100.44C99.2358 110.14 98.2598 111.116 98.2598 112.32V159.6C98.2598 160.804 99.2358 161.78 100.44 161.78H217.2C218.404 161.78 219.38 160.804 219.38 159.6V112.32C219.38 111.116 218.404 110.14 217.2 110.14Z" fill="#C50B44"/>
<path d="M145.91 115.17H103.58V154.07H145.91V115.17Z" fill="#C50B44"/>
<path opacity="0.6" d="M145.91 115.17H103.58V154.07H145.91V115.17Z" fill="white"/>
<path opacity="0.3" d="M143.859 117.22H105.739V151.91H143.859V117.22Z" fill="white"/>
<path opacity="0.3" d="M143.859 144.57V151.91H105.749L105.739 134.95L113.609 128.07L125.279 139.45L131.459 134.95L143.859 144.57Z" fill="white"/>
<g opacity="0.6">
<path d="M137.509 128.06C137.509 128.667 137.329 129.261 136.992 129.766C136.654 130.271 136.175 130.664 135.614 130.896C135.053 131.129 134.436 131.19 133.84 131.071C133.245 130.953 132.698 130.66 132.268 130.231C131.839 129.802 131.547 129.255 131.428 128.659C131.31 128.063 131.37 127.446 131.603 126.885C131.835 126.324 132.229 125.845 132.734 125.507C133.238 125.17 133.832 124.99 134.439 124.99C134.843 124.989 135.242 125.067 135.616 125.221C135.989 125.375 136.328 125.601 136.613 125.886C136.898 126.172 137.124 126.511 137.278 126.884C137.432 127.257 137.51 127.657 137.509 128.06Z" fill="white"/>
<path opacity="0.3" d="M137.509 128.06C137.509 128.667 137.329 129.261 136.992 129.766C136.654 130.271 136.175 130.664 135.614 130.896C135.053 131.129 134.436 131.19 133.84 131.071C133.245 130.953 132.698 130.66 132.268 130.231C131.839 129.802 131.547 129.255 131.428 128.659C131.31 128.063 131.37 127.446 131.603 126.885C131.835 126.324 132.229 125.845 132.734 125.507C133.238 125.17 133.832 124.99 134.439 124.99C134.843 124.989 135.242 125.067 135.616 125.221C135.989 125.375 136.328 125.601 136.613 125.886C136.898 126.172 137.124 126.511 137.278 126.884C137.432 127.257 137.51 127.657 137.509 128.06Z" fill="white"/>
</g>
<g opacity="0.3">
<path d="M195.06 118.5H153.56C153.393 118.5 153.228 118.467 153.074 118.403C152.92 118.34 152.78 118.246 152.662 118.128C152.544 118.01 152.451 117.87 152.387 117.716C152.323 117.562 152.29 117.397 152.29 117.23C152.29 117.064 152.323 116.899 152.387 116.746C152.451 116.592 152.545 116.453 152.663 116.336C152.781 116.218 152.921 116.126 153.075 116.063C153.229 116 153.394 115.969 153.56 115.97H195.06C195.226 115.969 195.39 116 195.544 116.063C195.697 116.126 195.837 116.219 195.954 116.336C196.071 116.453 196.164 116.593 196.227 116.746C196.29 116.9 196.321 117.064 196.32 117.23C196.321 117.396 196.29 117.561 196.227 117.715C196.164 117.869 196.072 118.009 195.955 118.128C195.837 118.246 195.698 118.339 195.545 118.403C195.391 118.467 195.226 118.5 195.06 118.5Z" fill="white"/>
<path d="M211.27 126.09H153.56C153.394 126.091 153.229 126.06 153.075 125.997C152.921 125.934 152.781 125.842 152.663 125.725C152.545 125.607 152.451 125.468 152.387 125.315C152.323 125.161 152.29 124.996 152.29 124.83C152.29 124.493 152.424 124.17 152.662 123.932C152.9 123.694 153.223 123.56 153.56 123.56H211.27C211.607 123.56 211.93 123.694 212.168 123.932C212.406 124.17 212.54 124.493 212.54 124.83C212.54 124.996 212.507 125.161 212.443 125.315C212.379 125.468 212.286 125.607 212.167 125.725C212.049 125.842 211.909 125.934 211.755 125.997C211.601 126.06 211.436 126.091 211.27 126.09Z" fill="white"/>
<path d="M176.84 133.69H153.56C153.223 133.69 152.9 133.556 152.662 133.318C152.424 133.08 152.29 132.757 152.29 132.42C152.29 132.254 152.323 132.089 152.387 131.936C152.451 131.782 152.545 131.643 152.663 131.526C152.781 131.408 152.921 131.316 153.075 131.253C153.229 131.19 153.394 131.159 153.56 131.16H176.84C177.006 131.159 177.17 131.19 177.324 131.253C177.477 131.316 177.617 131.409 177.734 131.526C177.851 131.643 177.944 131.783 178.007 131.936C178.07 132.09 178.101 132.254 178.1 132.42C178.101 132.586 178.07 132.751 178.007 132.905C177.944 133.059 177.852 133.199 177.735 133.318C177.617 133.436 177.478 133.529 177.325 133.593C177.171 133.657 177.006 133.69 176.84 133.69Z" fill="white"/>
</g>
<path d="M152.789 146.6C153.909 144.78 156.059 145.48 157.159 146.89C158.269 145.47 160.409 144.77 161.539 146.59C163.429 149.66 159.539 152.51 157.699 153.59L157.179 153.91L156.649 153.59C154.809 152.52 150.899 149.68 152.789 146.6Z" fill="white"/>
<g opacity="0.6">
<path d="M170.169 147.09H176.389L176.099 153.95H170.469L170.169 147.09Z" fill="white"/>
<path d="M174.449 145.47L174.159 144.87H172.409L172.109 145.47L169.609 145.76V146.44H176.959V145.76L174.449 145.47Z" fill="white"/>
</g>
<g opacity="0.6">
<path d="M193.36 145.12H191.76C191.673 145.119 191.588 145.148 191.52 145.203C191.452 145.258 191.406 145.335 191.39 145.42L191.28 145.94H183.56H183.49H183.43C183.43 145.94 183.43 145.94 183.38 145.99V146.05V146.11C183.375 146.137 183.375 146.164 183.38 146.19L184.2 150.82C184.216 150.907 184.262 150.985 184.329 151.041C184.397 151.098 184.482 151.129 184.57 151.13H190.73C190.817 151.132 190.902 151.102 190.969 151.048C191.037 150.993 191.083 150.916 191.1 150.83L192.03 146.29C192.039 146.237 192.039 146.183 192.03 146.13L192.11 145.7H193.41C193.499 145.686 193.579 145.64 193.638 145.571C193.696 145.502 193.728 145.415 193.728 145.325C193.728 145.235 193.696 145.148 193.638 145.079C193.579 145.01 193.499 144.965 193.41 144.95L193.36 145.12ZM190.81 148.28H189.19L189.28 146.69H191.13L190.81 148.28ZM186.81 148.28L186.74 146.69H188.54L188.45 148.28H186.81ZM188.41 149.03L188.32 150.57H186.92L186.85 149.03H188.41ZM184.12 146.69H186L186.07 148.28H184.41L184.12 146.69ZM184.53 149.03H186.1L186.17 150.57H184.8L184.53 149.03ZM190.35 150.57H189.07L189.16 149.03H190.66L190.35 150.57Z" fill="white"/>
<path d="M184.83 152.08C184.644 152.078 184.461 152.132 184.305 152.234C184.149 152.336 184.027 152.482 183.954 152.653C183.882 152.825 183.862 153.014 183.897 153.197C183.932 153.38 184.021 153.549 184.152 153.681C184.283 153.814 184.45 153.904 184.633 153.941C184.815 153.978 185.005 153.96 185.177 153.889C185.35 153.819 185.497 153.698 185.601 153.543C185.704 153.389 185.76 153.206 185.76 153.02C185.76 152.773 185.662 152.535 185.488 152.359C185.314 152.183 185.077 152.083 184.83 152.08Z" fill="white"/>
<path d="M191.059 152.08C190.873 152.078 190.69 152.132 190.534 152.234C190.379 152.336 190.257 152.482 190.184 152.653C190.111 152.825 190.091 153.014 190.126 153.197C190.161 153.38 190.25 153.549 190.381 153.681C190.512 153.814 190.68 153.904 190.862 153.941C191.045 153.978 191.234 153.96 191.407 153.889C191.579 153.819 191.726 153.698 191.83 153.543C191.934 153.389 191.989 153.206 191.989 153.02C191.989 152.773 191.892 152.535 191.718 152.359C191.543 152.183 191.307 152.083 191.059 152.08Z" fill="white"/>
</g>
<path d="M310.159 193.12L301.859 200.58C301.859 200.58 305.069 203.11 305.939 204C306.809 204.89 302.149 207.82 300.769 207C299.389 206.18 297.309 202.52 296.519 201C295.729 199.48 299.519 197.05 299.519 197.05L306.229 190.52L310.159 193.12Z" fill="#B97964"/>
<path d="M323.91 177C323.62 183 308.37 195.65 308.37 195.65L303.57 192.5C303.57 192.5 315.78 179.59 314.19 175.69C313.63 174.32 311.69 172.59 309.42 170.94C306.373 168.8 303.197 166.849 299.91 165.1L303.42 156.47L306.19 149.67C311.35 151.78 324.21 171.06 323.91 177Z" fill="#C50B44"/>
<path opacity="0.2" d="M309.42 171C306.373 168.86 303.197 166.909 299.91 165.16L303.42 156.53C306.28 159.48 310.69 165.18 309.42 171Z" fill="black"/>
<path d="M226.86 154.44L209.64 147.44C209.64 147.44 208.3 145.21 207.15 144.92C206 144.63 198.9 145.07 198.36 145.92C197.82 146.77 198.93 152.15 200.36 152.6C201.79 153.05 207.89 151.8 208.42 151.46L223.81 159.33L226.86 154.44Z" fill="#B97964"/>
<path d="M325.15 367.59L318.87 368.7L316.3 360.14L313.95 352.29L321.19 349.76L323.29 359.2L325.15 367.59Z" fill="#B97964"/>
<path opacity="0.2" d="M323.32 359.39L316.33 360.31L313.96 352.37L321.19 349.8L323.32 359.39Z" fill="black"/>
<path d="M283.24 367.75H276.87L275.82 359.2L274.87 351.21L282.44 350.06L282.87 359.44L283.24 367.75Z" fill="#B97964"/>
<path opacity="0.2" d="M282.87 360.01L275.82 359.7L274.87 351.46L282.44 350.19L282.87 360.01Z" fill="black"/>
<path d="M323.91 352.53L313.59 354.35C303.18 328.35 295.77 306.74 290.59 288.77C287.77 279.07 285.54 270.45 283.85 262.77L284.29 291.01V354.72H273.83C248.34 233.72 266.41 205.59 266.41 205.59L296.9 200.49C298.108 206.141 298.963 211.862 299.46 217.62L300.83 227.73L312.75 289.3L323.91 352.53Z" fill="#C50B44"/>
<g opacity="0.5">
<path d="M323.91 352.53L313.59 354.35C304.08 330.64 297.07 310.52 291.95 293.52C291.46 291.91 290.95 290.33 290.5 288.77C287.94 279.97 286.24 272.05 284.24 264.95C284.159 264.224 283.998 263.51 283.76 262.82L284.24 291.06V354.77H273.83C258.26 280.77 258.94 241.48 261.83 222.16C263.67 209.84 266.41 205.75 266.41 205.75L296.9 200.6C298.109 206.241 298.964 211.952 299.46 217.7L299.87 220.7L300.87 227.76L312.79 289.32L323.91 352.53Z" fill="white"/>
</g>
<path d="M311.979 353.07L324.779 348.83L324.599 354.27L314.019 357.65L311.979 353.07Z" fill="#C50B44"/>
<path opacity="0.6" d="M311.979 353.07L324.779 348.83L324.599 354.27L314.019 357.65L311.979 353.07Z" fill="white"/>
<path d="M272.46 353.66L285.81 351.71L284.69 357.04L273.68 358.53L272.46 353.66Z" fill="#C50B44"/>
<path opacity="0.6" d="M272.46 353.66L285.81 351.71L284.69 357.04L273.68 358.53L272.46 353.66Z" fill="white"/>
<path opacity="0.2" d="M292 293.52C291.51 291.91 291 290.33 290.55 288.77C288 279.97 286.29 272.05 284.29 264.95L283.29 251.87C283.29 251.87 289.81 237.5 287.37 227.38C287.59 227.96 291.91 238.98 290.22 249.98C289.825 264.517 290.419 279.064 292 293.52Z" fill="black"/>
<path d="M290.78 139.47C290.714 139.547 290.641 139.618 290.56 139.68C289.511 140.717 288.267 141.536 286.9 142.09C282.9 143.58 279.99 143.37 277.9 141.74C274.96 139.27 273.68 134.38 273.27 128.34C273.029 125.943 273.171 123.522 273.69 121.17C273.685 121.137 273.685 121.103 273.69 121.07C273.69 120.99 273.69 120.88 273.76 120.8C274.102 119.467 274.773 118.242 275.711 117.236C276.649 116.23 277.825 115.475 279.13 115.04C280.259 114.628 281.429 114.34 282.62 114.18C294.29 112.56 298.88 131.65 290.78 139.47Z" fill="#B97964"/>
<path opacity="0.2" d="M290.56 139.68C289.491 140.666 288.237 141.431 286.87 141.93C282.87 143.41 279.95 143.07 277.87 141.41C280.418 141.708 282.994 141.159 285.2 139.85C286.023 139.419 286.932 139.179 287.861 139.15C288.789 139.12 289.712 139.302 290.56 139.68Z" fill="black"/>
<path d="M293.829 148.71C295.679 151.6 292.079 154.39 292.079 154.39C284.359 154.02 281.809 150.93 281.809 150.93C286.299 145.93 281.649 138.37 281.649 138.37L282.989 138.5L291.499 137.12C291.499 137.12 290.869 142.12 290.929 143.23C291.299 148.85 293.829 148.71 293.829 148.71Z" fill="#B97964"/>
<path d="M273.67 121.1C273.67 121.1 274.08 129.37 282.29 131.9C282.29 131.9 286.72 139.98 291.64 139.47C298.36 138.78 303.03 128.47 299.47 119.1C294.86 106.91 275.67 108.33 273.67 121.1Z" fill="#263238"/>
<path d="M278.06 130.05C277.9 128.77 278.65 126.49 280.68 126.53C282.71 126.57 284.56 131.53 279.68 133.27C279 133.53 278.4 132.72 278.06 130.05Z" fill="#B97964"/>
<path d="M276.19 366.54H283.31C283.457 366.543 283.598 366.594 283.713 366.687C283.827 366.779 283.907 366.907 283.94 367.05L285.4 373.65C285.429 373.79 285.43 373.935 285.403 374.076C285.377 374.217 285.322 374.352 285.243 374.471C285.164 374.591 285.062 374.694 284.943 374.775C284.824 374.855 284.691 374.911 284.55 374.94C284.47 374.95 284.39 374.95 284.31 374.94C281.4 374.89 281.17 374.71 277.51 374.71C275.26 374.71 268.46 374.95 265.35 374.95C262.24 374.95 261.84 371.88 263.11 371.59C268.82 370.35 273.11 368.59 274.95 366.98C275.292 366.68 275.736 366.523 276.19 366.54Z" fill="#263238"/>
<path d="M273.739 367.84C273.238 367.879 272.738 367.749 272.319 367.47C272.17 367.355 272.055 367.2 271.99 367.023C271.924 366.846 271.91 366.654 271.949 366.47C271.948 366.368 271.976 366.268 272.029 366.182C272.082 366.095 272.158 366.025 272.249 365.98C273.069 365.56 275.469 367.03 275.729 367.2C275.76 367.215 275.785 367.24 275.799 367.271C275.814 367.302 275.817 367.337 275.809 367.37C275.806 367.405 275.792 367.439 275.768 367.466C275.745 367.493 275.714 367.512 275.679 367.52C275.046 367.697 274.396 367.804 273.739 367.84ZM272.639 366.31C272.564 366.29 272.485 366.29 272.409 366.31C272.409 366.31 272.309 366.38 272.299 366.52C272.285 366.636 272.299 366.753 272.339 366.862C272.379 366.972 272.444 367.07 272.529 367.15C273.36 367.53 274.303 367.58 275.169 367.29C274.397 366.803 273.538 366.47 272.639 366.31Z" fill="#C50B44"/>
<path d="M275.64 367.58H275.55C274.79 367.17 273.31 365.53 273.46 364.75C273.485 364.62 273.555 364.503 273.657 364.419C273.759 364.335 273.888 364.29 274.02 364.29C274.154 364.276 274.289 364.289 274.418 364.328C274.547 364.368 274.667 364.433 274.77 364.52C275.63 365.21 275.77 367.34 275.77 367.45C275.772 367.481 275.765 367.512 275.751 367.54C275.737 367.569 275.716 367.592 275.69 367.61C275.671 367.603 275.654 367.593 275.64 367.58ZM274.15 364.58H274.06C273.84 364.58 273.82 364.72 273.81 364.76C273.71 365.24 274.66 366.48 275.42 367.05C275.367 366.205 275.06 365.397 274.54 364.73C274.432 364.633 274.294 364.577 274.15 364.57V364.58Z" fill="#C50B44"/>
<path d="M318.63 366.54H325.74C325.888 366.539 326.031 366.589 326.146 366.682C326.261 366.775 326.34 366.905 326.37 367.05L327.83 373.65C327.861 373.79 327.863 373.934 327.838 374.075C327.812 374.216 327.758 374.351 327.68 374.471C327.602 374.591 327.501 374.694 327.382 374.775C327.264 374.855 327.13 374.911 326.99 374.94H326.75C323.84 374.89 323.6 374.71 319.95 374.71C317.69 374.71 310.9 374.95 307.79 374.95C304.68 374.95 304.27 371.88 305.55 371.59C311.26 370.35 315.55 368.59 317.38 366.98C317.726 366.68 318.173 366.522 318.63 366.54Z" fill="#263238"/>
<path d="M316.18 367.84C315.675 367.881 315.172 367.751 314.75 367.47C314.607 367.35 314.499 367.194 314.436 367.018C314.372 366.843 314.357 366.653 314.39 366.47C314.388 366.368 314.415 366.268 314.468 366.181C314.521 366.094 314.598 366.024 314.69 365.98C315.51 365.56 317.9 367.03 318.17 367.2C318.2 367.216 318.223 367.241 318.238 367.272C318.252 367.302 318.256 367.337 318.25 367.37C318.246 367.405 318.231 367.438 318.208 367.464C318.185 367.491 318.154 367.51 318.12 367.52C317.487 367.696 316.836 367.803 316.18 367.84ZM315.07 366.31C314.998 366.291 314.922 366.291 314.85 366.31C314.8 366.31 314.74 366.38 314.74 366.52C314.724 366.636 314.736 366.754 314.776 366.864C314.816 366.974 314.883 367.072 314.97 367.15C315.8 367.53 316.744 367.58 317.61 367.29C316.836 366.8 315.973 366.467 315.07 366.31Z" fill="#C50B44"/>
<path d="M318.069 367.58H317.999C317.229 367.17 315.749 365.53 315.899 364.75C315.929 364.62 316.001 364.504 316.104 364.421C316.208 364.337 316.336 364.291 316.469 364.29C316.602 364.277 316.735 364.291 316.862 364.33C316.99 364.37 317.107 364.434 317.209 364.52C318.069 365.21 318.209 367.34 318.259 367.45C318.259 367.481 318.251 367.511 318.237 367.539C318.223 367.566 318.204 367.591 318.179 367.61C318.14 367.613 318.101 367.602 318.069 367.58ZM316.579 364.58H316.499C316.269 364.58 316.249 364.72 316.239 364.76C316.149 365.24 317.089 366.48 317.849 367.05C317.805 366.205 317.501 365.395 316.979 364.73C316.868 364.632 316.727 364.575 316.579 364.57V364.58Z" fill="#C50B44"/>
<path d="M266.409 205.73C266.409 205.73 262.409 166.81 272.409 150.92C272.409 150.92 286.409 146.06 306.189 149.71C306.189 149.71 298.799 177.04 297.939 205.71L266.409 205.73Z" fill="#263238"/>
<path d="M303.51 198.58L270.51 199.45C268.26 193.83 266.868 187.904 266.38 181.87C265.992 177.373 265.935 172.855 266.21 168.35C266.471 163.304 267.139 158.288 268.21 153.35C276.64 144.06 306.13 149.68 306.13 149.68C301.7 170.79 303.51 198.58 303.51 198.58Z" fill="#C50B44"/>
<path d="M275 115.25C274.79 114.7 271.79 117.51 271.65 117.72C271.004 118.625 270.624 119.694 270.555 120.804C270.486 121.914 270.731 123.022 271.26 124C272.43 126 274.86 127.39 275.07 129.7C275.16 130.76 274.74 131.8 274.74 132.87C274.807 134.28 275.412 135.612 276.43 136.59C278.38 138.59 281.58 139.44 281.78 142.68C281.752 144.101 281.648 145.52 281.47 146.93C281.388 147.639 281.475 148.357 281.724 149.026C281.972 149.695 282.375 150.296 282.9 150.78C283.789 151.269 284.742 151.632 285.73 151.86C286.68 152.21 287.64 152.99 287.6 154C287.452 154.64 287.231 155.261 286.94 155.85C286.829 156.438 286.892 157.045 287.121 157.597C287.35 158.15 287.736 158.623 288.23 158.96C290.16 160.44 293.31 160.28 294.86 162.33C295.128 162.617 295.33 162.959 295.451 163.333C295.573 163.706 295.611 164.102 295.563 164.491C295.516 164.881 295.383 165.256 295.176 165.589C294.968 165.922 294.689 166.206 294.36 166.42C294.36 166.42 298.08 166.68 298.74 163.12C299.029 164.012 298.955 164.983 298.534 165.821C298.113 166.66 297.379 167.299 296.49 167.6C296.49 167.6 300.03 168.13 300.7 163.65C301.005 164.268 301.513 164.763 302.14 165.051C302.766 165.339 303.473 165.402 304.14 165.23C304.14 165.23 301.4 164.29 303.5 161.33C304.7 159.64 306.28 157.91 306.5 155.76C306.78 153.36 304.8 151.53 305.14 149.12C305.45 146.86 307.6 145.23 308.14 143.01C308.428 141.584 308.167 140.102 307.41 138.86C306.26 136.86 303.97 135.86 303.97 133.32C303.97 131.32 304.78 129.38 305.21 127.41C305.597 126.039 305.484 124.575 304.89 123.28C304.251 122.327 303.453 121.492 302.53 120.81C299.84 118.4 301.23 114.62 298.81 111.97C298.25 111.345 297.554 110.858 296.775 110.545C295.997 110.233 295.157 110.105 294.32 110.17C293.355 110.36 292.404 110.61 291.47 110.92C289.47 111.41 288.27 110.41 286.74 109.37C284.26 107.69 280.68 106.9 277.89 108.3C276.654 108.917 275.681 109.96 275.15 111.236C274.619 112.513 274.566 113.937 275 115.25Z" fill="#263238"/>
<path d="M279.8 139.73C279.044 139.776 278.286 139.667 277.574 139.409C276.862 139.151 276.211 138.75 275.66 138.23C274.36 136.88 274.2 135.01 274.21 133.23V132.75C274.21 130.9 274.21 129.31 273.21 127.75C272.89 127.26 272.51 126.75 272.15 126.33C271.412 125.489 270.805 124.542 270.35 123.52C270.101 122.898 269.984 122.232 270.004 121.562C270.025 120.893 270.183 120.235 270.47 119.63C271.87 116.63 275.73 115.16 276.88 114.78C276.938 114.759 277.002 114.761 277.059 114.788C277.115 114.814 277.159 114.861 277.18 114.92C277.201 114.978 277.198 115.043 277.172 115.099C277.146 115.155 277.098 115.199 277.04 115.22C274.75 115.99 271.94 117.61 270.9 119.83C270.637 120.376 270.492 120.972 270.473 121.578C270.454 122.184 270.562 122.788 270.79 123.35C271.225 124.327 271.809 125.231 272.52 126.03C272.89 126.5 273.27 126.98 273.6 127.49C274.7 129.16 274.68 130.9 274.66 132.74V133.22C274.66 134.94 274.8 136.71 275.98 137.93C277.63 139.63 280.27 139.4 282.39 139.01C282.45 139.003 282.51 139.019 282.559 139.055C282.607 139.091 282.641 139.144 282.652 139.203C282.663 139.262 282.652 139.324 282.62 139.375C282.588 139.426 282.538 139.464 282.48 139.48C281.595 139.64 280.699 139.723 279.8 139.73Z" fill="#263238"/>
<path d="M303.68 163.16C303.642 163.159 303.606 163.15 303.573 163.132C303.54 163.115 303.511 163.09 303.49 163.06C302.63 161.82 304.49 159.71 305.79 158.31C306.065 158.023 306.325 157.723 306.57 157.41C307.147 156.728 307.485 155.877 307.534 154.985C307.583 154.093 307.339 153.21 306.84 152.47L306.49 151.98C305.69 150.86 304.78 149.58 305.49 148.04C305.8 147.432 306.194 146.869 306.66 146.37C307.077 145.933 307.434 145.442 307.72 144.91C308.186 144.001 308.277 142.946 307.972 141.971C307.667 140.996 306.991 140.18 306.09 139.7C306.062 139.685 306.038 139.665 306.019 139.641C305.999 139.617 305.985 139.589 305.976 139.559C305.968 139.529 305.966 139.498 305.97 139.467C305.974 139.436 305.984 139.407 306 139.38C306.035 139.327 306.087 139.289 306.148 139.273C306.208 139.256 306.273 139.262 306.33 139.29C307.327 139.839 308.073 140.753 308.41 141.84C308.748 142.927 308.651 144.103 308.14 145.12C307.834 145.685 307.457 146.209 307.02 146.68C306.582 147.142 306.211 147.664 305.92 148.23C305.34 149.53 306.1 150.59 306.92 151.71L307.27 152.21C307.825 153.028 308.098 154.005 308.048 154.992C307.997 155.979 307.626 156.923 306.99 157.68C306.738 158.012 306.468 158.329 306.18 158.63C305.09 159.83 303.27 161.86 303.91 162.79C303.946 162.841 303.961 162.903 303.951 162.965C303.942 163.027 303.909 163.082 303.86 163.12C303.807 163.156 303.743 163.17 303.68 163.16Z" fill="#263238"/>
<path opacity="0.2" d="M266.41 181.87C266.022 177.373 265.965 172.855 266.24 168.35C269.91 165.29 272.76 163.11 272.76 163.11C272.76 163.11 273.83 174.6 266.41 181.87Z" fill="black"/>
<path d="M274.27 150C274.27 150 276.93 163.41 266.15 170.14C266.15 170.14 240.36 170.07 235.46 168.47C230.56 166.87 215.62 157.04 215.62 157.04L219.39 150.49C219.39 150.49 233.81 155.6 238.16 157.04C242.51 158.48 274.27 150 274.27 150Z" fill="#C50B44"/>
</g>
<defs>
<clipPath id="clip0_7_815">
<rect width="457" height="396" fill="white"/>
</clipPath>
</defs>
</svg>
