<svg width="457" height="396" viewBox="0 0 457 396" fill="none" xmlns="http://www.w3.org/2000/svg">
<g clip-path="url(#clip0_7_816)">
<path d="M461.145 329.577H-4V329.81H461.145V329.577Z" fill="#FFD2D2"/>
<path d="M414.538 344.546H400.677V344.778H414.538V344.546Z" fill="#FFD2D2"/>
<path d="M304.131 347.076H296.047V347.309H304.131V347.076Z" fill="#FFD2D2"/>
<path d="M396.751 335.912H364.944V336.145H396.751V335.912Z" fill="#FFD2D2"/>
<path d="M97.9878 340.713H57.8086V340.945H97.9878V340.713Z" fill="#FFD2D2"/>
<path d="M120.762 340.713H106.268V340.945H120.762V340.713Z" fill="#FFD2D2"/>
<path d="M233.001 337.587H145.852V337.819H233.001V337.587Z" fill="#FFD2D2"/>
<path d="M216.479 288.086H36.8495C35.4423 288.084 34.0936 287.523 33.0994 286.527C32.1052 285.531 31.5469 284.181 31.5469 282.774V30.2654C31.5591 28.8663 32.1229 27.5285 33.1158 26.5426C34.1086 25.5567 35.4503 25.0024 36.8495 25H216.479C217.888 25 219.239 25.5597 220.235 26.5558C221.232 27.552 221.791 28.9031 221.791 30.312V282.774C221.791 284.183 221.232 285.534 220.235 286.53C219.239 287.527 217.888 288.086 216.479 288.086ZM36.8495 25.1861C35.504 25.1885 34.2144 25.7248 33.2639 26.6771C32.3133 27.6294 31.7794 28.9199 31.7794 30.2654V282.774C31.7794 284.12 32.3133 285.41 33.2639 286.363C34.2144 287.315 35.504 287.851 36.8495 287.854H216.479C217.826 287.851 219.116 287.315 220.068 286.363C221.02 285.411 221.556 284.121 221.559 282.774V30.2654C221.556 28.9191 221.02 27.6285 220.068 26.6765C219.116 25.7245 217.826 25.1885 216.479 25.1861H36.8495Z" fill="#FFD2D2"/>
<path d="M417.71 288.086H238.071C236.663 288.084 235.313 287.523 234.317 286.528C233.322 285.532 232.761 284.182 232.759 282.774V30.2654C232.773 28.8655 233.339 27.5277 234.334 26.542C235.328 25.5564 236.671 25.0024 238.071 25H417.71C419.107 25.0048 420.447 25.5603 421.438 26.5459C422.428 27.5315 422.991 28.8679 423.003 30.2654V282.774C423.003 284.18 422.446 285.528 421.454 286.524C420.462 287.519 419.115 288.081 417.71 288.086ZM238.071 25.1861C236.724 25.1885 235.434 25.7245 234.482 26.6765C233.53 27.6285 232.994 28.9191 232.991 30.2654V282.774C232.994 284.121 233.53 285.411 234.482 286.363C235.434 287.315 236.724 287.851 238.071 287.854H417.71C419.056 287.851 420.347 287.315 421.299 286.363C422.251 285.411 422.787 284.121 422.789 282.774V30.2654C422.787 28.9191 422.251 27.6285 421.299 26.6765C420.347 25.7245 419.056 25.1885 417.71 25.1861H238.071Z" fill="#FFD2D2"/>
<path d="M202.059 322.786H209.408V272.458H202.059V322.786Z" fill="#E698B0"/>
<path d="M53.4079 329.577H204.562V322.786H53.4079V329.577Z" fill="#E698B0"/>
<path d="M202.059 272.457H48.5518V322.786H202.059V272.457Z" fill="#E698B0"/>
<path d="M192.124 281.221H58.4785V309.967H192.124V281.221Z" fill="#FFD651"/>
<path d="M92.7972 285.063H157.825C159.042 285.063 160.029 284.076 160.029 282.858V282.449C160.029 281.231 159.042 280.244 157.825 280.244H92.7972C91.5795 280.244 90.5924 281.231 90.5924 282.449V282.858C90.5924 284.076 91.5795 285.063 92.7972 285.063Z" fill="#E698B0"/>
<path d="M45.1847 272.457H202.06V267.964H45.1847V272.457Z" fill="#E698B0"/>
<path d="M212.935 267.964H202.06V272.457H212.935V267.964Z" fill="#E698B0"/>
<path d="M196.449 201.579L393.141 201.579V50.7321L196.449 50.7321L196.449 201.579Z" fill="#E698B0"/>
<path d="M178.039 44.8618H404.267C404.718 44.8618 405.151 45.0411 405.471 45.3604C405.79 45.6797 405.969 46.1127 405.969 46.5642C405.967 47.0141 405.786 47.4447 405.467 47.762C405.148 48.0793 404.717 48.2573 404.267 48.2573H178.039C177.815 48.2586 177.592 48.2154 177.385 48.1304C177.177 48.0454 176.988 47.9202 176.829 47.762C176.67 47.6038 176.544 47.4157 176.458 47.2086C176.371 47.0014 176.327 46.7793 176.327 46.5549C176.328 46.3313 176.374 46.1102 176.46 45.9041C176.547 45.698 176.673 45.511 176.832 45.3538C176.991 45.1966 177.18 45.0722 177.387 44.9878C177.594 44.9034 177.815 44.8606 178.039 44.8618Z" fill="#FF6555"/>
<path d="M189.156 201.579L389.736 201.579V50.7321L189.156 50.7321L189.156 201.579Z" fill="#E698B0"/>
<path d="M196.449 201.579H393.141V206.407H191.426L196.449 201.579Z" fill="#E698B0"/>
<path d="M177.006 201.579H377.586L372.563 206.407H171.992L177.006 201.579Z" fill="#E698B0"/>
<path d="M379.521 191.373V60.9368L199.361 60.9368V191.373H379.521Z" fill="#B0F8FF"/>
<path d="M319.406 191.364L259.505 60.9368H231.215L291.126 191.364H319.406Z" fill="white"/>
<path d="M285.051 191.364L225.14 60.9368H214.116L274.027 191.364H285.051Z" fill="white"/>
<path d="M200.664 191.373V60.9368H199.371V191.373H200.664Z" fill="#E698B0"/>
<g opacity="0.4">
<path d="M379.41 166.283H396.974V41.8011H379.41V166.283Z" fill="#E698B0"/>
<path d="M372.563 166.283H386.247V41.8011H372.563V166.283Z" fill="#E698B0"/>
<path d="M361.845 166.283H379.409V41.8011H361.845V166.283Z" fill="#E698B0"/>
<path d="M354.999 166.283H368.684V41.8011H354.999V166.283Z" fill="#E698B0"/>
<path d="M344.272 166.283H361.836V41.8011H344.272V166.283Z" fill="#E698B0"/>
</g>
<g opacity="0.4">
<path d="M205.911 166.283H216.032L216.032 41.8011H205.911L205.911 166.283Z" fill="#E698B0"/>
<path d="M201.957 166.283H209.846L209.846 41.8011H201.957L201.957 166.283Z" fill="#E698B0"/>
<path d="M195.78 166.283H205.901L205.901 41.8011H195.78L195.78 166.283Z" fill="#E698B0"/>
<path d="M191.836 166.283H199.725L199.725 41.8011H191.836L191.836 166.283Z" fill="#E698B0"/>
<path d="M185.658 166.283H195.779L195.779 41.8011H185.658L185.658 166.283Z" fill="#E698B0"/>
</g>
<path d="M142.242 41.8849H61.4277V248.372H142.242V41.8849Z" fill="#E698B0"/>
<path d="M142.251 248.363H144.465L144.465 41.8755H142.251L142.251 248.363Z" fill="#E0E0E0"/>
<path d="M134.753 240.883V49.3643L68.907 49.3643L68.907 240.883H134.753Z" fill="white"/>
<path d="M92.0898 240.883L113.942 49.3643H126.548L104.705 240.883H92.0898Z" fill="#B0F8FF"/>
<path d="M81.168 240.883L103.011 49.3643H109.319L87.4753 240.883H81.168Z" fill="#B0F8FF"/>
<path d="M228.572 371.589C328.19 371.589 408.946 366.874 408.946 361.058C408.946 355.242 328.19 350.527 228.572 350.527C128.954 350.527 48.1982 355.242 48.1982 361.058C48.1982 366.874 128.954 371.589 228.572 371.589Z" fill="#E698B0"/>
<path d="M366.302 361.059H257.644C256.131 361.075 254.63 360.776 253.238 360.18C251.846 359.585 250.594 358.706 249.56 357.6C248.527 356.494 247.735 355.184 247.235 353.755C246.735 352.326 246.539 350.809 246.658 349.3L261.821 119.453C262.075 116.286 263.499 113.327 265.816 111.153C268.133 108.979 271.176 107.746 274.352 107.694H383.001C384.514 107.679 386.014 107.979 387.404 108.575C388.795 109.171 390.047 110.05 391.079 111.156C392.112 112.262 392.903 113.571 393.402 114.999C393.901 116.428 394.097 117.944 393.979 119.453L378.833 349.3C378.579 352.466 377.155 355.425 374.839 357.599C372.522 359.773 369.479 361.006 366.302 361.059Z" fill="#263238"/>
<path d="M389.178 169.502H376.024C375.658 169.506 375.296 169.433 374.961 169.29C374.625 169.146 374.323 168.934 374.073 168.667C373.824 168.4 373.633 168.084 373.512 167.74C373.391 167.395 373.344 167.029 373.372 166.665L374.684 146.756C374.757 145.999 375.107 145.296 375.667 144.781C376.226 144.266 376.956 143.976 377.717 143.966H390.862C391.223 143.962 391.581 144.033 391.913 144.174C392.245 144.315 392.545 144.523 392.794 144.785C393.042 145.047 393.235 145.357 393.358 145.696C393.482 146.035 393.535 146.396 393.513 146.756L392.201 166.665C392.141 167.429 391.798 168.144 391.239 168.668C390.68 169.193 389.945 169.49 389.178 169.502Z" fill="#263238"/>
<path d="M302.791 104.438H297.981V105.368H302.791V104.438Z" fill="#3C3C3C"/>
<path d="M292.056 104.438H274.566V105.368H292.056V104.438Z" fill="#3C3C3C"/>
<path d="M364.646 361.058H255.988C254.475 361.073 252.975 360.773 251.584 360.177C250.193 359.581 248.941 358.702 247.908 357.596C246.874 356.49 246.082 355.182 245.582 353.753C245.082 352.325 244.884 350.808 245.002 349.299L260.203 119.452C260.457 116.286 261.881 113.327 264.197 111.153C266.514 108.979 269.557 107.746 272.734 107.693H381.392C382.899 107.688 384.391 107.994 385.774 108.594C387.157 109.194 388.401 110.075 389.426 111.18C390.452 112.285 391.237 113.591 391.732 115.014C392.228 116.438 392.422 117.949 392.304 119.452L377.177 349.299C376.923 352.466 375.499 355.425 373.183 357.599C370.866 359.773 367.823 361.006 364.646 361.058Z" fill="#3C3C3C"/>
<path d="M369.577 334.285H254.621C253.761 334.294 252.908 334.124 252.118 333.786C251.327 333.447 250.616 332.948 250.028 332.32C249.441 331.691 248.991 330.948 248.707 330.136C248.423 329.325 248.311 328.463 248.378 327.605L261.579 127.5C261.722 125.706 262.526 124.028 263.836 122.794C265.146 121.56 266.868 120.856 268.668 120.82H383.652C384.512 120.811 385.364 120.981 386.155 121.32C386.945 121.658 387.657 122.157 388.244 122.785C388.831 123.414 389.281 124.157 389.565 124.969C389.849 125.781 389.961 126.642 389.894 127.5L376.693 327.605C376.55 329.404 375.742 331.085 374.426 332.32C373.11 333.555 371.381 334.256 369.577 334.285Z" fill="white"/>
<path d="M348.134 120.82H325.305L269.999 334.284H292.828L348.134 120.82Z" fill="#B0F8FF"/>
<path d="M368.247 120.82H356.832L301.526 334.284H312.941L368.247 120.82Z" fill="#B0F8FF"/>
<path d="M353.083 268.141L328.262 174.266C327.599 171.77 325.973 169.639 323.741 168.34C321.509 167.041 318.853 166.679 316.355 167.335L257.635 182.852L249.802 305.52L346.152 280.058C348.647 279.39 350.776 277.762 352.075 275.529C353.374 273.296 353.736 270.64 353.083 268.141Z" fill="#767676"/>
<path opacity="0.2" d="M316.255 350.177C319.238 347.291 319.468 342.688 316.767 339.896C314.067 337.104 309.459 337.181 306.475 340.067C303.491 342.954 303.262 347.557 305.962 350.349C308.663 353.14 313.271 353.064 316.255 350.177Z" fill="white"/>
<path opacity="0.2" d="M329.631 113.88C329.566 114.691 329.201 115.448 328.607 116.004C328.014 116.559 327.234 116.874 326.421 116.885C326.036 116.886 325.655 116.807 325.301 116.654C324.948 116.5 324.63 116.276 324.368 115.993C324.106 115.711 323.905 115.378 323.778 115.014C323.651 114.65 323.601 114.264 323.63 113.88C323.693 113.069 324.057 112.31 324.651 111.754C325.245 111.198 326.026 110.884 326.84 110.875C327.225 110.874 327.606 110.953 327.96 111.106C328.313 111.26 328.631 111.485 328.893 111.767C329.155 112.049 329.356 112.382 329.483 112.746C329.61 113.11 329.66 113.496 329.631 113.88Z" fill="white"/>
<path opacity="0.2" d="M328.272 113.88C328.239 114.326 328.041 114.743 327.715 115.05C327.39 115.357 326.961 115.53 326.514 115.536C326.3 115.539 326.089 115.498 325.892 115.414C325.696 115.331 325.519 115.207 325.374 115.051C325.228 114.895 325.117 114.71 325.047 114.508C324.978 114.307 324.951 114.092 324.969 113.88C325.002 113.434 325.201 113.016 325.526 112.71C325.852 112.403 326.281 112.23 326.728 112.224C326.941 112.221 327.153 112.262 327.349 112.346C327.545 112.429 327.722 112.553 327.868 112.709C328.013 112.865 328.124 113.05 328.194 113.251C328.264 113.453 328.29 113.667 328.272 113.88Z" fill="white"/>
<path d="M153.516 102.27C156.986 93.7392 155.74 83.3479 145.897 81.0221C143.729 80.4634 141.459 80.4206 139.271 80.8971C137.082 81.3737 135.036 82.3564 133.296 83.7664C131.556 85.1764 130.17 86.9745 129.25 89.0166C128.33 91.0586 127.902 93.2878 127.999 95.5254C128.389 104.828 134.511 112.578 123.784 119.322C113.058 126.067 114.202 146.394 134.948 142.468C155.693 138.542 144.483 127.872 144.483 127.872C144.483 127.872 139.395 132.021 137.757 127.797C135.683 122.327 149.498 112.252 153.516 102.27Z" fill="#263238"/>
<path d="M117.012 130.253L116.556 130.151C117.942 123.946 120.119 122.346 122.416 120.653C124.714 118.959 126.891 117.35 128.649 111.247C129.477 108.373 128.956 105.191 128.445 102.121C127.794 98.2046 127.124 94.1486 129.142 90.5204L129.543 90.753C127.608 94.2323 128.268 98.1954 128.901 102.047C129.422 105.173 129.961 108.401 129.096 111.35C127.301 117.601 124.956 119.322 122.696 120.997C120.435 122.671 118.36 124.225 117.012 130.253Z" fill="#263238"/>
<path d="M179.937 149.129C180.002 149.445 180.113 149.919 180.216 150.347L180.541 151.659C180.765 152.543 181.016 153.427 181.276 154.31C181.807 156.069 182.374 157.845 182.988 159.594C184.216 163.114 185.619 166.57 187.193 169.949L188.365 172.395C188.563 172.833 188.845 173.228 189.193 173.558C190.239 174.399 191.486 174.951 192.812 175.158C196.29 175.721 199.836 175.721 203.315 175.158L204.571 179.112C203.608 179.536 202.624 179.909 201.622 180.228C200.626 180.559 199.614 180.839 198.589 181.066C196.455 181.557 194.265 181.76 192.077 181.67C189.502 181.598 186.999 180.808 184.849 179.391C183.639 178.552 182.618 177.468 181.853 176.209L181.704 175.977L181.611 175.819L181.425 175.484L181.044 174.833L180.29 173.512C178.343 169.963 176.634 166.29 175.174 162.516C174.467 160.655 173.769 158.711 173.201 156.748C172.922 155.817 172.643 154.785 172.392 153.78C172.141 152.775 171.918 151.827 171.713 150.636L179.937 149.129Z" fill="#FFC3BD"/>
<path d="M172.755 136.123C182.142 140.309 182.058 154.375 182.058 154.375L172.169 160.32C172.169 160.32 164.727 149.305 165.285 144.3C165.834 139.081 167.434 133.769 172.755 136.123Z" fill="#C50B44"/>
<path opacity="0.2" d="M174.234 148.124C171.667 145.528 169.406 148.524 167.341 151.845C168.757 154.782 170.37 157.619 172.169 160.339L176.225 157.901C177.025 154.803 176.793 150.729 174.234 148.124Z" fill="black"/>
<path d="M202.338 175.512L208.943 172.218L209.017 180.861C209.017 180.861 204.087 181.717 200.803 178.256L202.338 175.512Z" fill="#FFC3BD"/>
<path d="M216.041 173.753L214.907 180.172L209.018 180.861L208.943 172.218L216.041 173.753Z" fill="#FFC3BD"/>
<path d="M141.879 354.193L150.047 354.974L153.852 335.968L145.684 335.187L141.879 354.193Z" fill="#FFC3BD"/>
<path d="M88.3213 331.912L94.9636 336.75L106.043 321.028L99.3917 316.19L88.3213 331.912Z" fill="#FFC3BD"/>
<path d="M97.4012 333.726L91.9311 326.237C91.8402 326.105 91.7034 326.01 91.5471 325.973C91.3908 325.935 91.226 325.956 91.0845 326.033L84.526 329.512C84.3639 329.606 84.2235 329.733 84.114 329.885C84.0045 330.037 83.9283 330.211 83.8906 330.394C83.8528 330.578 83.8543 330.768 83.8948 330.95C83.9354 331.133 84.0141 331.306 84.126 331.456C86.0796 334.033 87.1494 335.177 89.5588 338.48C91.0473 340.508 94.0242 345.206 96.0709 348.006C98.1175 350.806 100.992 348.936 100.397 347.587C97.6989 341.531 97.6059 337.987 97.8105 335.149C97.8495 334.641 97.7042 334.136 97.4012 333.726Z" fill="#263238"/>
<path d="M151.126 352.509H141.321C141.144 352.509 140.973 352.568 140.833 352.675C140.694 352.783 140.594 352.934 140.548 353.104L138.418 360.835C138.366 361.018 138.357 361.21 138.393 361.397C138.428 361.584 138.507 361.76 138.623 361.911C138.738 362.062 138.888 362.184 139.059 362.267C139.23 362.35 139.419 362.391 139.609 362.388C143.07 362.388 144.707 362.388 149.014 362.388H162.196C165.778 362.388 166.522 358.77 165.043 358.435C158.401 356.965 154.568 354.937 152.512 353.002C152.129 352.668 151.634 352.492 151.126 352.509Z" fill="#263238"/>
<path opacity="0.2" d="M153.852 335.978L151.889 345.774H143.562L145.684 335.197L153.852 335.978Z" fill="black"/>
<path opacity="0.2" d="M99.3917 316.19L106.043 321.037L100.331 329.14L93.6797 324.293L99.3917 316.19Z" fill="black"/>
<path d="M176.625 143.538C176.048 149.817 173.964 162.143 167.871 186.229L134.436 183.335C136.046 170.786 136.799 162.655 133.655 138.895C133.553 138.11 133.613 137.312 133.832 136.551C134.051 135.79 134.425 135.082 134.929 134.471C135.433 133.861 136.058 133.36 136.763 133.001C137.469 132.642 138.241 132.432 139.032 132.383C141.441 132.253 144.307 132.169 147.181 132.281C152.267 132.357 157.34 132.796 162.364 133.593C165.313 134.123 168.457 134.886 171.015 135.556C172.743 136.008 174.254 137.058 175.281 138.52C176.308 139.981 176.784 141.759 176.625 143.538Z" fill="#C50B44"/>
<path opacity="0.2" d="M134.511 145.854C134.939 149.575 135.255 152.896 135.441 155.873C138.52 155.603 140.79 152.226 141.023 145.166C139.869 141.751 137.125 142.989 134.511 145.854Z" fill="black"/>
<path d="M167.871 186.229C167.871 186.229 179.183 236.279 171.592 271.565C166.541 295.194 155.294 342.927 155.294 342.927L141.032 342.564C141.032 342.564 147.842 292.468 150.698 272.793C155.582 239.097 143.349 184.145 143.349 184.145L167.871 186.229Z" fill="#263238"/>
<path opacity="0.2" d="M154.828 196.341L147.692 207.588C149.841 220.924 151.205 234.374 151.776 247.87C161.805 229.915 157.051 205.839 154.828 196.341Z" fill="black"/>
<path d="M157.339 343.671L139.72 343.224L140.743 337.81L158.716 338.657L157.339 343.671Z" fill="#C50B44"/>
<path d="M160.558 185.699C160.558 185.699 153.925 238.772 139.534 267.75C127.914 291.156 103.606 328.359 103.606 328.359L94.7217 321.242C94.7217 321.242 109.923 280.095 118.556 264.55C139.738 226.408 122.426 197.337 134.436 183.336L160.558 185.699Z" fill="#263238"/>
<path d="M299.69 138.468L141.563 204.906C136.598 206.992 134.265 212.707 136.351 217.671L173.961 307.185C176.046 312.149 181.761 314.482 186.725 312.397L344.853 245.959C349.817 243.873 352.15 238.158 350.065 233.194L312.455 143.679C310.369 138.715 304.654 136.382 299.69 138.468Z" fill="#C50B44"/>
<path opacity="0.1" d="M299.69 138.468L141.563 204.906C136.598 206.992 134.265 212.707 136.351 217.671L173.961 307.185C176.046 312.149 181.761 314.482 186.725 312.397L344.853 245.959C349.817 243.873 352.15 238.158 350.065 233.194L312.455 143.679C310.369 138.715 304.654 136.382 299.69 138.468Z" fill="black"/>
<path opacity="0.2" d="M185.181 200.921L154.219 213.93C151.832 214.933 150.71 217.681 151.713 220.069L158.239 235.601C159.242 237.988 161.99 239.11 164.377 238.107L195.339 225.099C197.726 224.096 198.849 221.347 197.846 218.96L191.32 203.428C190.317 201.04 187.568 199.918 185.181 200.921Z" fill="white"/>
<path opacity="0.4" d="M206.906 262.319L176.57 275.064C175.675 275.44 175.254 276.471 175.63 277.366L177.933 282.847C178.309 283.742 179.34 284.163 180.235 283.787L210.571 271.041C211.466 270.665 211.887 269.634 211.51 268.739L209.208 263.259C208.832 262.363 207.801 261.942 206.906 262.319Z" fill="white"/>
<path opacity="0.4" d="M246.375 245.741L216.039 258.486C215.144 258.862 214.723 259.893 215.099 260.788L217.402 266.269C217.778 267.164 218.808 267.585 219.704 267.209L250.039 254.463C250.935 254.087 251.355 253.056 250.979 252.161L248.677 246.681C248.3 245.785 247.27 245.364 246.375 245.741Z" fill="white"/>
<path opacity="0.4" d="M285.833 229.163L255.498 241.908C254.603 242.284 254.182 243.315 254.558 244.21L256.861 249.691C257.237 250.586 258.267 251.007 259.163 250.631L289.498 237.885C290.393 237.509 290.814 236.478 290.438 235.583L288.136 230.103C287.759 229.207 286.729 228.786 285.833 229.163Z" fill="white"/>
<path opacity="0.4" d="M325.301 212.584L294.966 225.33C294.07 225.706 293.65 226.737 294.026 227.632L296.328 233.112C296.705 234.008 297.735 234.428 298.631 234.052L328.966 221.306C329.861 220.93 330.282 219.9 329.906 219.004L327.603 213.524C327.227 212.629 326.197 212.208 325.301 212.584Z" fill="white"/>
<path d="M104.537 329.345L93.1406 320.721L95.9408 315.716L108.053 325.112L104.537 329.345Z" fill="#C50B44"/>
<path d="M134.102 181.336L132.334 184.201C132.194 184.415 132.455 184.685 132.836 184.713L167.908 187.745C168.206 187.745 168.467 187.643 168.504 187.457L169.062 184.489C169.108 184.285 168.857 184.089 168.532 184.061L134.669 181.131C134.565 181.114 134.458 181.124 134.359 181.16C134.26 181.196 134.171 181.256 134.102 181.336Z" fill="#C50B44"/>
<path opacity="0.5" d="M134.102 181.336L132.334 184.201C132.194 184.415 132.455 184.685 132.836 184.713L167.908 187.745C168.206 187.745 168.467 187.643 168.504 187.457L169.062 184.489C169.108 184.285 168.857 184.089 168.532 184.061L134.669 181.131C134.565 181.114 134.458 181.124 134.359 181.16C134.26 181.196 134.171 181.256 134.102 181.336Z" fill="black"/>
<path d="M138.334 185.512L137.403 185.438C137.227 185.438 137.096 185.317 137.115 185.205L137.878 181.354C137.878 181.233 138.064 181.158 138.25 181.177L139.18 181.251C139.366 181.251 139.497 181.372 139.469 181.484L138.706 185.335C138.669 185.447 138.501 185.531 138.334 185.512Z" fill="#C50B44"/>
<path d="M165.312 187.847L164.382 187.773C164.205 187.773 164.075 187.652 164.094 187.54L164.856 183.689C164.89 183.622 164.945 183.568 165.012 183.536C165.079 183.504 165.156 183.496 165.229 183.512L166.159 183.586C166.345 183.586 166.475 183.707 166.447 183.819L165.684 187.67C165.675 187.801 165.508 187.866 165.312 187.847Z" fill="#C50B44"/>
<path d="M151.823 186.685L150.893 186.601C150.707 186.601 150.576 186.48 150.604 186.368L151.367 182.517C151.367 182.405 151.553 182.322 151.73 182.34L152.66 182.424C152.837 182.424 152.967 182.545 152.949 182.657L152.186 186.508C152.167 186.62 152.009 186.694 151.823 186.685Z" fill="#C50B44"/>
<path d="M99.4854 337.867C99.3807 337.885 99.2737 337.885 99.1691 337.867C98.1551 337.662 97.3085 335.941 96.862 334.936C96.8444 334.91 96.835 334.879 96.835 334.848C96.835 334.816 96.8444 334.785 96.862 334.759C96.8861 334.741 96.9155 334.731 96.9457 334.731C96.9759 334.731 97.0053 334.741 97.0294 334.759C97.3457 334.871 100.118 335.941 100.332 336.955C100.358 337.065 100.352 337.18 100.316 337.286C100.28 337.393 100.214 337.488 100.127 337.56C99.9514 337.727 99.7265 337.835 99.4854 337.867ZM97.3178 335.15C97.9504 336.536 98.6574 337.42 99.2342 337.532C99.3645 337.551 99.4976 337.538 99.6212 337.492C99.7448 337.447 99.8549 337.371 99.9412 337.271C99.9877 337.236 100.023 337.189 100.043 337.134C100.063 337.08 100.066 337.021 100.053 336.964C99.9226 336.341 98.276 335.541 97.3178 335.15Z" fill="#C50B44"/>
<path d="M99.5693 335.28C98.685 335.389 97.7873 335.294 96.9459 335.001C96.9202 334.989 96.898 334.971 96.8817 334.948C96.8653 334.925 96.8554 334.898 96.8528 334.87C96.8492 334.842 96.8534 334.813 96.8648 334.787C96.8763 334.761 96.8947 334.738 96.918 334.722C97.0017 334.666 98.9181 333.27 100.072 333.531C100.214 333.558 100.349 333.616 100.466 333.701C100.584 333.787 100.681 333.897 100.751 334.024C100.843 334.14 100.893 334.285 100.893 334.433C100.893 334.582 100.843 334.726 100.751 334.842C100.42 335.121 100.002 335.276 99.5693 335.28ZM97.4017 334.787C98.332 335.056 100.072 335.075 100.5 334.601C100.574 334.526 100.639 334.405 100.5 334.163C100.454 334.077 100.389 334.002 100.31 333.944C100.231 333.886 100.14 333.846 100.044 333.828C99.2623 333.67 97.9227 334.442 97.4017 334.787Z" fill="#C50B44"/>
<path d="M155.479 354.09C154.577 354.067 153.68 353.955 152.8 353.755C152.77 353.742 152.744 353.721 152.727 353.694C152.709 353.666 152.699 353.634 152.699 353.602C152.699 353.569 152.709 353.537 152.727 353.51C152.744 353.483 152.77 353.461 152.8 353.448C153.209 353.253 156.763 351.588 157.656 352.22C157.739 352.273 157.805 352.348 157.846 352.437C157.887 352.526 157.902 352.626 157.888 352.723C157.886 352.905 157.841 353.084 157.757 353.246C157.673 353.407 157.553 353.547 157.405 353.653C156.826 354.001 156.151 354.154 155.479 354.09ZM153.358 353.532C154.418 353.727 156.372 353.988 157.172 353.383C157.276 353.302 157.361 353.199 157.422 353.082C157.483 352.965 157.518 352.836 157.526 352.704C157.526 352.574 157.526 352.518 157.442 352.49C156.94 352.146 154.837 352.881 153.358 353.532Z" fill="#C50B44"/>
<path d="M152.837 353.756C152.804 353.769 152.767 353.769 152.735 353.756C152.71 353.738 152.692 353.713 152.682 353.685C152.672 353.657 152.671 353.626 152.679 353.598C152.679 353.439 153.516 349.932 155.47 350.155C155.953 350.221 156.084 350.453 156.112 350.649C156.233 351.579 153.991 353.346 152.911 353.784L152.837 353.756ZM155.274 350.435C154.037 350.435 153.321 352.481 153.079 353.3C154.242 352.686 155.87 351.225 155.767 350.658C155.767 350.611 155.767 350.481 155.405 350.444L155.274 350.435Z" fill="#C50B44"/>
<path d="M138.139 146.022L137.646 146.719L137.106 147.51C136.743 148.05 136.38 148.599 136.036 149.166C135.329 150.283 134.687 151.445 134.036 152.608C132.75 154.947 131.619 157.368 130.65 159.855C129.673 162.327 128.856 164.86 128.203 167.437L127.766 169.298C127.766 169.242 127.71 169.437 127.813 169.791C128.133 170.785 128.6 171.726 129.199 172.582C130.701 174.742 132.388 176.768 134.241 178.638C136.101 180.61 138.167 182.517 140.223 184.415C142.279 186.313 144.437 188.136 146.595 189.931C148.753 191.727 150.958 193.541 153.107 195.29L150.781 198.723C145.798 195.767 140.987 192.531 136.371 189.029C134.045 187.28 131.766 185.438 129.561 183.447C127.25 181.421 125.14 179.175 123.263 176.74C122.138 175.31 121.258 173.704 120.659 171.986C120.251 170.791 120.115 169.52 120.259 168.265V168.005V167.865L120.305 167.586L120.398 167.018L120.593 165.893C121.141 162.896 121.912 159.945 122.901 157.064C123.923 154.198 125.132 151.401 126.519 148.692C127.217 147.333 127.98 146.022 128.799 144.729C129.199 144.077 129.617 143.436 130.055 142.794L130.743 141.863C130.985 141.538 131.189 141.249 131.515 140.849L138.139 146.022Z" fill="#FFC3BD"/>
<path d="M137.311 132.914C130.929 134.588 124.771 150.059 124.771 150.059L133.031 157.613C133.031 157.613 146.009 145.78 145.572 140.44C145.209 135.9 142.437 131.556 137.311 132.914Z" fill="#C50B44"/>
<path opacity="0.2" d="M147.181 131.984C146.012 132.222 144.82 132.331 143.627 132.309C143.376 136.905 146.325 141.342 153.572 147.296C155.311 141.873 159.154 140.7 159.154 140.7L147.181 131.984Z" fill="black"/>
<path opacity="0.2" d="M162.363 133.444C162.363 133.444 163.21 133.565 165.229 134.03C166.578 136.105 168.327 142.496 164.354 147.054C162.81 141.472 159.126 140.765 159.126 140.765L162.363 133.444Z" fill="black"/>
<path d="M147.181 131.984C147.181 131.984 145.32 131.984 143.05 131.984C141.701 134.058 146.343 139.807 153.581 145.761C155.321 140.338 159.163 140.663 159.163 140.663L147.181 131.984Z" fill="white"/>
<path d="M162.363 133.444C162.363 133.444 163.21 133.565 165.229 134.03C166.578 136.105 169.489 141.724 165.517 146.245C163.973 140.663 159.126 140.738 159.126 140.738L162.363 133.444Z" fill="white"/>
<path d="M150.167 115.285C150.706 120.253 150.883 129.24 147.181 132.254C147.181 132.254 149.106 137.835 159.126 140.738C165.154 137.259 162.363 133.565 162.363 133.565C157.032 131.798 157.525 127.77 158.8 124.048L150.167 115.285Z" fill="#FFC3BD"/>
<path opacity="0.2" d="M153.683 118.866L158.8 124.048C158.487 124.909 158.25 125.797 158.093 126.7C156.037 126.225 153.06 124.085 153.032 121.89C153.07 120.852 153.291 119.828 153.683 118.866Z" fill="black"/>
<path d="M161.48 95.4323C163.108 93.6369 166.336 95.9254 167.527 100.326C169.313 106.838 164.55 107.303 162.057 104.047C159.564 100.791 160.122 96.9301 161.48 95.4323Z" fill="#263238"/>
<path d="M166.521 106.865C168.155 107.431 169.699 108.226 171.108 109.228C170.298 107.256 169.573 106.056 166.521 106.865Z" fill="#263238"/>
<path d="M167.461 107.173C168.783 106.909 170.136 106.834 171.48 106.949C170.159 105.935 169.201 105.433 167.461 107.173Z" fill="#263238"/>
<path d="M145.776 107.526C147.85 115.462 148.567 118.867 153.423 122.188C160.744 127.193 170.038 122.913 170.382 114.513C170.689 106.959 167.247 95.2559 158.753 93.6C156.882 93.2201 154.944 93.3267 153.125 93.9097C151.306 94.4926 149.668 95.5325 148.366 96.9298C147.063 98.327 146.142 100.035 145.688 101.89C145.235 103.746 145.265 105.686 145.776 107.526Z" fill="#FFC3BD"/>
<path d="M149.609 97.0603L147.311 99.7302C146.621 100.519 145.649 101.004 144.604 101.081C143.559 101.158 142.526 100.819 141.729 100.14C140.939 99.4514 140.452 98.4795 140.373 97.4346C140.295 96.3897 140.632 95.3561 141.31 94.5578L143.608 91.8971C144.298 91.1091 145.269 90.6236 146.313 90.5452C147.358 90.4669 148.391 90.8021 149.19 91.4785C149.978 92.168 150.464 93.1395 150.542 94.1837C150.62 95.2279 150.285 96.261 149.609 97.0603Z" fill="white"/>
<path d="M151.73 100.037L148.94 101.433C147.794 101.994 146.473 102.079 145.265 101.669C144.057 101.26 143.061 100.389 142.493 99.2467C141.931 98.0998 141.846 96.7775 142.256 95.5681C142.665 94.3587 143.536 93.3602 144.679 92.7904L147.47 91.395C148.618 90.8342 149.941 90.7504 151.151 91.1617C152.36 91.573 153.358 92.4461 153.926 93.5905C154.486 94.7371 154.57 96.0589 154.159 97.267C153.747 98.4751 152.874 99.4711 151.73 100.037Z" fill="#C50B44"/>
<path d="M148.158 113.462C148.158 113.462 153.889 112.15 151.451 103.768C151.36 103.445 151.344 103.106 151.405 102.777C151.465 102.447 151.6 102.135 151.8 101.866C151.999 101.597 152.257 101.376 152.555 101.222C152.853 101.068 153.182 100.984 153.517 100.977C159.973 100.8 166.01 99.4514 165.155 95.7116C164.085 90.9858 148 87.339 145.079 96.8001C139.376 98.1304 139.162 109.368 148.158 113.462Z" fill="#263238"/>
<path d="M148.186 111.806C149.819 112.371 151.363 113.167 152.772 114.169C151.963 112.215 151.237 111.015 148.186 111.806Z" fill="#263238"/>
<path d="M149.125 112.131C150.447 111.868 151.8 111.793 153.144 111.908C151.832 110.912 150.874 110.401 149.125 112.131Z" fill="#263238"/>
<path d="M144.474 113.759C145.217 115.16 146.485 116.211 148 116.68C150.019 117.285 151.061 115.499 150.54 113.573C150.065 111.843 148.446 109.452 146.409 109.684C145.966 109.746 145.545 109.916 145.184 110.181C144.823 110.445 144.534 110.795 144.342 111.199C144.15 111.603 144.062 112.049 144.085 112.496C144.108 112.943 144.242 113.377 144.474 113.759Z" fill="#FFC3BD"/>
<path d="M159.229 107.256C159.359 107.908 159.815 108.373 160.233 108.289C160.652 108.205 160.903 107.601 160.782 106.949C160.661 106.298 160.196 105.833 159.768 105.917C159.34 106 159.098 106.596 159.229 107.256Z" fill="#263238"/>
<path d="M166.624 105.796C166.754 106.456 167.201 106.912 167.629 106.829C168.057 106.745 168.299 106.149 168.168 105.498C168.038 104.847 167.592 104.382 167.164 104.466C166.736 104.549 166.494 105.145 166.624 105.796Z" fill="#263238"/>
<path d="M166.987 104.54L168.466 103.777C168.466 103.777 167.899 105.163 166.987 104.54Z" fill="#263238"/>
<path d="M164.084 107.433C164.96 108.812 166.021 110.065 167.238 111.154C166.954 111.465 166.605 111.71 166.216 111.871C165.827 112.031 165.407 112.105 164.986 112.085L164.084 107.433Z" fill="#ED847E"/>
<path d="M161.963 115.164C160.587 115.181 159.256 114.672 158.242 113.74C158.212 113.709 158.195 113.668 158.195 113.624C158.195 113.581 158.212 113.539 158.242 113.508C158.273 113.478 158.315 113.461 158.359 113.461C158.402 113.461 158.444 113.478 158.475 113.508C159.101 114.06 159.849 114.456 160.657 114.665C161.465 114.873 162.311 114.888 163.126 114.708C163.168 114.701 163.211 114.71 163.246 114.735C163.281 114.759 163.305 114.796 163.312 114.838C163.32 114.88 163.31 114.923 163.286 114.958C163.261 114.993 163.224 115.017 163.182 115.024C162.782 115.114 162.373 115.161 161.963 115.164Z" fill="#263238"/>
<path d="M154.791 104.717C154.733 104.714 154.675 104.698 154.624 104.67C154.55 104.626 154.496 104.554 154.476 104.47C154.455 104.386 154.468 104.298 154.512 104.224C154.82 103.701 155.248 103.259 155.761 102.936C156.274 102.612 156.857 102.416 157.461 102.363C157.547 102.363 157.629 102.396 157.692 102.454C157.754 102.513 157.791 102.594 157.796 102.679C157.797 102.722 157.79 102.765 157.775 102.805C157.76 102.845 157.737 102.881 157.707 102.912C157.678 102.943 157.643 102.968 157.604 102.986C157.565 103.003 157.523 103.013 157.48 103.014C156.981 103.069 156.502 103.242 156.083 103.519C155.664 103.795 155.317 104.168 155.07 104.605C155.036 104.645 154.993 104.676 154.944 104.695C154.896 104.714 154.843 104.722 154.791 104.717Z" fill="#263238"/>
<path d="M168.68 102.093C168.628 102.107 168.574 102.107 168.522 102.093C168.088 101.837 167.6 101.687 167.098 101.655C166.595 101.623 166.092 101.709 165.629 101.907C165.546 101.949 165.45 101.957 165.362 101.928C165.274 101.899 165.201 101.836 165.159 101.754C165.117 101.671 165.11 101.575 165.138 101.487C165.167 101.399 165.23 101.326 165.312 101.284C165.87 101.032 166.479 100.917 167.09 100.951C167.701 100.986 168.294 101.167 168.82 101.479C168.857 101.5 168.889 101.527 168.916 101.56C168.942 101.594 168.961 101.632 168.972 101.672C168.984 101.713 168.987 101.756 168.981 101.798C168.976 101.84 168.962 101.88 168.941 101.917C168.917 101.967 168.881 102.01 168.835 102.041C168.789 102.072 168.735 102.09 168.68 102.093Z" fill="#263238"/>
<path d="M150.065 193.903L157.507 194.424L154.149 202.378C154.149 202.378 147.935 200.415 147.684 195.866L150.065 193.903Z" fill="#FFC3BD"/>
<path d="M160.363 198.927L156.763 204.36L154.158 202.379L157.535 194.425L160.363 198.927Z" fill="#FFC3BD"/>
<path d="M159.591 105.991L161.07 105.228C161.07 105.228 160.503 106.615 159.591 105.991Z" fill="#263238"/>
</g>
<defs>
<clipPath id="clip0_7_816">
<rect width="457" height="396" fill="white"/>
</clipPath>
</defs>
</svg>
