<svg width="457" height="396" viewBox="0 0 457 396" fill="none" xmlns="http://www.w3.org/2000/svg">
<g clip-path="url(#clip0_7_818)">
<path d="M469.211 334.097H-12V334.338H469.211V334.097Z" fill="#E698B0"/>
<path d="M118.062 349.583H86.1865V349.823H118.062V349.583Z" fill="#E698B0"/>
<path d="M194.622 342.297H152.709V342.537H194.622V342.297Z" fill="#E698B0"/>
<path d="M85.2235 340.651H38.4883V340.892H85.2235V340.651Z" fill="#E698B0"/>
<path d="M259.307 343.904H226.306V344.145H259.307V343.904Z" fill="#E698B0"/>
<path d="M420.993 343.904H413.833V344.145H420.993V343.904Z" fill="#E698B0"/>
<path d="M314.617 343.904H267.872V344.145H314.617V343.904Z" fill="#E698B0"/>
<path d="M392.506 347.966H302.347V348.206H392.506V347.966Z" fill="#E698B0"/>
<path d="M216.094 291.173H30.2602C28.8044 291.17 27.4091 290.59 26.3806 289.56C25.3521 288.53 24.7744 287.133 24.7744 285.678V24.4473C24.7871 22.9999 25.3703 21.6158 26.3975 20.5959C27.4246 19.576 28.8127 19.0025 30.2602 19H216.094C217.552 19 218.95 19.579 219.98 20.6096C221.011 21.6402 221.59 23.038 221.59 24.4954V285.678C221.59 287.135 221.011 288.533 219.98 289.563C218.95 290.594 217.552 291.173 216.094 291.173ZM30.2602 19.1925C28.8682 19.195 27.5341 19.7498 26.5507 20.735C25.5673 21.7202 25.015 23.0553 25.015 24.4473V285.678C25.015 287.07 25.5673 288.405 26.5507 289.39C27.5341 290.375 28.8682 290.93 30.2602 290.932H216.094C217.487 290.93 218.822 290.375 219.807 289.39C220.792 288.406 221.347 287.07 221.349 285.678V24.4473C221.347 23.0544 220.792 21.7193 219.807 20.7344C218.822 19.7495 217.487 19.195 216.094 19.1925H30.2602Z" fill="#E698B0"/>
<path d="M424.276 291.173H238.432C236.975 291.17 235.579 290.591 234.549 289.561C233.519 288.531 232.939 287.134 232.937 285.678V24.4473C232.952 22.999 233.537 21.615 234.566 20.5953C235.594 19.5756 236.984 19.0025 238.432 19H424.276C425.722 19.005 427.107 19.5796 428.132 20.5993C429.157 21.6189 429.739 23.0015 429.752 24.4473V285.678C429.752 287.132 429.176 288.527 428.149 289.557C427.123 290.587 425.73 291.168 424.276 291.173ZM238.432 19.1925C237.039 19.195 235.704 19.7495 234.719 20.7344C233.734 21.7193 233.18 23.0544 233.177 24.4473V285.678C233.18 287.07 233.734 288.406 234.719 289.39C235.704 290.375 237.039 290.93 238.432 290.932H424.276C425.669 290.93 427.004 290.375 427.989 289.39C428.973 288.406 429.528 287.07 429.53 285.678V24.4473C429.528 23.0544 428.973 21.7193 427.989 20.7344C427.004 19.7495 425.669 19.195 424.276 19.1925H238.432Z" fill="#E698B0"/>
<path d="M250.163 41.1357H56.7646V179.975H250.163V41.1357Z" fill="#FAFAFA"/>
<path d="M108.62 179.975L141.785 41.1357H178.704L145.539 179.975H108.62Z" fill="white"/>
<path d="M180.725 179.975L213.89 41.1357H227.354L194.189 179.975H180.725Z" fill="white"/>
<path d="M95.8779 179.975L129.053 41.1357H134.105L100.931 179.975H95.8779Z" fill="white"/>
<path d="M259.403 36.3236H47.5353C47.4228 36.3236 47.3114 36.3458 47.2075 36.3888C47.1036 36.4319 47.0091 36.4949 46.9296 36.5745C46.8501 36.654 46.787 36.7484 46.7439 36.8524C46.7009 36.9563 46.6787 37.0677 46.6787 37.1802C46.6787 37.4073 46.769 37.6252 46.9296 37.7858C47.0902 37.9465 47.3081 38.0367 47.5353 38.0367H259.403C259.63 38.0367 259.848 37.9465 260.009 37.7858C260.169 37.6252 260.259 37.4073 260.259 37.1802C260.259 37.0677 260.237 36.9563 260.194 36.8524C260.151 36.7484 260.088 36.654 260.009 36.5745C259.929 36.4949 259.835 36.4319 259.731 36.3888C259.627 36.3458 259.515 36.3236 259.403 36.3236Z" fill="#F75E5E"/>
<path d="M150.197 180.264H158.445L158.445 40.8278H150.197L150.197 180.264Z" fill="#FFD651"/>
<path d="M158.435 180.264H159.359L159.359 40.8278H158.435L158.435 180.264Z" fill="#F75E5E"/>
<path d="M55.418 109.41V111.7L251.492 111.7V109.41L55.418 109.41Z" fill="#FFD651"/>
<path d="M251.502 179.022V39.7979H55.4277V179.022V181.312H251.502V179.022ZM57.7183 179.022V42.098H249.24V179.022H57.7183Z" fill="#FFD651"/>
<path d="M251.501 181.312H252.646L252.646 39.7978H251.501L251.501 181.312Z" fill="#F75E5E"/>
<path opacity="0.5" d="M217.384 34.2545V264.851H265.726L256.862 34.2545H217.384Z" fill="#E698B0"/>
<path opacity="0.5" d="M183.834 34.2545V264.851H232.176L223.313 34.2545H183.834Z" fill="#E698B0"/>
<path opacity="0.5" d="M72.0865 34.2639V264.851H42.3477L47.795 34.2639H72.0865Z" fill="#E698B0"/>
<path opacity="0.5" d="M92.7213 34.2639V264.851H62.9824L68.4394 34.2639H92.7213Z" fill="#E698B0"/>
<path d="M108.687 334.097H143.171L143.171 217.702H108.687L108.687 334.097Z" fill="#E698B0"/>
<path d="M114.433 334.097H108.697V323.626H120.448L114.433 334.097Z" fill="#FFD651"/>
<path d="M249.018 334.097H283.502V217.702H249.018V334.097Z" fill="#E698B0"/>
<path d="M108.698 330.074H254.033V217.702H108.698V330.074Z" fill="#FFD651"/>
<path d="M113.153 253.494L249.586 253.494V222.677L113.153 222.677V253.494Z" fill="#E698B0"/>
<path d="M174.921 232.263H187.808C193.409 232.263 198.76 228.462 202.61 221.744H160.119C163.969 228.462 169.32 232.263 174.921 232.263Z" fill="#FFD651"/>
<path d="M248.296 334.097H254.032V323.626H242.281L248.296 334.097Z" fill="#FFD651"/>
<path d="M113.153 289.296H249.586V258.48H113.153V289.296Z" fill="#E698B0"/>
<path d="M174.921 268.056H187.808C193.409 268.056 198.76 264.254 202.61 257.546H160.119C163.969 264.254 169.32 268.056 174.921 268.056Z" fill="#FFD651"/>
<path d="M113.153 325.098H249.586V294.281H113.153V325.098Z" fill="#E698B0"/>
<path d="M174.921 303.877H187.808C193.409 303.877 198.76 300.027 202.61 293.358H160.119C163.969 300.027 169.32 303.877 174.921 303.877Z" fill="#FFD651"/>
<path d="M199.964 196.538C197.74 173.497 196.191 136.107 197.394 123.596C197.419 123.382 197.487 123.175 197.595 122.988C197.702 122.801 197.847 122.638 198.019 122.508C198.252 122.339 198.528 122.239 198.815 122.218C199.102 122.197 199.389 122.258 199.643 122.392C199.898 122.526 200.11 122.729 200.255 122.978C200.4 123.226 200.472 123.51 200.464 123.798C200.252 129.996 200.012 145.491 201.33 172.208C201.985 185.508 202.937 194.623 202.293 196.538H199.964Z" fill="white"/>
<path d="M193.593 147.002C188.511 140.468 178.002 135.299 167.232 134.491C162.998 134.173 179.984 142.614 186.981 151.035C192.409 157.57 198.482 168.359 200.513 174.22C199.329 162.074 198.675 153.518 193.593 147.002Z" fill="white"/>
<path d="M204.228 145.568C209.492 138.244 221.628 132.614 234.765 131.979C239.924 131.728 220.329 140.92 212.976 150.332C207.288 157.656 201.427 169.773 199.858 176.423C199.473 162.632 198.973 152.892 204.228 145.568Z" fill="white"/>
<path d="M193.958 125.434C189.945 119.977 181.09 115.502 171.697 114.578C168.011 114.222 182.332 121.527 187.885 128.562C192.206 134.029 196.797 142.998 198.173 147.811C197.942 137.888 197.952 130.891 193.958 125.434Z" fill="white"/>
<path d="M202.024 126.551C206.48 120.353 216.758 115.579 227.874 115.002C232.244 114.79 215.632 122.576 209.434 130.554C204.622 136.743 199.675 147.012 198.318 152.69C197.991 140.997 197.568 132.758 202.024 126.551Z" fill="white"/>
<path d="M196.633 171.592C193.746 167.473 187.221 164.018 180.272 163.19C177.539 162.872 188.068 168.512 192.091 173.825C195.284 178.221 197.765 183.093 199.444 188.261C199.415 180.899 199.53 175.711 196.633 171.592Z" fill="white"/>
<path d="M201.899 169.273C204.42 165.192 210.647 161.746 217.586 160.919C220.319 160.592 210.253 166.203 206.72 171.505C203.907 175.892 201.869 180.73 200.696 185.807C200.012 178.502 199.387 173.363 201.899 169.273Z" fill="white"/>
<path d="M200.907 217.702C195.363 217.702 190.782 216.547 190.464 211.013L189.502 195.008H212.244L211.282 211.013C211.031 216.547 206.469 217.702 200.907 217.702Z" fill="#E698B0"/>
<path d="M212.138 198.646H189.666C189.226 198.644 188.802 198.48 188.476 198.185C188.149 197.89 187.942 197.486 187.895 197.048L187.548 193.969C187.521 193.719 187.547 193.466 187.625 193.227C187.702 192.987 187.828 192.767 187.996 192.58C188.164 192.393 188.37 192.243 188.599 192.141C188.829 192.039 189.078 191.986 189.329 191.986H212.485C212.735 191.987 212.983 192.041 213.211 192.144C213.44 192.247 213.644 192.397 213.811 192.584C213.978 192.77 214.104 192.99 214.18 193.229C214.257 193.467 214.283 193.719 214.256 193.969L213.919 197.048C213.871 197.487 213.663 197.893 213.335 198.188C213.006 198.483 212.58 198.646 212.138 198.646Z" fill="#FFD651"/>
<path d="M228.606 377.56C331.665 377.56 415.21 372.682 415.21 366.665C415.21 360.648 331.665 355.771 228.606 355.771C125.547 355.771 42.002 360.648 42.002 366.665C42.002 372.682 125.547 377.56 228.606 377.56Z" fill="#F5F5F5"/>
<path d="M389.273 65.7737H274.956V366.665H389.273V65.7737Z" fill="#C50B44"/>
<path opacity="0.8" d="M389.273 65.7737H274.956V366.665H389.273V65.7737Z" fill="white"/>
<g opacity="0.4">
<path d="M391.996 104.79C387.819 105.195 386 105.811 384.296 103.395C382.593 100.979 376.28 100.459 374.172 103.106C372.064 105.753 371.285 107.495 366.578 106.802C361.872 106.109 360.284 107.35 359.553 109.304C358.821 111.258 348.004 111.96 351.103 114.116L391.255 108.217C391.255 108.217 396.173 104.386 391.996 104.79Z" fill="white"/>
<path d="M355.896 83.7901C354.606 82.4331 350.805 82.4813 347.369 84.1847C343.933 85.8882 346.407 78.0156 340.026 80.2196C330.873 83.3667 333.289 88.3809 329.497 88.4483C325.705 88.5156 314.57 91.4799 320.383 93.2604L354.068 88.3039C354.068 88.3039 357.195 85.1375 355.896 83.7901Z" fill="white"/>
<path d="M311.721 136.637C310.806 135.674 308.112 135.674 305.667 136.925C303.223 138.177 305.003 132.546 300.46 134.105C293.964 136.338 295.648 139.88 292.992 139.947C290.336 140.015 282.405 142.094 286.525 143.393L310.412 139.87C310.412 139.87 312.645 137.599 311.721 136.637Z" fill="white"/>
</g>
<path opacity="0.07" d="M375.933 306.764V318.121C375.933 318.578 375.752 319.018 375.429 319.342C375.107 319.667 374.668 319.85 374.211 319.853H371.102C370.875 319.852 370.65 319.895 370.44 319.981C370.23 320.067 370.039 320.194 369.878 320.354C369.717 320.514 369.589 320.705 369.502 320.914C369.415 321.124 369.37 321.349 369.37 321.576V323.751C369.37 324.21 369.187 324.651 368.862 324.976C368.537 325.301 368.097 325.483 367.637 325.483H356.088C355.63 325.481 355.19 325.297 354.866 324.973C354.542 324.649 354.358 324.209 354.356 323.751V306.764C354.356 306.307 354.174 305.869 353.851 305.546C353.528 305.223 353.09 305.041 352.633 305.041H350.833C350.375 305.039 349.936 304.855 349.611 304.531C349.287 304.207 349.104 303.768 349.101 303.309V283.762C349.101 283.305 348.92 282.867 348.597 282.544C348.273 282.221 347.835 282.039 347.378 282.039H344C343.542 282.039 343.103 282.221 342.779 282.543C342.454 282.866 342.27 283.304 342.268 283.762V295.898C342.246 296.265 342.079 296.608 341.806 296.853C341.532 297.098 341.172 297.226 340.805 297.207C340.439 297.226 340.081 297.098 339.808 296.853C339.536 296.607 339.372 296.264 339.352 295.898V259.769C339.352 259.309 339.169 258.869 338.844 258.544C338.519 258.219 338.079 258.037 337.619 258.037H334.212C333.985 258.037 333.761 258.081 333.551 258.169C333.341 258.256 333.151 258.384 332.991 258.545C332.831 258.706 332.704 258.897 332.618 259.107C332.532 259.317 332.488 259.542 332.49 259.769V295.475C332.49 295.934 332.307 296.375 331.982 296.7C331.657 297.025 331.217 297.207 330.757 297.207H330.344C330.116 297.207 329.891 297.162 329.681 297.075C329.47 296.988 329.279 296.861 329.119 296.7C328.958 296.539 328.83 296.348 328.743 296.138C328.656 295.928 328.611 295.702 328.611 295.475V277.016C328.614 276.745 328.551 276.477 328.428 276.236L318.159 255.679C318.038 255.44 317.975 255.176 317.976 254.909V228.971C317.976 228.744 317.932 228.52 317.844 228.31C317.757 228.1 317.629 227.91 317.468 227.75C317.307 227.59 317.116 227.463 316.906 227.377C316.696 227.291 316.471 227.247 316.244 227.249H306.244C305.787 227.249 305.347 227.43 305.023 227.753C304.698 228.075 304.515 228.514 304.512 228.971V295.475C304.513 295.702 304.47 295.927 304.384 296.137C304.298 296.347 304.171 296.538 304.011 296.699C303.851 296.86 303.661 296.988 303.451 297.075C303.241 297.162 303.016 297.207 302.789 297.207H302.087C301.86 297.207 301.635 297.162 301.425 297.075C301.216 296.988 301.025 296.86 300.865 296.699C300.705 296.538 300.578 296.347 300.492 296.137C300.406 295.927 300.363 295.702 300.364 295.475V270.192C300.362 269.733 300.178 269.294 299.854 268.97C299.53 268.645 299.09 268.462 298.632 268.46H288.632C288.173 268.462 287.734 268.645 287.41 268.97C287.086 269.294 286.902 269.733 286.9 270.192V295.484C286.901 295.711 286.857 295.937 286.771 296.147C286.685 296.357 286.559 296.548 286.399 296.709C286.239 296.87 286.048 296.998 285.839 297.085C285.629 297.172 285.404 297.217 285.177 297.217H283.82C283.361 297.217 282.92 297.399 282.595 297.724C282.27 298.049 282.088 298.49 282.088 298.949V303.299C282.088 303.757 281.906 304.196 281.584 304.521C281.261 304.845 280.823 305.029 280.365 305.032H279.884C279.657 305.03 279.432 305.074 279.221 305.16C279.011 305.246 278.82 305.373 278.659 305.533C278.498 305.693 278.371 305.883 278.283 306.093C278.196 306.303 278.151 306.527 278.151 306.754V341.334C278.151 341.561 278.196 341.786 278.283 341.996C278.371 342.205 278.498 342.396 278.659 342.556C278.82 342.716 279.011 342.843 279.221 342.929C279.432 343.015 279.657 343.058 279.884 343.057H381.073C381.53 343.057 381.968 342.875 382.291 342.552C382.614 342.229 382.796 341.791 382.796 341.334V306.764C382.796 306.307 382.614 305.869 382.291 305.546C381.968 305.223 381.53 305.041 381.073 305.041H377.666C377.208 305.041 376.769 305.222 376.444 305.545C376.12 305.868 375.936 306.306 375.933 306.764Z" fill="#C50B44"/>
<path opacity="0.07" d="M388.945 346.233H274.956V356.319H388.945V346.233Z" fill="#C50B44"/>
<path d="M400.224 57.4197V366.665H387.694V71.2208H287.246V366.665H274.725V57.4197H400.224Z" fill="#263238"/>
<path d="M394.652 57.4197V366.665H382.131V71.2208H281.683V366.665H269.152V57.4197H394.652Z" fill="#C50B44"/>
<path d="M300.787 94.5883C296.485 94.9348 290.874 97.8894 303.424 101.325C315.974 104.761 317.668 101.046 317.668 101.046C317.668 101.046 312.336 93.6548 300.787 94.5883Z" fill="#C50B44"/>
<path opacity="0.4" d="M300.787 94.5883C296.485 94.9348 290.874 97.8894 303.424 101.325C315.974 104.761 317.668 101.046 317.668 101.046C317.668 101.046 312.336 93.6548 300.787 94.5883Z" fill="black"/>
<path d="M323.714 126.101C326.545 125.672 328.417 122.535 327.895 119.093C327.374 115.652 324.656 113.21 321.825 113.639C318.994 114.068 317.122 117.205 317.643 120.647C318.165 124.088 320.883 126.53 323.714 126.101Z" fill="#263238"/>
<path d="M307.118 111.336C309.949 110.907 311.821 107.769 311.3 104.328C310.778 100.886 308.061 98.4441 305.23 98.873C302.399 99.302 300.526 102.44 301.048 105.881C301.569 109.322 304.287 111.765 307.118 111.336Z" fill="#263238"/>
<path d="M382.131 298.689V325.445C368.224 314.464 354 302.173 351.045 295.773C340.343 272.521 319.805 211.552 319.805 211.552L352.142 198.328L352.286 198.983C353.133 202.919 357.666 224.458 362.989 257.45C364.413 266.256 365.876 275.89 367.368 286.216C369.928 287.891 375.462 292.655 382.131 298.689Z" fill="#263238"/>
<path opacity="0.2" d="M364.365 266.15C362.68 255.342 361.054 245.592 359.553 237.065L352.161 231.387C354.736 243.446 358.837 255.127 364.365 266.15Z" fill="black"/>
<path d="M382.131 232.349V288.093C380.206 284.878 378.406 281.982 376.828 279.527C373.17 273.83 368.243 265.938 362.988 257.449C348.638 234.303 331.863 206.672 331.863 206.672L352.286 198.973L361.843 195.373C370.129 206.268 375.625 217.605 382.131 232.349Z" fill="#263238"/>
<path d="M309.843 156.684C309.17 157.175 308.659 157.531 308.082 157.916C307.505 158.301 306.956 158.647 306.398 159.003C305.262 159.706 304.126 160.379 302.972 161.034C300.667 162.331 298.296 163.506 295.869 164.556C294.666 165.105 293.424 165.586 292.192 166.087C290.961 166.587 289.7 167.049 288.42 167.405C285.863 168.24 283.26 168.928 280.624 169.465L280.249 169.542C279.546 169.696 278.819 169.703 278.113 169.562C277.407 169.421 276.739 169.136 276.149 168.724C273.626 166.916 271.294 164.856 269.191 162.574C267.206 160.451 265.337 158.225 263.589 155.904C261.876 153.614 260.272 151.278 258.777 148.898C257.266 146.492 255.842 144.086 254.523 141.526C254.184 140.844 254.101 140.064 254.289 139.326C254.477 138.589 254.923 137.943 255.547 137.507C256.17 137.071 256.93 136.874 257.687 136.95C258.444 137.027 259.149 137.374 259.672 137.926L259.74 137.993C261.53 139.918 263.378 141.959 265.225 143.893C267.073 145.828 268.931 147.743 270.827 149.6C272.723 151.458 274.676 153.229 276.601 154.865C278.404 156.427 280.336 157.834 282.376 159.07L277.891 158.329C280.047 157.627 282.183 156.886 284.301 156C286.418 155.115 288.516 154.181 290.585 153.113C292.654 152.045 294.695 150.996 296.706 149.841C297.669 149.273 298.708 148.686 299.68 148.089L301.124 147.175L302.452 146.328L302.721 146.155C304.113 145.278 305.791 144.975 307.402 145.31C309.012 145.645 310.43 146.592 311.357 147.951C312.283 149.31 312.646 150.976 312.369 152.598C312.093 154.219 311.197 155.67 309.872 156.645L309.843 156.684Z" fill="#B55B52"/>
<path d="M312.192 141.064C304.651 144.244 297.33 147.923 290.277 152.074C292.52 158.551 295.638 166.26 300.672 170.764C305.165 167.9 309.423 164.681 313.404 161.14C322.191 153.575 321.373 137.378 312.192 141.064Z" fill="#C50B44"/>
<path d="M318.37 211.398C320.045 217.172 321.257 223.803 323.875 225.083C326.493 226.363 332.46 217.596 334.722 214.295C340.872 214.757 358.85 212.322 364.355 208.78C369.86 205.238 368.127 200.898 363.719 194.806C351.651 193.593 325.502 206.99 318.37 211.398Z" fill="white"/>
<path d="M337.773 133.644C329.047 135.15 320.497 137.546 312.259 140.795C303.376 144.384 298.785 151.612 300.383 161.063C302.308 172.42 310.97 198.867 319.121 216.884C320.536 219.983 363.171 200.619 365.231 196.355C361.872 184.565 353.133 173.334 349.746 145.174C349.053 139.37 343.461 132.662 337.773 133.644Z" fill="#C50B44"/>
<path d="M329.275 155.933C332.047 154.636 334.929 153.589 337.888 152.805C338.109 152.743 338.345 152.767 338.549 152.873C338.752 152.978 338.909 153.157 338.985 153.373C339.313 154.258 339.89 155.75 340.467 157.069C340.521 157.186 340.549 157.314 340.548 157.444C340.548 157.573 340.52 157.701 340.466 157.819C340.413 157.936 340.334 158.041 340.236 158.126C340.139 158.211 340.024 158.274 339.9 158.31C337.648 158.993 333.971 160.341 331.623 161.361C331.42 161.437 331.198 161.442 330.991 161.375C330.785 161.309 330.608 161.175 330.487 160.995C329.707 159.751 329.141 158.385 328.813 156.953C328.764 156.756 328.783 156.548 328.867 156.363C328.95 156.178 329.094 156.026 329.275 155.933Z" fill="white"/>
<path d="M317.755 152.517C317.89 153.315 317.668 154.018 317.245 154.095C316.821 154.172 316.359 153.585 316.215 152.786C316.071 151.987 316.302 151.285 316.725 151.208C317.148 151.131 317.61 151.718 317.755 152.517Z" fill="white"/>
<path d="M350.515 141.353C352.854 142.719 355 144.096 357.185 145.549C359.37 147.002 361.487 148.436 363.585 150.024C365.683 151.612 367.771 153.133 369.821 154.769C371.871 156.405 373.873 158.08 375.865 159.802L376.212 160.101C376.748 160.564 377.184 161.131 377.493 161.768C377.802 162.405 377.979 163.098 378.012 163.806C378.11 166.722 377.802 169.637 377.097 172.468C376.457 175.083 375.587 177.637 374.499 180.1C373.456 182.472 372.26 184.774 370.919 186.991C369.589 189.206 368.107 191.325 366.482 193.333C366.001 193.912 365.33 194.302 364.589 194.432C363.847 194.563 363.083 194.425 362.434 194.045C361.784 193.665 361.291 193.066 361.041 192.356C360.792 191.645 360.803 190.87 361.073 190.167L361.15 189.993C361.958 187.934 362.815 185.682 363.537 183.516C364.259 181.351 364.942 179.147 365.462 176.972C365.995 174.871 366.384 172.736 366.626 170.581C366.841 168.662 366.824 166.723 366.578 164.807L368.724 168.811C364.692 165.923 360.563 163.142 356.396 160.389L343.884 152.228H343.817C342.384 151.342 341.361 149.923 340.974 148.284C340.587 146.644 340.867 144.918 341.752 143.484C342.638 142.051 344.057 141.028 345.697 140.641C347.336 140.254 349.063 140.534 350.496 141.42L350.515 141.353Z" fill="#B55B52"/>
<path d="M343.721 134.664C350.837 138.694 357.676 143.195 364.191 148.138C361.2 154.137 356.703 159.257 351.141 162.998C351.141 162.998 347.176 162.035 340.16 154.432C332.326 145.915 335.03 129.929 343.721 134.664Z" fill="#C50B44"/>
<path d="M361.872 188.261L356.318 194.613L365.394 199.156C365.394 199.156 369.735 192.765 366.77 189.801L361.872 188.261Z" fill="#B55B52"/>
<path d="M356.771 203.534L360.207 204.584C360.867 204.786 361.579 204.739 362.207 204.452C362.835 204.164 363.336 203.656 363.614 203.024L365.395 199.175L356.319 194.632L354.779 199.791C354.556 200.551 354.639 201.369 355.012 202.069C355.384 202.769 356.016 203.295 356.771 203.534Z" fill="#B55B52"/>
<path d="M317.148 147.406C317.148 147.406 321.778 150.38 322.22 154.278C333.259 146.146 335.021 138.167 332.615 134.654C331.533 134.243 330.338 134.243 329.256 134.654C329.256 134.654 325.868 141.603 317.148 147.406Z" fill="white"/>
<path d="M317.148 147.406C317.148 147.406 313.943 151.141 313.597 155.019C306.532 151.843 309.092 143.557 310.998 141.353C312.21 140.472 313.56 139.799 314.992 139.36C314.992 139.36 312.442 142.546 317.148 147.406Z" fill="white"/>
<path d="M322.826 115.82C323.375 121.257 325.05 130.448 329.034 134.452C329.515 134.933 329.82 135.562 329.901 136.238C329.981 136.913 329.832 137.596 329.477 138.177C327.074 142.392 323.202 145.575 318.601 147.118C313.414 148.85 311.99 146.386 312.057 143.749C312.082 143.08 312.258 142.425 312.571 141.834C312.884 141.242 313.327 140.729 313.866 140.333C318.37 136.935 316.754 132.566 314.473 128.678L322.826 115.82Z" fill="#B55B52"/>
<path opacity="0.2" d="M319.429 121.065L314.482 128.716C315.085 129.692 315.6 130.719 316.022 131.786C318.428 130.679 321.046 126.926 320.517 124.231C320.351 123.118 319.982 122.045 319.429 121.065Z" fill="black"/>
<path d="M324.183 106.801C324.905 115.136 325.752 119.977 322.258 124.905C317.004 132.325 306.388 130.246 303.212 122.335C300.325 115.213 299.661 102.769 307.158 98.1397C308.785 97.1057 310.654 96.5136 312.58 96.4217C314.506 96.3298 316.422 96.7412 318.141 97.6155C319.859 98.4898 321.32 99.7967 322.38 101.407C323.439 103.018 324.061 104.877 324.183 106.801Z" fill="#B55B52"/>
<path d="M309.737 95.5028C305.05 95.9648 302.817 98.7462 304.04 100.132C299.911 100.873 303.664 105.907 308.12 103.837C308.505 105.445 317.369 104.906 317.456 102.49C319.467 107.716 321.989 107.379 321.989 107.379C321.989 107.379 319.371 113.154 323.124 113.904C323.124 117.167 325.482 120.025 327.937 119.535C330.66 118.976 329.794 114.366 329.794 114.366C334.76 112.162 331.421 107.167 331.421 107.167C331.344 101.624 319.814 89.3818 309.737 95.5028Z" fill="#263238"/>
<path d="M303.674 117.321C303.108 117.276 302.563 117.091 302.086 116.784C301.609 116.477 301.215 116.056 300.941 115.559C300.11 114.227 299.639 112.701 299.574 111.132C299.438 109.571 299.713 108.002 300.373 106.58C300.542 106 300.886 105.486 301.358 105.108C301.83 104.73 302.407 104.506 303.01 104.467C303.614 104.428 304.214 104.576 304.731 104.89C305.247 105.205 305.655 105.67 305.897 106.224C306.73 107.553 307.204 109.075 307.273 110.642C307.495 114.183 305.955 117.176 303.828 117.311L303.674 117.321ZM303.164 104.982H303.048C302.553 105.067 302.088 105.279 301.7 105.598C301.312 105.917 301.014 106.332 300.835 106.801C300.254 108.153 300 109.623 300.094 111.091C300.187 112.559 300.626 113.985 301.374 115.252C301.61 115.696 301.958 116.071 302.383 116.339C302.808 116.607 303.297 116.76 303.799 116.782C305.637 116.666 306.956 113.894 306.754 110.67C306.689 109.193 306.245 107.758 305.464 106.503C305.238 106.078 304.909 105.716 304.507 105.45C304.106 105.185 303.644 105.024 303.164 104.982Z" fill="white"/>
<path d="M312.866 116.734C312.248 116.706 311.646 116.536 311.105 116.238C310.564 115.939 310.099 115.519 309.747 115.011C308.787 113.728 308.237 112.185 308.169 110.584C307.938 107.052 309.776 104.04 312.259 103.847C314.742 103.655 316.946 106.446 317.168 109.987C317.318 111.58 316.983 113.18 316.205 114.578C315.906 115.159 315.467 115.657 314.928 116.027C314.389 116.396 313.766 116.626 313.116 116.695L312.866 116.734ZM312.471 104.396H312.336C310.142 104.54 308.487 107.283 308.727 110.555C308.797 112.049 309.306 113.488 310.19 114.694C310.488 115.187 310.915 115.588 311.426 115.855C311.936 116.122 312.51 116.244 313.084 116.207C313.659 116.17 314.213 115.976 314.685 115.647C315.157 115.317 315.53 114.864 315.763 114.338C316.508 113.036 316.843 111.54 316.725 110.045C316.446 106.879 314.588 104.396 312.471 104.396Z" fill="white"/>
<path d="M307.014 110.921C306.962 110.92 306.911 110.904 306.868 110.875C306.825 110.845 306.792 110.803 306.773 110.754C306.754 110.705 306.751 110.651 306.763 110.601C306.775 110.55 306.802 110.504 306.841 110.468C307.082 110.285 307.371 110.174 307.673 110.151C307.975 110.127 308.278 110.19 308.545 110.334C308.606 110.366 308.653 110.422 308.674 110.488C308.696 110.555 308.691 110.627 308.66 110.69C308.629 110.751 308.575 110.797 308.511 110.819C308.446 110.84 308.375 110.835 308.314 110.805C308.138 110.707 307.938 110.66 307.738 110.67C307.537 110.681 307.343 110.747 307.178 110.863C307.132 110.9 307.074 110.921 307.014 110.921Z" fill="white"/>
<path d="M324.424 111.633H324.366C318.765 110.372 316.994 110.67 316.984 110.67C316.917 110.686 316.846 110.673 316.787 110.636C316.728 110.599 316.687 110.541 316.671 110.473C316.656 110.405 316.668 110.334 316.705 110.276C316.742 110.217 316.801 110.176 316.869 110.16C316.946 110.16 318.726 109.795 324.482 111.123C324.515 111.129 324.546 111.143 324.574 111.162C324.602 111.182 324.626 111.206 324.644 111.235C324.662 111.264 324.674 111.296 324.679 111.33C324.684 111.363 324.683 111.398 324.674 111.431C324.661 111.488 324.629 111.538 324.584 111.575C324.539 111.612 324.482 111.632 324.424 111.633Z" fill="white"/>
<path d="M328.322 114.395C327.601 116.268 326.212 117.807 324.424 118.717C322.153 119.785 320.882 117.581 321.402 114.982C321.873 112.653 323.615 109.285 325.954 109.304C328.293 109.323 329.274 111.999 328.322 114.395Z" fill="#B55B52"/>
<path d="M312.153 110.921C312.202 111.594 311.884 112.181 311.441 112.22C310.999 112.258 310.614 111.748 310.565 111.065C310.517 110.382 310.825 109.804 311.268 109.766C311.711 109.727 312.096 110.237 312.153 110.921Z" fill="#263238"/>
<path d="M304.3 111.517C304.348 112.191 304.031 112.778 303.597 112.817C303.164 112.855 302.76 112.345 302.712 111.662C302.664 110.978 302.972 110.401 303.415 110.362C303.857 110.324 304.252 110.834 304.3 111.517Z" fill="#263238"/>
<path d="M307.61 111.123C306.458 113.037 305.417 115.017 304.492 117.051C305.695 118.129 308.044 117.34 308.044 117.34L307.61 111.123Z" fill="#A02724"/>
<path d="M308.833 120.834C309.59 120.763 310.326 120.541 310.995 120.181C311.665 119.82 312.255 119.329 312.731 118.736C312.759 118.691 312.769 118.638 312.76 118.587C312.752 118.535 312.724 118.489 312.683 118.456C312.666 118.438 312.645 118.423 312.622 118.413C312.599 118.402 312.573 118.397 312.548 118.397C312.523 118.397 312.498 118.402 312.475 118.413C312.451 118.423 312.431 118.438 312.413 118.456C311.873 119.098 311.191 119.606 310.421 119.94C309.651 120.274 308.815 120.425 307.977 120.381C307.95 120.38 307.924 120.384 307.899 120.393C307.874 120.402 307.85 120.416 307.831 120.434C307.811 120.451 307.795 120.473 307.784 120.497C307.773 120.521 307.766 120.547 307.765 120.574C307.764 120.6 307.768 120.626 307.777 120.65C307.786 120.675 307.8 120.697 307.818 120.716C307.836 120.735 307.857 120.75 307.881 120.76C307.905 120.771 307.931 120.776 307.957 120.776C308.248 120.815 308.54 120.834 308.833 120.834Z" fill="#263238"/>
<path d="M315.223 108.39C315.288 108.371 315.347 108.338 315.397 108.294C315.471 108.218 315.513 108.116 315.513 108.01C315.513 107.903 315.471 107.801 315.397 107.726C314.995 107.245 314.481 106.871 313.9 106.638C313.319 106.405 312.689 106.319 312.067 106.388C311.962 106.403 311.868 106.459 311.805 106.544C311.741 106.629 311.714 106.736 311.73 106.84C311.745 106.945 311.801 107.039 311.886 107.102C311.971 107.166 312.077 107.192 312.182 107.177C312.674 107.133 313.169 107.209 313.625 107.398C314.081 107.588 314.484 107.885 314.8 108.265C314.85 108.325 314.917 108.37 314.993 108.392C315.068 108.414 315.148 108.414 315.223 108.39Z" fill="#263238"/>
<path d="M301.057 108.842C301.122 108.847 301.187 108.836 301.247 108.811C301.307 108.786 301.361 108.747 301.403 108.698C301.702 108.297 302.091 107.973 302.54 107.752C302.988 107.531 303.483 107.42 303.982 107.427C304.088 107.436 304.192 107.403 304.275 107.337C304.357 107.271 304.411 107.176 304.425 107.071C304.436 106.967 304.406 106.862 304.342 106.78C304.277 106.697 304.183 106.643 304.079 106.628C303.446 106.611 302.819 106.744 302.248 107.016C301.678 107.289 301.18 107.694 300.797 108.197C300.731 108.278 300.7 108.382 300.709 108.486C300.717 108.59 300.766 108.687 300.845 108.755C300.902 108.81 300.978 108.84 301.057 108.842Z" fill="#263238"/>
<path d="M258.95 144.038L250.654 145.549L251.405 135.434C251.405 135.434 259.104 134.981 260.144 139.052L258.95 144.038Z" fill="#B55B52"/>
<path d="M243.224 140.583L244.081 137.099C244.256 136.433 244.664 135.851 245.231 135.459C245.797 135.068 246.485 134.891 247.17 134.962L251.405 135.434L250.654 145.549L245.428 144.221C244.657 144.025 243.994 143.534 243.581 142.853C243.169 142.172 243.041 141.357 243.224 140.583Z" fill="#B55B52"/>
<path d="M307.043 95.474C308.708 90.8255 311.518 87.8324 314.088 87.457C315.811 87.2164 322.981 88.4195 326.089 90.0363C329.198 91.6532 333.702 97.5047 333.933 99.6605C334.164 101.816 331.383 107.196 331.383 107.196C331.383 107.196 318.9 99.0639 307.043 95.474Z" fill="#C50B44"/>
<path d="M311.094 89.2565C314.123 89.9357 317.106 90.8036 320.026 91.855C320.459 92.0283 320.603 92.4036 320.353 92.7212C319.862 93.3468 318.88 94.6461 318.216 95.6085C318.043 95.8052 317.813 95.9439 317.559 96.0058C317.304 96.0678 317.036 96.05 316.792 95.955C314.607 95.1465 310.854 93.9242 308.342 93.2409C307.89 93.1158 307.678 92.7886 307.813 92.4614C308.324 91.3509 309.043 90.3482 309.93 89.5067C310.092 89.3792 310.281 89.2904 310.483 89.247C310.685 89.2037 310.894 89.2069 311.094 89.2565Z" fill="white"/>
<path d="M300.383 94.6271C309.641 94.6271 313.019 100.719 317.812 102.5C322.605 104.28 330.487 103.385 330.487 103.385C330.487 103.385 314.415 92.8948 300.383 94.6271Z" fill="#C50B44"/>
<path d="M207.218 143.492L278.979 134.553L275.245 104.575L203.484 113.513L207.218 143.492Z" fill="#C50B44"/>
<path opacity="0.4" d="M232.338 140.36L278.973 134.552L275.239 104.573L228.604 110.382L232.338 140.36Z" fill="white"/>
<path opacity="0.3" d="M266.582 133.384L265.523 124.905L274.715 123.76L275.764 132.239L266.582 133.384ZM266.582 125.684L267.419 132.344L274.782 131.43L273.954 124.761L266.582 125.684Z" fill="white"/>
<path opacity="0.3" d="M255.659 134.75L254.601 126.272L263.782 125.126L264.841 133.605L255.659 134.75ZM255.659 127.051L256.487 133.711L263.859 132.797L263.031 126.137L255.659 127.051Z" fill="white"/>
<path d="M248.083 116.663L257.92 115.438L256.852 106.861L247.015 108.087L248.083 116.663Z" fill="white"/>
<path d="M214.306 120.883L219.912 120.184L218.844 111.608L213.238 112.306L214.306 120.883Z" fill="white"/>
<path d="M354.683 124.298C350.294 123.731 343.346 120.891 340.112 118.341C340.085 118.32 340.063 118.293 340.047 118.263C340.031 118.233 340.021 118.2 340.017 118.166C340.013 118.132 340.017 118.098 340.026 118.065C340.036 118.032 340.052 118.002 340.074 117.975C340.095 117.949 340.122 117.927 340.152 117.91C340.182 117.894 340.214 117.884 340.248 117.88C340.282 117.877 340.317 117.88 340.349 117.89C340.382 117.899 340.413 117.915 340.439 117.937C343.615 120.439 350.429 123.23 354.75 123.779C354.785 123.783 354.818 123.795 354.848 123.813C354.877 123.83 354.903 123.854 354.924 123.881C354.945 123.909 354.959 123.941 354.968 123.974C354.976 124.008 354.977 124.043 354.972 124.077C354.968 124.111 354.958 124.144 354.941 124.173C354.925 124.203 354.902 124.229 354.875 124.25C354.848 124.271 354.817 124.286 354.784 124.294C354.751 124.302 354.717 124.304 354.683 124.298Z" fill="white"/>
<path d="M290.595 188.569C290.564 188.577 290.531 188.577 290.499 188.569C286.399 186.904 280.413 182.38 277.939 179.089C277.912 179.033 277.905 178.969 277.92 178.908C277.934 178.847 277.97 178.793 278.02 178.755C278.07 178.718 278.132 178.699 278.194 178.702C278.257 178.705 278.317 178.729 278.363 178.771C280.788 182.005 286.669 186.471 290.701 188.088C290.764 188.117 290.813 188.169 290.838 188.234C290.863 188.298 290.862 188.37 290.836 188.434C290.812 188.477 290.777 188.512 290.735 188.536C290.692 188.56 290.644 188.571 290.595 188.569Z" fill="white"/>
<path d="M362.883 131.776C358.746 131.604 354.651 130.875 350.708 129.611C350.642 129.591 350.586 129.545 350.554 129.483C350.521 129.422 350.515 129.35 350.535 129.284C350.555 129.217 350.601 129.162 350.663 129.129C350.724 129.097 350.796 129.09 350.862 129.111C353.345 129.871 359.659 131.603 364.413 131.189C364.447 131.185 364.482 131.188 364.515 131.198C364.548 131.207 364.579 131.223 364.606 131.245C364.633 131.266 364.655 131.293 364.671 131.323C364.688 131.353 364.698 131.386 364.702 131.42C364.707 131.49 364.685 131.56 364.64 131.614C364.595 131.668 364.531 131.702 364.461 131.709C363.951 131.748 363.422 131.776 362.883 131.776Z" fill="white"/>
<path d="M132.777 90.3248C124.76 99.6026 136.097 107.177 138.311 114.992C140.524 122.807 139.216 139.639 149.157 149.264C164.633 164.277 182.486 155.818 185.527 147.04C188.569 138.263 187.452 124.481 174.296 114.992C166.433 109.333 172.583 90.6136 165.336 88.3711C166.808 77.0819 131.247 68.8917 132.777 90.3248Z" fill="#263238"/>
<path d="M185.296 146.29C185.254 146.29 185.212 146.279 185.175 146.259C185.138 146.239 185.107 146.21 185.084 146.174C185.051 146.117 185.04 146.05 185.054 145.986C185.069 145.921 185.107 145.865 185.161 145.828C187.731 144.172 189.107 141.227 189.011 137.541C188.896 131.516 184.613 122.97 175.306 117.446C171.1 114.953 170.667 107.514 170.273 100.95C169.974 95.7817 169.686 90.8926 167.664 89.2179C167.349 88.9649 166.984 88.781 166.592 88.6782C166.201 88.5755 165.792 88.556 165.393 88.6212C165.36 88.6267 165.325 88.6252 165.292 88.6168C165.259 88.6085 165.228 88.5935 165.201 88.5728C165.174 88.5521 165.152 88.526 165.135 88.4963C165.118 88.4666 165.108 88.4338 165.104 88.3999C165.099 88.3339 165.119 88.2683 165.16 88.2164C165.201 88.1646 165.26 88.1304 165.326 88.1208C165.795 88.0469 166.274 88.0712 166.733 88.1921C167.191 88.313 167.62 88.528 167.992 88.8234C170.167 90.6423 170.465 95.6373 170.773 100.921C171.158 107.36 171.591 114.655 175.585 117.013C183.92 121.96 189.396 130.015 189.531 137.532C189.608 141.381 188.145 144.499 185.421 146.251C185.384 146.276 185.341 146.29 185.296 146.29Z" fill="#263238"/>
<path d="M114.539 155.375L111.478 156.838L104.096 155.221C103.249 155.033 102.487 154.569 101.931 153.903L100.314 151.978C99.9546 151.547 99.7578 151.004 99.7578 150.443C99.7578 149.882 99.9546 149.338 100.314 148.908L101.998 146.925C102.401 146.449 102.973 146.149 103.594 146.09C104.214 146.031 104.833 146.216 105.319 146.607L109.399 149.88C109.399 149.88 114.336 151.439 114.539 155.375Z" fill="#FFBE9D"/>
<path d="M140.89 361.304L135.086 361.314L134.104 339.477L143.883 339.717L140.89 361.304Z" fill="#FFBE9D"/>
<path d="M130.784 172.872C130.784 172.872 130.274 233.504 128.994 259.855C128.946 260.641 128.946 261.428 128.994 262.213C130.919 288.651 134.076 339.477 134.076 339.477L143.921 339.727C143.921 339.727 152.506 299.142 147.184 262.377C155.721 220.8 160.331 183.699 152.593 172.872H130.784Z" fill="#263238"/>
<path d="M133.133 336.416C133.234 338.618 133.456 340.812 133.797 342.99C133.819 343.068 133.859 343.141 133.915 343.201C133.97 343.261 134.038 343.308 134.115 343.336C138.696 345.126 143.277 344.847 143.652 343.971C144.028 343.096 144.817 338.447 145.135 336.686C145.15 336.609 145.147 336.529 145.126 336.454C145.105 336.378 145.067 336.308 145.015 336.249C144.963 336.191 144.898 336.145 144.825 336.115C144.752 336.086 144.674 336.074 144.596 336.08C142.671 336.185 136.896 336.436 133.73 335.878C133.653 335.864 133.575 335.868 133.501 335.89C133.426 335.911 133.358 335.949 133.3 336.001C133.242 336.053 133.198 336.118 133.169 336.19C133.14 336.262 133.128 336.339 133.133 336.416Z" fill="#C50B44"/>
<path opacity="0.2" d="M147.281 196.942C144.297 207.066 147.204 239.587 148.763 254.6C150.89 243.754 152.699 233.321 154.037 223.707L147.281 196.942Z" fill="black"/>
<path d="M134.432 358.485H141.987C142.146 358.477 142.301 358.53 142.422 358.634C142.542 358.738 142.617 358.885 142.632 359.043L143.392 365.231C143.399 365.423 143.366 365.614 143.297 365.793C143.228 365.972 143.123 366.136 142.989 366.273C142.855 366.411 142.695 366.52 142.517 366.594C142.34 366.668 142.15 366.705 141.958 366.704C138.638 366.646 137.04 366.463 132.844 366.463C130.265 366.463 128.696 366.733 125.145 366.733C121.593 366.733 121.574 363.316 123.075 363.008C129.812 361.603 130.669 360.833 133.007 359.004C133.411 358.676 133.912 358.493 134.432 358.485Z" fill="#263238"/>
<path d="M133.643 123.413C132.551 123.185 131.413 123.397 130.477 124.005C129.541 124.613 128.883 125.566 128.648 126.656C127.839 130.429 126.964 134.288 126.059 138.08C125.154 141.872 124.134 145.645 123.018 149.283C122.45 151.092 121.834 152.873 121.151 154.528C120.833 155.298 120.474 156.05 120.073 156.78C120.015 156.867 119.967 156.963 119.909 157.059C119.248 156.779 118.605 156.457 117.984 156.097C116.492 155.134 114.895 154.018 113.384 152.911L113.278 152.834C112.887 152.546 112.408 152.402 111.923 152.425C111.437 152.448 110.975 152.638 110.612 152.962C110.25 153.285 110.01 153.724 109.933 154.204C109.856 154.684 109.946 155.175 110.189 155.596C111.249 157.498 112.542 159.26 114.038 160.842C114.86 161.725 115.777 162.516 116.772 163.2C117.403 163.618 118.081 163.96 118.793 164.22C119.856 164.618 121.008 164.715 122.123 164.499C122.861 164.348 123.561 164.05 124.182 163.623C124.473 163.415 124.747 163.183 125 162.93C125.083 162.848 125.16 162.762 125.231 162.67L125.414 162.458C125.849 161.945 126.248 161.401 126.608 160.832C127.229 159.854 127.788 158.839 128.282 157.791C129.245 155.808 129.986 153.854 130.688 151.901C132.084 147.993 133.171 144.076 134.211 140.159C134.74 138.234 135.173 136.232 135.635 134.26C136.097 132.287 136.511 130.333 136.877 128.293C137.074 127.219 136.848 126.11 136.245 125.2C135.642 124.29 134.709 123.649 133.643 123.413Z" fill="#FFBE9D"/>
<path d="M127.772 164.643C127.772 167.126 166.327 167.607 166.327 164.335L146.626 159.311L127.772 164.643Z" fill="#263238"/>
<path d="M134.856 121.786C145.022 120.089 155.408 120.193 165.538 122.094C166.131 122.188 166.7 122.402 167.208 122.724C167.715 123.045 168.152 123.468 168.49 123.965C168.828 124.461 169.061 125.022 169.174 125.613C169.287 126.203 169.278 126.811 169.147 127.397C163.699 151.814 164.007 160.014 164.537 172.872H130.794C129.1 151.429 128.215 139.187 127.984 132.238C127.811 126.945 129.61 122.566 134.856 121.786Z" fill="#FFBE9D"/>
<path opacity="0.2" d="M165.441 128.88C165.225 132.286 165.676 135.703 166.769 138.937C167.193 136.617 167.732 134.125 168.271 131.401L165.441 128.88Z" fill="black"/>
<path d="M154.498 103.962C153.536 108.851 152.574 117.802 156 121.065C156 121.065 154.662 126.021 145.586 126.021C135.606 126.021 140.774 121.065 140.774 121.065C146.222 119.765 146.087 115.723 145.134 111.922L154.498 103.962Z" fill="#FFBE9D"/>
<path opacity="0.2" d="M150.649 107.215L145.135 111.921C145.367 112.804 145.522 113.706 145.597 114.616C147.685 114.318 150.544 112.027 150.765 109.852C150.883 108.973 150.844 108.08 150.649 107.215Z" fill="black"/>
<path d="M136.732 97.6873C139.1 105.502 139.937 108.871 144.913 111.989C152.4 116.686 161.486 112.056 161.505 103.693C161.505 96.1571 157.655 84.6273 149.109 83.3184C147.232 83.0198 145.31 83.206 143.526 83.8594C141.741 84.5127 140.154 85.6115 138.914 87.0513C137.673 88.4912 136.822 90.2242 136.44 92.0858C136.058 93.9473 136.159 95.8756 136.732 97.6873Z" fill="#FFBE9D"/>
<path d="M137.589 103.125C141.39 103.404 143.007 97.293 141.159 93.9245C139.311 90.556 132.507 97.37 137.589 103.125Z" fill="#263238"/>
<path d="M135.51 89.5355C147.521 95.9837 154.758 83.9149 161.052 90.3247C157.963 81.403 140.967 77.5918 135.51 89.5355Z" fill="#263238"/>
<path d="M156.779 102.73C153.53 102.123 150.238 101.769 146.934 101.672C147.713 103.491 149.243 105.04 152.968 105.223C156.693 105.406 156.779 102.73 156.779 102.73Z" fill="white"/>
<path d="M197.952 346.916L192.129 348.697L183.631 330.892L192.591 328.438L197.952 346.916Z" fill="#FFBE9D"/>
<path d="M190.869 348.148L197.24 344.299C197.36 344.223 197.502 344.193 197.642 344.214C197.782 344.236 197.909 344.306 198.001 344.414L202.283 349.399C202.387 349.524 202.463 349.669 202.506 349.825C202.548 349.982 202.557 350.146 202.53 350.305C202.504 350.465 202.443 350.618 202.352 350.752C202.261 350.886 202.143 350.999 202.004 351.084C199.589 352.489 199.117 352.7 196.124 354.635C194.315 355.819 191.774 359.024 189.271 360.669C186.769 362.315 185.056 360.053 185.797 358.995C187.96 356.093 189.44 352.741 190.128 349.188C190.173 348.973 190.263 348.77 190.39 348.591C190.518 348.412 190.681 348.261 190.869 348.148Z" fill="#263238"/>
<path d="M140.062 172.872C140.062 172.872 152.468 236.305 157.145 261.415C162.006 287.535 183.651 330.882 183.651 330.882L192.63 328.418C192.63 328.418 180.33 282.087 174.594 259.124C173.478 217.547 174.806 183.68 164.556 172.853L140.062 172.872Z" fill="#263238"/>
<path d="M180.484 326.109C181.415 328.088 182.453 330.016 183.592 331.883C183.645 331.947 183.712 331.997 183.786 332.032C183.861 332.067 183.943 332.085 184.025 332.085C188.934 331.999 193.072 330.007 193.082 329.054C193.082 328.255 192.062 323.491 191.686 321.749C191.671 321.672 191.638 321.599 191.59 321.537C191.542 321.474 191.48 321.424 191.409 321.389C191.338 321.355 191.26 321.337 191.181 321.338C191.103 321.338 191.025 321.357 190.955 321.393C189.213 322.221 184.006 324.636 180.83 325.329C180.747 325.343 180.668 325.377 180.601 325.429C180.534 325.481 180.481 325.548 180.446 325.625C180.412 325.703 180.397 325.787 180.404 325.872C180.41 325.956 180.438 326.038 180.484 326.109Z" fill="#C50B44"/>
<path d="M149.889 96.7828C150.043 97.4372 150.514 97.8703 150.938 97.7452C151.361 97.6201 151.573 97.0426 151.419 96.3978C151.265 95.753 150.803 95.3103 150.38 95.4354C149.956 95.5605 149.735 96.138 149.889 96.7828Z" fill="#263238"/>
<path d="M157.194 95.031C157.348 95.6758 157.819 96.1185 158.243 95.9934C158.666 95.8683 158.878 95.2908 158.724 94.6364C158.57 93.9819 158.108 93.5488 157.684 93.6739C157.261 93.7991 157.04 94.4054 157.194 95.031Z" fill="#263238"/>
<path d="M157.501 93.7801L158.945 92.962C158.945 92.962 158.444 94.3672 157.501 93.7801Z" fill="#263238"/>
<path d="M155.221 96.7539C156.143 98.0912 157.248 99.2931 158.503 100.324C158.226 100.634 157.886 100.88 157.506 101.046C157.125 101.212 156.714 101.294 156.299 101.287L155.221 96.7539Z" fill="#FF5652"/>
<path d="M136.029 104.598C136.914 105.909 138.28 106.819 139.831 107.129C141.89 107.514 142.718 105.637 142.016 103.78C141.361 102.124 139.513 99.93 137.521 100.363C137.087 100.468 136.687 100.679 136.355 100.978C136.024 101.277 135.773 101.654 135.625 102.075C135.476 102.496 135.436 102.947 135.506 103.388C135.577 103.828 135.757 104.244 136.029 104.598Z" fill="#FFBE9D"/>
<path d="M134.653 89.5355C138.426 83.8476 143.623 87.6106 144.547 88.9003C145.471 90.1899 135.211 100.19 139.6 109.862C134.403 107.215 130.207 98.0818 134.653 89.5355Z" fill="#263238"/>
<path d="M146.876 96.1667C146.957 96.1522 147.031 96.1113 147.087 96.0505C147.143 95.9896 147.177 95.912 147.184 95.8299C147.348 94.0301 149.359 92.856 149.378 92.8463C149.466 92.7941 149.531 92.7096 149.557 92.6109C149.584 92.5121 149.572 92.4067 149.523 92.317C149.498 92.2725 149.464 92.2334 149.424 92.2019C149.384 92.1705 149.337 92.1474 149.288 92.134C149.239 92.1206 149.187 92.117 149.137 92.1237C149.086 92.1303 149.037 92.147 148.993 92.1726C148.887 92.2304 146.606 93.5585 146.404 95.7529C146.399 95.8042 146.404 95.8561 146.419 95.9054C146.435 95.9548 146.459 96.0006 146.493 96.0401C146.526 96.0796 146.567 96.112 146.613 96.1354C146.659 96.1588 146.709 96.1727 146.76 96.1763C146.799 96.1826 146.839 96.1793 146.876 96.1667Z" fill="#263238"/>
<path d="M159.214 91.1044C159.3 91.1193 159.389 91.1044 159.465 91.0624C159.542 91.0204 159.601 90.9537 159.635 90.8731C159.669 90.7926 159.674 90.7031 159.65 90.6192C159.626 90.5353 159.574 90.4621 159.503 90.4115C159.024 90.0181 158.457 89.7462 157.851 89.6189C157.244 89.4915 156.616 89.5125 156.019 89.6801C155.969 89.695 155.922 89.7203 155.883 89.7542C155.843 89.7881 155.811 89.83 155.788 89.8771C155.765 89.9242 155.753 89.9755 155.751 90.0278C155.75 90.08 155.759 90.1321 155.778 90.1805C155.795 90.2287 155.82 90.2731 155.854 90.3113C155.887 90.3495 155.928 90.3807 155.974 90.4031C156.019 90.4254 156.069 90.4385 156.12 90.4416C156.17 90.4447 156.221 90.4378 156.269 90.4211C156.743 90.2958 157.24 90.2855 157.719 90.3909C158.198 90.4964 158.644 90.7146 159.022 91.0274C159.08 91.0668 159.145 91.0931 159.214 91.1044Z" fill="#263238"/>
<path d="M183.275 150.707C183.275 150.457 183.227 150.188 183.179 149.909L183.102 149.485L183.035 149.196C182.938 148.85 182.852 148.475 182.746 148.157C181.974 145.75 180.979 143.42 179.772 141.199C178.675 139.062 177.472 137.031 176.23 135.039C173.757 131.035 171.158 127.243 168.3 123.49C167.599 122.703 166.629 122.208 165.58 122.101C164.532 121.994 163.481 122.284 162.636 122.913C161.791 123.542 161.212 124.465 161.013 125.5C160.814 126.535 161.011 127.607 161.563 128.504V128.552C164.133 132.133 166.751 135.838 169.205 139.514C170.417 141.372 171.592 143.239 172.698 145.096C173.753 146.843 174.673 148.667 175.451 150.553C175.547 150.765 175.595 150.958 175.663 151.15L175.711 151.275C175.711 151.275 175.711 151.275 175.711 151.333C175.753 151.598 175.753 151.867 175.711 152.132C175.597 153.022 175.394 153.899 175.104 154.749C174.423 156.757 173.613 158.718 172.679 160.62C171.717 162.603 170.754 164.585 169.638 166.539C168.521 168.493 167.453 170.485 166.356 172.42C166.102 172.869 166.023 173.395 166.133 173.899C166.243 174.403 166.535 174.849 166.953 175.151C167.37 175.454 167.885 175.592 168.398 175.539C168.911 175.486 169.387 175.246 169.734 174.864C172.873 171.372 175.734 167.639 178.29 163.7C179.629 161.641 180.8 159.479 181.793 157.233C182.354 155.965 182.783 154.642 183.073 153.287C183.243 152.438 183.311 151.572 183.275 150.707Z" fill="#FFBE9D"/>
<path d="M150.196 95.5123L151.65 94.6942C151.65 94.6942 151.139 96.0994 150.196 95.5123Z" fill="#263238"/>
<path d="M128.927 129.832C129.555 127.298 130.356 124.809 131.323 122.383C132.871 121.941 134.451 121.619 136.049 121.421C139.284 124.293 141.951 127.747 143.912 131.603C148.233 127.243 156.481 122.836 161.514 121.219C163.23 121.105 164.952 121.32 166.586 121.854C163.16 132.671 159.667 143.566 165.865 146.357C165.759 151.496 166.057 157.906 166.307 164.316C160.446 163.681 137.194 162.564 127.753 164.624C127.271 158.089 127.089 152.526 127.127 147.781C122.738 142.19 127.108 134.558 128.927 129.832Z" fill="#C50B44"/>
<path d="M156.144 126.906C155.067 126.425 153.912 125.877 152.737 125.251L152.218 125.54C153.507 126.233 154.768 126.839 155.933 127.368C156.78 127.753 157.636 128.129 158.502 128.504C160.302 129.293 162.111 130.102 163.882 130.978C163.93 130.814 163.969 130.65 164.017 130.477C162.265 129.621 160.475 128.822 158.704 128.042L156.144 126.906Z" fill="white"/>
<path d="M148.406 143.566C145.567 141.641 142.632 139.601 139.677 137.743C136.063 135.325 132.104 133.466 127.935 132.229L127.733 132.7C131.882 133.919 135.819 135.766 139.408 138.176C142.353 140.024 145.288 142.026 148.117 143.951C153.796 147.801 159.667 151.862 165.97 154.836C165.97 154.644 165.97 154.461 165.97 154.278C159.753 151.362 153.998 147.406 148.406 143.566Z" fill="white"/>
<path d="M165.865 148.676V148.128L164.99 147.752C152.478 142.353 139.485 136.771 129.611 127.359C129.553 127.542 129.505 127.724 129.447 127.907C139.37 137.272 152.286 142.835 164.787 148.214L165.865 148.676Z" fill="white"/>
<path d="M151.342 130.14C155.008 132.527 158.762 134.952 162.631 137.195C162.631 137.012 162.679 136.839 162.698 136.656C158.906 134.452 155.22 132.065 151.621 129.717L148.647 127.792L148.204 128.11L151.342 130.14Z" fill="white"/>
<path d="M136.126 155.664C132.839 154.079 129.809 152.009 127.137 149.524C127.137 149.755 127.137 149.995 127.137 150.226C129.764 152.592 132.713 154.575 135.895 156.116C138.474 157.406 141.178 158.522 143.796 159.61C146.684 160.803 149.677 162.054 152.506 163.536H153.642C150.515 161.89 147.302 160.412 144.018 159.109C141.39 158.089 138.686 156.973 136.126 155.664Z" fill="white"/>
<path d="M136.848 163.642C133.293 162.026 130.064 159.772 127.32 156.992C127.32 157.252 127.32 157.512 127.32 157.771C129.811 160.189 132.674 162.19 135.799 163.7L136.848 163.642Z" fill="white"/>
<path d="M163.526 155.779C159.224 153.565 154.643 151.727 150.216 149.956C143.094 147.069 135.731 144.182 129.466 139.581C128.293 138.744 127.192 137.811 126.174 136.79C126.116 136.973 126.049 137.156 126.001 137.339C126.984 138.304 128.043 139.189 129.167 139.986C135.49 144.596 142.882 147.56 150.033 150.418C154.45 152.189 159.022 154.018 163.295 156.193C164.253 156.679 165.182 157.222 166.076 157.819V157.203C165.251 156.685 164.4 156.21 163.526 155.779Z" fill="white"/>
<path d="M141.073 152.776C136.617 149.745 132.007 146.607 127.253 143.893C126.611 143.529 125.945 143.207 125.261 142.931C125.261 143.114 125.261 143.306 125.318 143.489C125.896 143.749 126.464 144.057 127.003 144.365C131.738 147.069 136.338 150.207 140.785 153.229C146.236 157.085 151.908 160.62 157.771 163.815L158.974 163.873C152.773 160.566 146.794 156.859 141.073 152.776Z" fill="white"/>
<path d="M171.89 171.447L168.781 170.1L161.457 172.025C160.618 172.246 159.874 172.736 159.34 173.42L157.8 175.432C157.455 175.878 157.279 176.431 157.302 176.995C157.325 177.558 157.545 178.095 157.925 178.512L159.677 180.437C160.095 180.898 160.677 181.178 161.299 181.217C161.92 181.257 162.533 181.053 163.007 180.648L166.982 177.232C166.982 177.232 171.746 174.912 171.89 171.447Z" fill="#FFBE9D"/>
<path d="M167.01 170.264C167.135 171.957 168.155 174.825 169.666 176.038C170.513 175.769 171.225 174.44 171.225 174.44C169.655 172.893 168.66 170.856 168.405 168.666C167.798 169.055 167.313 169.609 167.01 170.264Z" fill="#C50B44"/>
<path d="M114.327 154.239C115.184 150.852 111.844 149.283 110.362 145.125C109.814 143.585 108.765 144.365 108.697 146.039C108.775 148.057 109.212 150.045 109.987 151.91L114.327 154.239Z" fill="#FFBE9D"/>
<path d="M111.969 151.814L106.387 152.988C106.076 153.036 105.757 152.986 105.476 152.845C105.195 152.703 104.965 152.477 104.818 152.199L98.1294 138.879C98.06 138.765 98.0194 138.636 98.0113 138.503C98.0032 138.37 98.0277 138.237 98.0827 138.115C98.1377 137.994 98.2216 137.888 98.327 137.806C98.4325 137.724 98.5563 137.67 98.6876 137.647L104.27 136.482C104.58 136.432 104.898 136.48 105.18 136.62C105.461 136.759 105.691 136.984 105.838 137.262L112.527 150.582C112.599 150.695 112.642 150.825 112.651 150.958C112.66 151.092 112.636 151.226 112.581 151.349C112.526 151.471 112.441 151.577 112.334 151.659C112.227 151.74 112.102 151.793 111.969 151.814Z" fill="#C50B44"/>
<path d="M105.126 133.836C105.093 133.835 105.06 133.827 105.03 133.812C105 133.798 104.973 133.777 104.951 133.752C104.93 133.726 104.914 133.697 104.904 133.665C104.894 133.633 104.891 133.599 104.895 133.566L105.04 131.641C105.042 131.608 105.051 131.576 105.066 131.547C105.081 131.518 105.101 131.491 105.126 131.47C105.151 131.448 105.18 131.432 105.212 131.422C105.243 131.412 105.276 131.408 105.309 131.41C105.375 131.418 105.435 131.45 105.478 131.5C105.521 131.55 105.543 131.614 105.54 131.68L105.396 133.605C105.393 133.638 105.384 133.67 105.37 133.699C105.355 133.729 105.334 133.755 105.309 133.776C105.284 133.798 105.255 133.814 105.224 133.824C105.192 133.834 105.159 133.838 105.126 133.836Z" fill="#C50B44"/>
<path d="M107.07 134.577C107.005 134.574 106.943 134.546 106.897 134.5C106.851 134.452 106.826 134.388 106.826 134.322C106.826 134.256 106.851 134.192 106.897 134.144L110.284 130.756C110.333 130.711 110.396 130.685 110.463 130.685C110.529 130.685 110.592 130.711 110.641 130.756C110.665 130.779 110.685 130.806 110.699 130.837C110.712 130.867 110.719 130.901 110.719 130.934C110.719 130.968 110.712 131.001 110.699 131.031C110.685 131.062 110.665 131.09 110.641 131.112L107.253 134.49C107.23 134.516 107.202 134.537 107.17 134.552C107.139 134.567 107.105 134.575 107.07 134.577Z" fill="#C50B44"/>
<path d="M107.831 136.521C107.773 136.52 107.716 136.5 107.671 136.463C107.625 136.427 107.594 136.376 107.581 136.319C107.57 136.254 107.585 136.187 107.622 136.133C107.66 136.079 107.718 136.042 107.783 136.03L111.276 135.299C111.342 135.285 111.41 135.297 111.466 135.333C111.521 135.369 111.561 135.426 111.575 135.491C111.589 135.556 111.576 135.624 111.54 135.68C111.504 135.736 111.447 135.776 111.382 135.79L107.879 136.521H107.831Z" fill="#C50B44"/>
<path d="M111.353 152.709L105.781 153.883C105.47 153.931 105.151 153.883 104.868 153.743C104.586 153.603 104.353 153.38 104.202 153.104L97.5233 139.784C97.4514 139.67 97.4088 139.541 97.3994 139.407C97.3901 139.273 97.4141 139.139 97.4695 139.017C97.5249 138.895 97.6099 138.788 97.7167 138.707C97.8235 138.626 97.9489 138.572 98.0815 138.552L103.654 137.378C103.965 137.329 104.284 137.378 104.566 137.518C104.849 137.657 105.081 137.881 105.232 138.157L111.921 151.477C111.991 151.592 112.031 151.721 112.039 151.855C112.046 151.989 112.021 152.122 111.965 152.244C111.909 152.366 111.824 152.472 111.717 152.553C111.61 152.634 111.485 152.687 111.353 152.709Z" fill="#263238"/>
<path d="M100.343 148.869L101.44 147.56C101.584 147.385 101.767 147.248 101.975 147.158C102.183 147.068 102.409 147.029 102.634 147.044C102.86 147.059 103.079 147.128 103.273 147.244C103.467 147.361 103.63 147.522 103.75 147.714L105.675 150.717C106.066 151.325 106.278 152.032 106.287 152.755C106.295 153.479 106.1 154.19 105.723 154.807L105.559 155.077L100.343 148.869Z" fill="#FFBE9D"/>
<path d="M47.9008 60.6439L47.0635 60.105C50.5147 54.7411 55.1631 50.2508 60.6433 46.9872L61.1437 47.8726C55.8064 51.0552 51.2747 55.4255 47.9008 60.6439Z" fill="#C50B44"/>
<path d="M42.1743 75.4077L41.2119 75.2344C41.7117 72.2829 42.5414 69.3968 43.6853 66.6304L44.6478 67.0057C43.5176 69.7071 42.6881 72.5248 42.1743 75.4077Z" fill="#C50B44"/>
<path d="M118.744 82.1253C118.756 74.5244 116.448 67.1009 112.13 60.846C107.811 54.5912 101.687 49.8027 94.5753 47.1201C87.4636 44.4375 79.7027 43.9884 72.329 45.8328C64.9553 47.6772 58.3198 51.7274 53.3085 57.4423C48.2973 63.1573 45.1489 70.2652 44.2838 77.8166C43.4186 85.3681 44.8779 93.0038 48.4668 99.7041C52.0556 106.404 57.6032 111.85 64.3687 115.315C71.1343 118.779 78.7956 120.097 86.3298 119.092L99.5054 129.005L102.393 112.952C107.426 109.537 111.548 104.943 114.398 99.5701C117.249 94.1968 118.741 88.2077 118.744 82.1253Z" fill="#C50B44"/>
<path d="M70.9119 94.1747C70.7765 94.1753 70.6447 94.1313 70.5369 94.0496C70.429 93.9678 70.3511 93.8528 70.3152 93.7223L63.6937 71.2113C63.6693 71.122 63.6644 71.0285 63.6794 70.9372C63.6943 70.8458 63.7287 70.7588 63.7803 70.6819C63.8321 70.6052 63.9005 70.5411 63.9805 70.4944C64.0605 70.4478 64.15 70.4198 64.2423 70.4125L97.7153 67.3616C97.8049 67.3522 97.8954 67.3629 97.9803 67.3928C98.0652 67.4228 98.1423 67.4713 98.2062 67.5348C98.272 67.5977 98.3234 67.6742 98.3566 67.759C98.3899 67.8437 98.4042 67.9348 98.3986 68.0256L96.8684 91.2778C96.8579 91.4268 96.7952 91.5673 96.6913 91.6747C96.5875 91.782 96.4491 91.8494 96.3006 91.8648L70.9696 94.165L70.9119 94.1747ZM65.1373 71.5866L71.3931 92.8754L95.6942 90.6618L97.1379 68.6705L65.1373 71.5866Z" fill="white"/>
<path d="M64.3003 71.6539C64.203 71.6546 64.107 71.6323 64.02 71.5889C63.933 71.5454 63.8575 71.4819 63.7998 71.4036L61.1435 67.7945L55.9657 68.2661C55.8002 68.2796 55.6359 68.2277 55.5082 68.1216C55.3805 68.0154 55.2994 67.8635 55.2824 67.6983C55.2689 67.5328 55.3208 67.3686 55.4269 67.2409C55.5331 67.1131 55.685 67.032 55.8502 67.015L61.3841 66.5145C61.4906 66.5068 61.5974 66.5256 61.6948 66.5692C61.7922 66.6129 61.8773 66.6801 61.9423 66.7647L64.8296 70.6626C64.8781 70.7281 64.9132 70.8026 64.9327 70.8818C64.9522 70.961 64.9558 71.0432 64.9432 71.1238C64.9307 71.2044 64.9023 71.2817 64.8596 71.3512C64.817 71.4207 64.761 71.481 64.6949 71.5287C64.5833 71.6178 64.4427 71.6623 64.3003 71.6539Z" fill="white"/>
<path d="M75.205 103.404C74.595 103.404 73.9984 103.226 73.4877 102.892C72.977 102.559 72.5742 102.084 72.3284 101.526C72.0826 100.967 72.0043 100.35 72.103 99.7478C72.2018 99.1458 72.4734 98.5856 72.8847 98.1351C73.296 97.6847 73.8294 97.3635 74.4199 97.2106C75.0104 97.0577 75.6326 97.0798 76.2108 97.274C76.789 97.4682 77.2984 97.8263 77.6768 98.3047C78.0553 98.7831 78.2865 99.3612 78.3425 99.9686C78.3807 100.383 78.3361 100.801 78.2111 101.198C78.0861 101.595 77.8834 101.964 77.6147 102.282C77.3459 102.6 77.0166 102.861 76.6458 103.051C76.2751 103.24 75.8704 103.354 75.4552 103.385L75.205 103.404ZM75.205 98.3517H75.0318C74.6499 98.3805 74.2854 98.5225 73.9847 98.7596C73.684 98.9967 73.4609 99.3181 73.3439 99.6827C73.2268 100.047 73.2212 100.439 73.3276 100.806C73.4341 101.174 73.6479 101.502 73.9416 101.748C74.2353 101.993 74.5956 102.146 74.9765 102.186C75.3573 102.225 75.7414 102.151 76.0795 101.971C76.4177 101.791 76.6946 101.515 76.8749 101.177C77.0551 100.839 77.1305 100.455 77.0913 100.074C77.0422 99.6079 76.8243 99.1754 76.4788 98.8582C76.1332 98.5409 75.6836 98.3608 75.2146 98.3517H75.205Z" fill="white"/>
<path d="M92.3264 101.845C91.5909 101.845 90.879 101.586 90.315 101.114C89.6767 100.577 89.2763 99.8092 89.2006 98.9784C89.1249 98.1477 89.3801 97.3206 89.9108 96.6769C90.3093 96.1982 90.8409 95.8486 91.4383 95.6722C92.0357 95.4958 92.672 95.5007 93.2666 95.6862C93.8612 95.8717 94.3875 96.2295 94.7786 96.7142C95.1698 97.199 95.4083 97.7889 95.4639 98.4093C95.5008 98.8236 95.4552 99.2412 95.3298 99.6378C95.2043 100.034 95.0015 100.402 94.733 100.72C94.4645 101.038 94.1357 101.299 93.7655 101.489C93.3954 101.679 92.9913 101.793 92.5767 101.826L92.3264 101.845ZM92.3264 96.7924H92.1532C91.786 96.8383 91.4399 96.9891 91.1562 97.2266C90.8725 97.4642 90.6632 97.7785 90.5536 98.1319C90.4439 98.4853 90.4384 98.8628 90.5378 99.2193C90.6371 99.5757 90.8371 99.8959 91.1138 100.142C91.3042 100.303 91.5249 100.424 91.7629 100.498C92.0009 100.573 92.2515 100.599 92.4997 100.575C92.9985 100.524 93.4577 100.28 93.7795 99.8949C94.1012 99.5103 94.2601 99.0152 94.2224 98.5152C94.1728 98.0454 93.9522 97.6103 93.6026 97.2926C93.253 96.9749 92.7988 96.7969 92.3264 96.7924Z" fill="white"/>
<path d="M80.3152 87.486C79.9633 87.4801 79.6238 87.3545 79.3528 87.1299L73.8959 82.5873C73.6416 82.3155 73.4943 81.9608 73.4814 81.5888C73.4685 81.2168 73.5907 80.8527 73.8255 80.5639C74.0603 80.2751 74.3918 80.0811 74.7586 80.0178C75.1254 79.9545 75.5027 80.0263 75.8207 80.2197L80.0939 83.7711L88.8904 73.1844C89.1604 72.9209 89.5178 72.7656 89.8947 72.7481C90.2716 72.7306 90.6418 72.8521 90.9351 73.0896C91.2283 73.327 91.4242 73.6639 91.4855 74.0362C91.5468 74.4085 91.4692 74.7904 91.2676 75.1093L81.499 86.9374C81.3543 87.1105 81.1731 87.2494 80.9685 87.3442C80.7638 87.4391 80.5408 87.4875 80.3152 87.486Z" fill="white"/>
</g>
<defs>
<clipPath id="clip0_7_818">
<rect width="457" height="396" fill="white"/>
</clipPath>
</defs>
</svg>
